Blinker-Regular_15.ufo
<glyph name="quotedbl" format="1">
  <advance width="312.0"/>
  <unicode hex="0022"/>
  <outline>
    <contour>
      <point x="52" y="627" type="line"/>
      <point x="110" y="627" type="line"/>
      <point x="110" y="399" type="line"/>
      <point x="52" y="399" type="line"/>
    </contour>
    <contour>
      <point x="202" y="627" type="line"/>
      <point x="260" y="627" type="line"/>
      <point x="260" y="399" type="line"/>
      <point x="202" y="399" type="line"/>
    </contour>
  </outline>
</glyph>
<glyph name="numbersign" format="1">
  <advance width="571.0"/>
  <unicode hex="0023"/>
  <outline>
    <contour>
      <point x="545" y="493" type="line"/>
      <point x="545" y="436" type="line"/>
      <point x="451" y="436" type="line"/>
      <point x="413" y="201" type="line"/>
      <point x="510" y="201" type="line"/>
      <point x="510" y="144" type="line"/>
      <point x="404" y="144" type="line"/>
      <point x="380" y="0" type="line"/>
      <point x="320" y="0" type="line"/>
      <point x="343" y="144" type="line"/>
      <point x="174" y="144" type="line"/>
      <point x="151" y="0" type="line"/>
      <point x="90" y="0" type="line"/>
      <point x="114" y="144" type="line"/>
      <point x="26" y="144" type="line"/>
      <point x="26" y="201" type="line"/>
      <point x="124" y="201" type="line"/>
      <point x="162" y="436" type="line"/>
      <point x="61" y="436" type="line"/>
      <point x="61" y="493" type="line"/>
      <point x="173" y="493" type="line"/>
      <point x="194" y="627" type="line"/>
      <point x="254" y="627" type="line"/>
      <point x="232" y="493" type="line"/>
      <point x="401" y="493" type="line"/>
      <point x="423" y="627" type="line"/>
      <point x="483" y="627" type="line"/>
      <point x="461" y="493" type="line"/>
    </contour>
    <contour>
      <point x="353" y="201" type="line"/>
      <point x="391" y="436" type="line"/>
      <point x="223" y="436" type="line"/>
      <point x="184" y="201" type="line"/>
    </contour>
  </outline>
</glyph>
<glyph name="dollar" format="1">
  <advance width="479.0"/>
  <unicode hex="0024"/>
  <outline>
    <contour>
      <point x="274" y="-7" type="qcurve"/>
      <point x="274" y="-95" type="line"/>
      <point x="202" y="-95" type="line"/>
      <point x="202" y="-7" type="line"/>
      <point x="154" y="-5"/>
      <point x="66" y="10"/>
      <point x="39" y="21" type="qcurve"/>
      <point x="39" y="101" type="line"/>
      <point x="90" y="86"/>
      <point x="188" y="72"/>
      <point x="237" y="72" type="qcurve"/>
      <point x="306" y="72"/>
      <point x="363" y="118"/>
      <point x="363" y="179" type="qcurve"/>
      <point x="363" y="217"/>
      <point x="334" y="252"/>
      <point x="289" y="264" type="qcurve"/>
      <point x="158" y="300" type="line" smooth="yes"/>
      <point x="93" y="318"/>
      <point x="39" y="387"/>
      <point x="39" y="449" type="qcurve"/>
      <point x="39" y="534"/>
      <point x="119" y="624"/>
      <point x="202" y="634" type="qcurve"/>
      <point x="202" y="722" type="line"/>
      <point x="274" y="722" type="line"/>
      <point x="274" y="637" type="line"/>
      <point x="311" y="636"/>
      <point x="374" y="627"/>
      <point x="405" y="619" type="qcurve"/>
      <point x="405" y="542" type="line"/>
      <point x="350" y="553"/>
      <point x="286" y="560"/>
      <point x="252" y="560" type="qcurve" smooth="yes"/>
      <point x="184" y="560"/>
      <point x="123" y="511"/>
      <point x="123" y="455" type="qcurve"/>
      <point x="123" y="422"/>
      <point x="152" y="387"/>
      <point x="187" y="377" type="qcurve"/>
      <point x="318" y="341" type="line" smooth="yes"/>
      <point x="402" y="317"/>
      <point x="451" y="250"/>
      <point x="451" y="181" type="qcurve"/>
      <point x="451" y="90"/>
      <point x="365" y="1"/>
    </contour>
  </outline>
</glyph>
<glyph name="percent" format="1">
  <advance width="640.0"/>
  <unicode hex="0025"/>
  <outline>
    <contour>
      <point x="276" y="476" type="qcurve"/>
      <point x="276" y="392"/>
      <point x="219" y="320"/>
      <point x="151" y="320" type="qcurve"/>
      <point x="83" y="320"/>
      <point x="26" y="392"/>
      <point x="26" y="476" type="qcurve"/>
      <point x="26" y="561"/>
      <point x="83" y="632"/>
      <point x="151" y="632" type="qcurve"/>
      <point x="219" y="632"/>
      <point x="276" y="561"/>
    </contour>
    <contour>
      <point x="499" y="627" type="line"/>
      <point x="199" y="0" type="line"/>
      <point x="138" y="0" type="line"/>
      <point x="438" y="627" type="line"/>
    </contour>
    <contour>
      <point x="217" y="476" type="qcurve"/>
      <point x="217" y="535"/>
      <point x="188" y="582"/>
      <point x="151" y="582" type="qcurve"/>
      <point x="115" y="582"/>
      <point x="86" y="535"/>
      <point x="86" y="476" type="qcurve"/>
      <point x="86" y="418"/>
      <point x="115" y="372"/>
      <point x="151" y="372" type="qcurve"/>
      <point x="188" y="372"/>
      <point x="217" y="418"/>
    </contour>
    <contour>
      <point x="613" y="152" type="qcurve"/>
      <point x="613" y="67"/>
      <point x="557" y="-4"/>
      <point x="489" y="-4" type="qcurve"/>
      <point x="421" y="-4"/>
      <point x="364" y="67"/>
      <point x="364" y="152" type="qcurve"/>
      <point x="364" y="237"/>
      <point x="421" y="308"/>
      <point x="489" y="308" type="qcurve"/>
      <point x="556" y="308"/>
      <point x="613" y="237"/>
    </contour>
    <contour>
      <point x="554" y="152" type="qcurve"/>
      <point x="554" y="211"/>
      <point x="525" y="258"/>
      <point x="489" y="258" type="qcurve"/>
      <point x="452" y="258"/>
      <point x="423" y="211"/>
      <point x="423" y="152" type="qcurve"/>
      <point x="423" y="94"/>
      <point x="452" y="48"/>
      <point x="489" y="48" type="qcurve"/>
      <point x="525" y="48"/>
      <point x="554" y="94"/>
    </contour>
  </outline>
</glyph>
<glyph name="ampersand" format="1">
  <advance width="704.0"/>
  <unicode hex="0026"/>
  <outline>
    <contour>
      <point x="540" y="278" type="line"/>
      <point x="540" y="47" type="line"/>
      <point x="504" y="20"/>
      <point x="393" y="-8"/>
      <point x="323" y="-8" type="qcurve"/>
      <point x="178" y="-8"/>
      <point x="43" y="153"/>
      <point x="43" y="327" type="qcurve"/>
      <point x="43" y="483"/>
      <point x="177" y="637"/>
      <point x="312" y="637" type="qcurve"/>
      <point x="407" y="637"/>
      <point x="513" y="548"/>
      <point x="513" y="468" type="qcurve" smooth="yes"/>
      <point x="513" y="431"/>
      <point x="495" y="371"/>
      <point x="476" y="348" type="qcurve"/>
      <point x="687" y="348" type="line"/>
      <point x="687" y="278" type="line"/>
    </contour>
    <contour>
      <point x="307" y="560" type="qcurve"/>
      <point x="212" y="560"/>
      <point x="129" y="455"/>
      <point x="129" y="334" type="qcurve"/>
      <point x="129" y="332"/>
      <point x="129" y="329"/>
      <point x="129" y="327" type="qcurve"/>
      <point x="293" y="329"/>
      <point x="432" y="389"/>
      <point x="432" y="463" type="qcurve" smooth="yes"/>
      <point x="432" y="509"/>
      <point x="367" y="560"/>
    </contour>
    <contour>
      <point x="324" y="72" type="qcurve" smooth="yes"/>
      <point x="371" y="72"/>
      <point x="442" y="84"/>
      <point x="460" y="95" type="qcurve"/>
      <point x="460" y="331" type="line"/>
      <point x="419" y="294"/>
      <point x="259" y="258"/>
      <point x="133" y="256" type="qcurve"/>
      <point x="144" y="158"/>
      <point x="233" y="72"/>
    </contour>
  </outline>
</glyph>
<glyph name="parenleft" format="1">
  <advance width="220.0"/>
  <unicode hex="0028"/>
  <outline>
    <contour>
      <point x="117" y="313" type="qcurve"/>
      <point x="117" y="203"/>
      <point x="154" y="6"/>
      <point x="189" y="-62" type="qcurve"/>
      <point x="133" y="-80" type="line"/>
      <point x="90" y="-2"/>
      <point x="44" y="200"/>
      <point x="44" y="313" type="qcurve"/>
      <point x="44" y="430"/>
      <point x="89" y="631"/>
      <point x="133" y="707" type="qcurve"/>
      <point x="188" y="689" type="line"/>
      <point x="153" y="621"/>
      <point x="117" y="426"/>
    </contour>
  </outline>
</glyph>
<glyph name="parenright" format="1">
  <advance width="220.0"/>
  <unicode hex="0029"/>
  <outline>
    <contour>
      <point x="103" y="313" type="qcurve"/>
      <point x="103" y="426"/>
      <point x="67" y="621"/>
      <point x="32" y="689" type="qcurve"/>
      <point x="87" y="707" type="line"/>
      <point x="131" y="631"/>
      <point x="176" y="430"/>
      <point x="176" y="313" type="qcurve"/>
      <point x="176" y="200"/>
      <point x="130" y="-2"/>
      <point x="87" y="-80" type="qcurve"/>
      <point x="31" y="-62" type="line"/>
      <point x="66" y="6"/>
      <point x="103" y="203"/>
    </contour>
  </outline>
</glyph>
<glyph name="asterisk" format="1">
  <advance width="375.0"/>
  <unicode hex="002A"/>
  <outline>
    <contour>
      <point x="229" y="452" type="line"/>
      <point x="307" y="350" type="line"/>
      <point x="257" y="314" type="line"/>
      <point x="187" y="421" type="line"/>
      <point x="115" y="316" type="line"/>
      <point x="66" y="352" type="line"/>
      <point x="146" y="451" type="line"/>
      <point x="24" y="489" type="line"/>
      <point x="44" y="546" type="line"/>
      <point x="162" y="501" type="line"/>
      <point x="157" y="627" type="line"/>
      <point x="218" y="627" type="line"/>
      <point x="213" y="501" type="line"/>
      <point x="333" y="544" type="line"/>
      <point x="352" y="486" type="line"/>
    </contour>
  </outline>
</glyph>
<glyph name="comma" format="1">
  <advance width="168.0"/>
  <unicode hex="002C"/>
  <outline>
    <contour>
      <point x="128" y="86" type="line"/>
      <point x="103" y="-69" type="line" smooth="yes"/>
      <point x="101" y="-84"/>
      <point x="82" y="-100"/>
      <point x="67" y="-100" type="qcurve"/>
      <point x="41" y="-100" type="line"/>
      <point x="46" y="86" type="line"/>
    </contour>
  </outline>
</glyph>
<glyph name="period" format="1">
  <advance width="174.0"/>
  <unicode hex="002E"/>
  <outline>
    <contour>
      <point x="128" y="0" type="line"/>
      <point x="46" y="0" type="line"/>
      <point x="46" y="83" type="line"/>
      <point x="128" y="83" type="line"/>
    </contour>
  </outline>
</glyph>
<glyph name="slash" format="1">
  <advance width="309.0"/>
  <unicode hex="002F"/>
  <outline>
    <contour>
      <point x="291" y="707" type="line"/>
      <point x="87" y="-80" type="line"/>
      <point x="18" y="-80" type="line"/>
      <point x="223" y="707" type="line"/>
    </contour>
  </outline>
</glyph>
<glyph name="zero" format="1">
  <advance width="571.0"/>
  <unicode hex="0030"/>
  <outline>
    <contour>
      <point x="522" y="315" type="qcurve"/>
      <point x="522" y="136"/>
      <point x="418" y="-8"/>
      <point x="286" y="-8" type="qcurve"/>
      <point x="201" y="-8"/>
      <point x="108" y="34"/>
      <point x="84" y="82" type="qcurve" smooth="yes"/>
      <point x="66" y="118"/>
      <point x="49" y="230"/>
      <point x="49" y="315" type="qcurve"/>
      <point x="49" y="493"/>
      <point x="153" y="637"/>
      <point x="286" y="637" type="qcurve"/>
      <point x="370" y="637"/>
      <point x="464" y="595"/>
      <point x="488" y="547" type="qcurve" smooth="yes"/>
      <point x="505" y="511"/>
      <point x="522" y="400"/>
    </contour>
    <contour>
      <point x="419" y="482" type="qcurve" smooth="yes"/>
      <point x="406" y="525"/>
      <point x="346" y="560"/>
      <point x="286" y="560" type="qcurve"/>
      <point x="197" y="560"/>
      <point x="135" y="458"/>
      <point x="135" y="315" type="qcurve"/>
      <point x="135" y="168"/>
      <point x="194" y="72"/>
      <point x="286" y="72" type="qcurve"/>
      <point x="374" y="72"/>
      <point x="436" y="173"/>
      <point x="436" y="315" type="qcurve"/>
      <point x="436" y="376"/>
      <point x="428" y="456"/>
    </contour>
  </outline>
</glyph>
<glyph name="one" format="1">
  <advance width="364.0"/>
  <unicode hex="0031"/>
  <outline>
    <contour>
      <point x="285" y="0" type="line"/>
      <point x="200" y="0" type="line"/>
      <point x="200" y="553" type="line"/>
      <point x="15" y="530" type="line"/>
      <point x="15" y="603" type="line"/>
      <point x="285" y="637" type="line"/>
    </contour>
  </outline>
</glyph>
<glyph name="two" format="1">
  <advance width="452.0"/>
  <unicode hex="0032"/>
  <outline>
    <contour>
      <point x="413" y="80" type="line"/>
      <point x="413" y="0" type="line"/>
      <point x="28" y="0" type="line"/>
      <point x="28" y="80" type="line"/>
      <point x="255" y="333" type="line" smooth="yes"/>
      <point x="290" y="373"/>
      <point x="319" y="436"/>
      <point x="319" y="470" type="qcurve"/>
      <point x="319" y="513"/>
      <point x="270" y="560"/>
      <point x="224" y="560" type="qcurve"/>
      <point x="185" y="560"/>
      <point x="80" y="546"/>
      <point x="59" y="539" type="qcurve"/>
      <point x="59" y="614" type="line"/>
      <point x="98" y="625"/>
      <point x="190" y="637"/>
      <point x="237" y="637" type="qcurve"/>
      <point x="317" y="637"/>
      <point x="404" y="554"/>
      <point x="404" y="479" type="qcurve"/>
      <point x="404" y="430"/>
      <point x="368" y="346"/>
      <point x="324" y="297" type="qcurve"/>
      <point x="129" y="80" type="line"/>
    </contour>
  </outline>
</glyph>
<glyph name="three" format="1">
  <advance width="457.0"/>
  <unicode hex="0033"/>
  <outline>
    <contour>
      <point x="387" y="477" type="qcurve"/>
      <point x="387" y="419"/>
      <point x="334" y="344"/>
      <point x="283" y="330" type="qcurve"/>
      <point x="283" y="328" type="line"/>
      <point x="347" y="324"/>
      <point x="414" y="246"/>
      <point x="414" y="175" type="qcurve"/>
      <point x="414" y="86"/>
      <point x="307" y="-8"/>
      <point x="205" y="-8" type="qcurve"/>
      <point x="148" y="-8"/>
      <point x="64" y="2"/>
      <point x="34" y="12" type="qcurve"/>
      <point x="34" y="88" type="line"/>
      <point x="73" y="79"/>
      <point x="144" y="72"/>
      <point x="192" y="72" type="qcurve"/>
      <point x="265" y="72"/>
      <point x="334" y="125"/>
      <point x="334" y="181" type="qcurve"/>
      <point x="334" y="235"/>
      <point x="273" y="284"/>
      <point x="207" y="284" type="qcurve"/>
      <point x="109" y="284" type="line"/>
      <point x="109" y="358" type="line"/>
      <point x="187" y="358" type="line"/>
      <point x="244" y="358"/>
      <point x="307" y="413"/>
      <point x="307" y="464" type="qcurve"/>
      <point x="307" y="515"/>
      <point x="256" y="560"/>
      <point x="200" y="560" type="qcurve"/>
      <point x="166" y="560"/>
      <point x="77" y="548"/>
      <point x="53" y="542" type="qcurve"/>
      <point x="53" y="614" type="line"/>
      <point x="87" y="625"/>
      <point x="175" y="637"/>
      <point x="220" y="637" type="qcurve"/>
      <point x="302" y="637"/>
      <point x="387" y="555"/>
    </contour>
  </outline>
</glyph>
<glyph name="four" format="1">
  <advance width="518.0"/>
  <unicode hex="0034"/>
  <outline>
    <contour>
      <point x="493" y="240" type="line"/>
      <point x="493" y="166" type="line"/>
      <point x="407" y="166" type="line"/>
      <point x="407" y="0" type="line"/>
      <point x="322" y="0" type="line"/>
      <point x="322" y="166" type="line"/>
      <point x="35" y="166" type="line"/>
      <point x="35" y="240" type="line"/>
      <point x="111" y="627" type="line"/>
      <point x="193" y="627" type="line"/>
      <point x="121" y="240" type="line"/>
      <point x="322" y="240" type="line"/>
      <point x="322" y="517" type="line"/>
      <point x="407" y="517" type="line"/>
      <point x="407" y="240" type="line"/>
    </contour>
  </outline>
</glyph>
<glyph name="five" format="1">
  <advance width="456.0"/>
  <unicode hex="0035"/>
  <outline>
    <contour>
      <point x="421" y="185" type="qcurve" smooth="yes"/>
      <point x="421" y="89"/>
      <point x="319" y="-8"/>
      <point x="218" y="-8" type="qcurve"/>
      <point x="157" y="-8"/>
      <point x="67" y="2"/>
      <point x="40" y="12" type="qcurve"/>
      <point x="40" y="88" type="line"/>
      <point x="75" y="80"/>
      <point x="152" y="72"/>
      <point x="197" y="72" type="qcurve"/>
      <point x="273" y="72"/>
      <point x="336" y="124"/>
      <point x="336" y="186" type="qcurve" smooth="yes"/>
      <point x="336" y="243"/>
      <point x="276" y="289"/>
      <point x="193" y="289" type="qcurve" smooth="yes"/>
      <point x="159" y="289"/>
      <point x="99" y="284"/>
      <point x="69" y="278" type="qcurve"/>
      <point x="69" y="627" type="line"/>
      <point x="381" y="627" type="line"/>
      <point x="381" y="550" type="line"/>
      <point x="154" y="550" type="line"/>
      <point x="154" y="356" type="line"/>
      <point x="177" y="359"/>
      <point x="216" y="362"/>
      <point x="235" y="362" type="qcurve" smooth="yes"/>
      <point x="333" y="362"/>
      <point x="421" y="276"/>
    </contour>
  </outline>
</glyph>
<glyph name="six" format="1">
  <advance width="514.0"/>
  <unicode hex="0036"/>
  <outline>
    <contour>
      <point x="268" y="-8" type="qcurve"/>
      <point x="147" y="-8"/>
      <point x="47" y="130"/>
      <point x="47" y="297" type="qcurve"/>
      <point x="47" y="479"/>
      <point x="176" y="637"/>
      <point x="322" y="637" type="qcurve"/>
      <point x="344" y="637"/>
      <point x="397" y="633"/>
      <point x="411" y="630" type="qcurve"/>
      <point x="411" y="555" type="line"/>
      <point x="385" y="558"/>
      <point x="343" y="560"/>
      <point x="322" y="560" type="qcurve"/>
      <point x="223" y="560"/>
      <point x="140" y="470"/>
      <point x="133" y="355" type="qcurve"/>
      <point x="179" y="380"/>
      <point x="263" y="402"/>
      <point x="311" y="402" type="qcurve"/>
      <point x="398" y="402"/>
      <point x="481" y="308"/>
      <point x="481" y="210" type="qcurve"/>
      <point x="481" y="107"/>
      <point x="369" y="-8"/>
    </contour>
    <contour>
      <point x="399" y="207" type="qcurve"/>
      <point x="399" y="274"/>
      <point x="346" y="330"/>
      <point x="279" y="330" type="qcurve"/>
      <point x="242" y="330"/>
      <point x="166" y="308"/>
      <point x="131" y="288" type="qcurve"/>
      <point x="132" y="167"/>
      <point x="190" y="72"/>
      <point x="265" y="72" type="qcurve"/>
      <point x="331" y="72"/>
      <point x="399" y="140"/>
    </contour>
  </outline>
</glyph>
<glyph name="seven" format="1">
  <advance width="445.0"/>
  <unicode hex="0037"/>
  <outline>
    <contour>
      <point x="421" y="627" type="line"/>
      <point x="421" y="550" type="line"/>
      <point x="131" y="0" type="line"/>
      <point x="36" y="0" type="line"/>
      <point x="330" y="550" type="line"/>
      <point x="30" y="550" type="line"/>
      <point x="30" y="627" type="line"/>
    </contour>
  </outline>
</glyph>
<glyph name="eight" format="1">
  <advance width="523.0"/>
  <unicode hex="0038"/>
  <outline>
    <contour>
      <point x="477" y="168" type="qcurve"/>
      <point x="477" y="77"/>
      <point x="373" y="-8"/>
      <point x="260" y="-8" type="qcurve"/>
      <point x="147" y="-8"/>
      <point x="46" y="73"/>
      <point x="46" y="163" type="qcurve"/>
      <point x="46" y="229"/>
      <point x="111" y="312"/>
      <point x="171" y="322" type="qcurve"/>
      <point x="114" y="333"/>
      <point x="57" y="410"/>
      <point x="58" y="473" type="qcurve"/>
      <point x="58" y="557"/>
      <point x="156" y="637"/>
      <point x="260" y="637" type="qcurve"/>
      <point x="368" y="637"/>
      <point x="466" y="561"/>
      <point x="466" y="476" type="qcurve"/>
      <point x="466" y="411"/>
      <point x="408" y="334"/>
      <point x="351" y="322" type="qcurve"/>
      <point x="412" y="313"/>
      <point x="477" y="233"/>
    </contour>
    <contour>
      <point x="390" y="462" type="qcurve"/>
      <point x="390" y="514"/>
      <point x="328" y="562"/>
      <point x="260" y="562" type="qcurve"/>
      <point x="194" y="562"/>
      <point x="134" y="514"/>
      <point x="134" y="461" type="qcurve"/>
      <point x="134" y="404"/>
      <point x="195" y="353"/>
      <point x="260" y="353" type="qcurve"/>
      <point x="327" y="353"/>
      <point x="390" y="405"/>
    </contour>
    <contour>
      <point x="398" y="179" type="qcurve"/>
      <point x="398" y="234"/>
      <point x="332" y="285"/>
      <point x="260" y="285" type="qcurve"/>
      <point x="190" y="285"/>
      <point x="126" y="233"/>
      <point x="126" y="175" type="qcurve"/>
      <point x="126" y="120"/>
      <point x="190" y="70"/>
      <point x="260" y="70" type="qcurve"/>
      <point x="332" y="70"/>
      <point x="398" y="122"/>
    </contour>
  </outline>
</glyph>
<glyph name="nine" format="1">
  <advance width="512.0"/>
  <unicode hex="0039"/>
  <outline>
    <contour>
      <point x="248" y="637" type="qcurve"/>
      <point x="369" y="637"/>
      <point x="464" y="501"/>
      <point x="464" y="332" type="qcurve"/>
      <point x="464" y="151"/>
      <point x="335" y="-8"/>
      <point x="189" y="-8" type="qcurve"/>
      <point x="165" y="-8"/>
      <point x="111" y="-3"/>
      <point x="97" y="0" type="qcurve"/>
      <point x="97" y="77" type="line"/>
      <point x="113" y="75"/>
      <point x="160" y="72"/>
      <point x="189" y="72" type="qcurve"/>
      <point x="287" y="72"/>
      <point x="370" y="162"/>
      <point x="377" y="276" type="qcurve"/>
      <point x="339" y="253"/>
      <point x="257" y="230"/>
      <point x="210" y="230" type="qcurve"/>
      <point x="119" y="230"/>
      <point x="33" y="325"/>
      <point x="33" y="424" type="qcurve"/>
      <point x="33" y="525"/>
      <point x="146" y="637"/>
    </contour>
    <contour>
      <point x="248" y="560" type="qcurve"/>
      <point x="183" y="560"/>
      <point x="116" y="493"/>
      <point x="116" y="428" type="qcurve"/>
      <point x="116" y="359"/>
      <point x="171" y="302"/>
      <point x="240" y="302" type="qcurve"/>
      <point x="277" y="302"/>
      <point x="347" y="323"/>
      <point x="379" y="344" type="qcurve"/>
      <point x="378" y="469"/>
      <point x="323" y="560"/>
    </contour>
  </outline>
</glyph>
<glyph name="less" format="1">
  <advance width="500.0"/>
  <unicode hex="003C"/>
  <outline>
    <contour>
      <point x="463" y="164" type="line"/>
      <point x="463" y="82" type="line"/>
      <point x="37" y="266" type="line"/>
      <point x="37" y="358" type="line"/>
      <point x="463" y="542" type="line"/>
      <point x="463" y="462" type="line"/>
      <point x="98" y="313" type="line"/>
    </contour>
  </outline>
</glyph>
<glyph name="greater" format="1">
  <advance width="500.0"/>
  <unicode hex="003E"/>
  <outline>
    <contour>
      <point x="463" y="266" type="line"/>
      <point x="37" y="82" type="line"/>
      <point x="37" y="164" type="line"/>
      <point x="402" y="313" type="line"/>
      <point x="37" y="462" type="line"/>
      <point x="37" y="542" type="line"/>
      <point x="463" y="358" type="line"/>
    </contour>
  </outline>
</glyph>
<glyph name="question" format="1">
  <advance width="379.0"/>
  <unicode hex="003F"/>
  <outline>
    <contour>
      <point x="185" y="637" type="qcurve"/>
      <point x="266" y="637"/>
      <point x="356" y="567"/>
      <point x="356" y="502" type="qcurve" smooth="yes"/>
      <point x="356" y="443"/>
      <point x="280" y="342"/>
      <point x="198" y="295" type="qcurve"/>
      <point x="198" y="173" type="line"/>
      <point x="123" y="173" type="line"/>
      <point x="123" y="330" type="line"/>
      <point x="206" y="372"/>
      <point x="276" y="444"/>
      <point x="276" y="484" type="qcurve" smooth="yes"/>
      <point x="276" y="521"/>
      <point x="223" y="560"/>
      <point x="173" y="560" type="qcurve"/>
      <point x="136" y="560"/>
      <point x="53" y="545"/>
      <point x="22" y="533" type="qcurve"/>
      <point x="22" y="609" type="line"/>
      <point x="60" y="623"/>
      <point x="139" y="637"/>
    </contour>
    <contour>
      <point x="203" y="81" type="line"/>
      <point x="203" y="0" type="line"/>
      <point x="116" y="0" type="line"/>
      <point x="116" y="81" type="line"/>
    </contour>
  </outline>
</glyph>
<glyph name="at" format="1">
  <advance width="644.0"/>
  <unicode hex="0040"/>
  <outline>
    <contour>
      <point x="298" y="75" type="qcurve"/>
      <point x="251" y="75"/>
      <point x="204" y="125"/>
      <point x="204" y="176" type="qcurve"/>
      <point x="204" y="227"/>
      <point x="259" y="271"/>
      <point x="325" y="271" type="qcurve"/>
      <point x="346" y="271"/>
      <point x="388" y="267"/>
      <point x="402" y="264" type="qcurve"/>
      <point x="402" y="289" type="line" smooth="yes"/>
      <point x="402" y="322"/>
      <point x="368" y="352"/>
      <point x="332" y="352" type="qcurve" smooth="yes"/>
      <point x="304" y="352"/>
      <point x="257" y="347"/>
      <point x="235" y="341" type="qcurve"/>
      <point x="235" y="397" type="line"/>
      <point x="259" y="403"/>
      <point x="311" y="409"/>
      <point x="346" y="409" type="qcurve"/>
      <point x="405" y="409"/>
      <point x="461" y="355"/>
      <point x="461" y="297" type="qcurve"/>
      <point x="461" y="163" type="line" smooth="yes"/>
      <point x="461" y="147"/>
      <point x="472" y="132"/>
      <point x="483" y="132" type="qcurve"/>
      <point x="513" y="132"/>
      <point x="550" y="216"/>
      <point x="550" y="285" type="qcurve"/>
      <point x="550" y="389"/>
      <point x="446" y="496"/>
      <point x="344" y="496" type="qcurve"/>
      <point x="217" y="496"/>
      <point x="110" y="376"/>
      <point x="110" y="236" type="qcurve" smooth="yes"/>
      <point x="110" y="106"/>
      <point x="229" y="-13"/>
      <point x="362" y="-13" type="qcurve"/>
      <point x="409" y="-13"/>
      <point x="496" y="7"/>
      <point x="531" y="26" type="qcurve"/>
      <point x="531" y="-36" type="line"/>
      <point x="496" y="-56"/>
      <point x="402" y="-76"/>
      <point x="347" y="-76" type="qcurve"/>
      <point x="192" y="-76"/>
      <point x="42" y="78"/>
      <point x="42" y="236" type="qcurve" smooth="yes"/>
      <point x="42" y="397"/>
      <point x="193" y="557"/>
      <point x="344" y="557" type="qcurve"/>
      <point x="475" y="557"/>
      <point x="613" y="420"/>
      <point x="613" y="292" type="qcurve"/>
      <point x="613" y="192"/>
      <point x="538" y="75"/>
      <point x="473" y="75" type="qcurve"/>
      <point x="450" y="75"/>
      <point x="420" y="95"/>
      <point x="414" y="115" type="qcurve"/>
      <point x="393" y="96"/>
      <point x="332" y="75"/>
    </contour>
    <contour>
      <point x="333" y="225" type="qcurve"/>
      <point x="292" y="225"/>
      <point x="263" y="206"/>
      <point x="263" y="180" type="qcurve"/>
      <point x="263" y="153"/>
      <point x="288" y="130"/>
      <point x="316" y="130" type="qcurve"/>
      <point x="341" y="130"/>
      <point x="388" y="144"/>
      <point x="402" y="156" type="qcurve"/>
      <point x="402" y="220" type="line"/>
      <point x="375" y="223"/>
      <point x="348" y="225"/>
    </contour>
  </outline>
</glyph>
<glyph name="A" format="1">
  <advance width="598.0"/>
  <unicode hex="0041"/>
  <outline>
    <contour>
      <point x="98" y="0" type="line"/>
      <point x="8" y="0" type="line"/>
      <point x="256" y="627" type="line"/>
      <point x="344" y="627" type="line"/>
      <point x="589" y="0" type="line"/>
      <point x="499" y="0" type="line"/>
      <point x="442" y="151" type="line"/>
      <point x="155" y="151" type="line"/>
    </contour>
    <contour>
      <point x="298" y="549" type="qcurve"/>
      <point x="288" y="514"/>
      <point x="261" y="436"/>
      <point x="247" y="397" type="qcurve"/>
      <point x="183" y="226" type="line"/>
      <point x="414" y="226" type="line"/>
      <point x="350" y="397" type="line" smooth="yes"/>
      <point x="330" y="452"/>
      <point x="307" y="520"/>
    </contour>
    <contour>
      <point x="299.0" y="645" type="move" name="top"/>
    </contour>
    <contour>
      <point x="587.0" y="0" type="move" name="ogonek"/>
    </contour>
  </outline>
</glyph>
<glyph name="B" format="1">
  <advance width="560.0"/>
  <unicode hex="0042"/>
  <outline>
    <contour>
      <point x="522" y="180" type="qcurve"/>
      <point x="522" y="84"/>
      <point x="418" y="0"/>
      <point x="303" y="0" type="qcurve"/>
      <point x="72" y="0" type="line"/>
      <point x="72" y="627" type="line"/>
      <point x="302" y="627" type="line" smooth="yes"/>
      <point x="406" y="627"/>
      <point x="494" y="557"/>
      <point x="494" y="472" type="qcurve"/>
      <point x="494" y="411"/>
      <point x="451" y="345"/>
      <point x="400" y="333" type="qcurve"/>
      <point x="461" y="325"/>
      <point x="522" y="249"/>
    </contour>
    <contour>
      <point x="415" y="460" type="qcurve"/>
      <point x="415" y="512"/>
      <point x="365" y="553"/>
      <point x="303" y="553" type="qcurve"/>
      <point x="157" y="553" type="line"/>
      <point x="157" y="357" type="line"/>
      <point x="303" y="357" type="line" smooth="yes"/>
      <point x="363" y="357"/>
      <point x="415" y="405"/>
    </contour>
    <contour>
      <point x="440" y="185" type="qcurve"/>
      <point x="440" y="241"/>
      <point x="378" y="285"/>
      <point x="303" y="285" type="qcurve"/>
      <point x="157" y="285" type="line"/>
      <point x="157" y="76" type="line"/>
      <point x="303" y="76" type="line" smooth="yes"/>
      <point x="378" y="76"/>
      <point x="440" y="124"/>
    </contour>
  </outline>
</glyph>
<glyph name="C" format="1">
  <advance width="518.0"/>
  <unicode hex="0043"/>
  <outline>
    <contour>
      <point x="321" y="72" type="qcurve" smooth="yes"/>
      <point x="362" y="72"/>
      <point x="453" y="91"/>
      <point x="492" y="107" type="qcurve"/>
      <point x="492" y="31" type="line"/>
      <point x="437" y="9"/>
      <point x="352" y="-8"/>
      <point x="306" y="-8" type="qcurve" smooth="yes"/>
      <point x="162" y="-8"/>
      <point x="44" y="141"/>
      <point x="44" y="315" type="qcurve" smooth="yes"/>
      <point x="44" y="482"/>
      <point x="181" y="637"/>
      <point x="331" y="637" type="qcurve"/>
      <point x="377" y="637"/>
      <point x="449" y="633"/>
      <point x="478" y="628" type="qcurve"/>
      <point x="478" y="553" type="line"/>
      <point x="443" y="557"/>
      <point x="372" y="560"/>
      <point x="331" y="560" type="qcurve"/>
      <point x="219" y="560"/>
      <point x="131" y="449"/>
      <point x="131" y="315" type="qcurve" smooth="yes"/>
      <point x="131" y="179"/>
      <point x="211" y="72"/>
    </contour>
    <contour>
      <point x="312.0" y="655" type="move" name="top"/>
    </contour>
    <contour>
      <point x="299.0" y="0" type="move" name="bottom"/>
    </contour>
  </outline>
</glyph>
<glyph name="D" format="1">
  <advance width="606.0"/>
  <unicode hex="0044"/>
  <outline>
    <contour>
      <point x="254" y="0" type="qcurve"/>
      <point x="72" y="0" type="line"/>
      <point x="72" y="627" type="line"/>
      <point x="254" y="627" type="line" smooth="yes"/>
      <point x="350" y="627"/>
      <point x="463" y="595"/>
      <point x="497" y="560" type="qcurve" smooth="yes"/>
      <point x="531" y="525"/>
      <point x="562" y="406"/>
      <point x="562" y="314" type="qcurve"/>
      <point x="562" y="151"/>
      <point x="416" y="0"/>
    </contour>
    <contour>
      <point x="433" y="499" type="qcurve" smooth="yes"/>
      <point x="410" y="526"/>
      <point x="328" y="550"/>
      <point x="254" y="550" type="qcurve"/>
      <point x="157" y="550" type="line"/>
      <point x="157" y="80" type="line"/>
      <point x="254" y="80" type="line" smooth="yes"/>
      <point x="378" y="80"/>
      <point x="475" y="186"/>
      <point x="475" y="314" type="qcurve"/>
      <point x="475" y="385"/>
      <point x="455" y="473"/>
    </contour>
    <contour>
      <point x="288.0" y="645" type="move" name="top"/>
    </contour>
  </outline>
</glyph>
<glyph name="F" format="1">
  <advance width="498.0"/>
  <unicode hex="0046"/>
  <outline>
    <contour>
      <point x="157" y="258" type="line"/>
      <point x="157" y="0" type="line"/>
      <point x="72" y="0" type="line"/>
      <point x="72" y="627" type="line"/>
      <point x="474" y="627" type="line"/>
      <point x="474" y="550" type="line"/>
      <point x="157" y="550" type="line"/>
      <point x="157" y="333" type="line"/>
      <point x="437" y="333" type="line"/>
      <point x="437" y="258" type="line"/>
    </contour>
  </outline>
</glyph>
<glyph name="G" format="1">
  <advance width="596.0"/>
  <unicode hex="0047"/>
  <outline>
    <contour>
      <point x="470" y="257" type="line"/>
      <point x="307" y="257" type="line"/>
      <point x="307" y="332" type="line"/>
      <point x="550" y="332" type="line"/>
      <point x="550" y="30" type="line"/>
      <point x="522" y="17"/>
      <point x="378" y="-8"/>
      <point x="319" y="-8" type="qcurve"/>
      <point x="164" y="-8"/>
      <point x="45" y="138"/>
      <point x="45" y="314" type="qcurve" smooth="yes"/>
      <point x="45" y="480"/>
      <point x="187" y="637"/>
      <point x="339" y="637" type="qcurve"/>
      <point x="391" y="637"/>
      <point x="486" y="632"/>
      <point x="516" y="627" type="qcurve"/>
      <point x="516" y="552" type="line"/>
      <point x="476" y="556"/>
      <point x="383" y="560"/>
      <point x="339" y="560" type="qcurve" smooth="yes"/>
      <point x="225" y="560"/>
      <point x="132" y="448"/>
      <point x="132" y="314" type="qcurve" smooth="yes"/>
      <point x="132" y="248"/>
      <point x="147" y="159"/>
      <point x="164" y="132" type="qcurve" smooth="yes"/>
      <point x="184" y="98"/>
      <point x="258" y="69"/>
      <point x="329" y="69" type="qcurve"/>
      <point x="357" y="69"/>
      <point x="433" y="78"/>
      <point x="470" y="86" type="qcurve"/>
    </contour>
    <contour>
      <point x="333.0" y="655" type="move" name="top"/>
    </contour>
    <contour>
      <point x="326.0" y="0" type="move" name="bottom"/>
    </contour>
  </outline>
</glyph>
<glyph name="I" format="1">
  <advance width="229.0"/>
  <unicode hex="0049"/>
  <outline>
    <contour>
      <point x="157" y="627" type="line"/>
      <point x="157" y="0" type="line"/>
      <point x="72" y="0" type="line"/>
      <point x="72" y="627" type="line"/>
    </contour>
    <contour>
      <point x="115.0" y="645" type="move" name="top"/>
    </contour>
    <contour>
      <point x="156.0" y="0" type="move" name="ogonek"/>
    </contour>
  </outline>
</glyph>
<glyph name="J" format="1">
  <advance width="429.0"/>
  <unicode hex="004A"/>
  <outline>
    <contour>
      <point x="277" y="234" type="qcurve"/>
      <point x="277" y="627" type="line"/>
      <point x="362" y="627" type="line"/>
      <point x="362" y="229" type="line" smooth="yes"/>
      <point x="362" y="105"/>
      <point x="254" y="-8"/>
      <point x="133" y="-8" type="qcurve"/>
      <point x="99" y="-8"/>
      <point x="41" y="-2"/>
      <point x="17" y="5" type="qcurve"/>
      <point x="17" y="83" type="line"/>
      <point x="45" y="77"/>
      <point x="94" y="72"/>
      <point x="122" y="72" type="qcurve"/>
      <point x="209" y="72"/>
      <point x="277" y="144"/>
    </contour>
    <contour>
      <point x="320.0" y="645" type="move" name="top"/>
    </contour>
  </outline>
</glyph>
<glyph name="K" format="1">
  <advance width="579.0"/>
  <unicode hex="004B"/>
  <outline>
    <contour>
      <point x="312" y="321" type="line"/>
      <point x="578" y="0" type="line"/>
      <point x="468" y="0" type="line"/>
      <point x="239" y="281" type="line"/>
      <point x="157" y="281" type="line"/>
      <point x="157" y="0" type="line"/>
      <point x="72" y="0" type="line"/>
      <point x="72" y="627" type="line"/>
      <point x="157" y="627" type="line"/>
      <point x="157" y="356" type="line"/>
      <point x="239" y="356" type="line"/>
      <point x="464" y="627" type="line"/>
      <point x="568" y="627" type="line"/>
    </contour>
    <contour>
      <point x="283.0" y="0" type="move" name="bottom"/>
    </contour>
  </outline>
</glyph>
<glyph name="L" format="1">
  <advance width="472.0"/>
  <unicode hex="004C"/>
  <outline>
    <contour>
      <point x="456" y="80" type="line"/>
      <point x="456" y="0" type="line"/>
      <point x="72" y="0" type="line"/>
      <point x="72" y="627" type="line"/>
      <point x="157" y="627" type="line"/>
      <point x="157" y="80" type="line"/>
    </contour>
    <contour>
      <point x="115.0" y="645" type="move" name="top"/>
    </contour>
    <contour>
      <point x="340.0" y="627" type="move" name="caronalt"/>
    </contour>
    <contour>
      <point x="274.0" y="0" type="move" name="bottom"/>
    </contour>
  </outline>
</glyph>
<glyph name="M" format="1">
  <advance width="735.0"/>
  <unicode hex="004D"/>
  <outline>
    <contour>
      <point x="663" y="627" type="line"/>
      <point x="663" y="0" type="line"/>
      <point x="583" y="0" type="line"/>
      <point x="583" y="494" type="line"/>
      <point x="404" y="125" type="line"/>
      <point x="331" y="125" type="line"/>
      <point x="152" y="495" type="line"/>
      <point x="152" y="0" type="line"/>
      <point x="72" y="0" type="line"/>
      <point x="72" y="627" type="line"/>
      <point x="179" y="627" type="line"/>
      <point x="369" y="228" type="line"/>
      <point x="560" y="627" type="line"/>
    </contour>
  </outline>
</glyph>
<glyph name="N" format="1">
  <advance width="657.0"/>
  <unicode hex="004E"/>
  <outline>
    <contour>
      <point x="585" y="627" type="line"/>
      <point x="585" y="0" type="line"/>
      <point x="499" y="0" type="line"/>
      <point x="152" y="488" type="line"/>
      <point x="152" y="0" type="line"/>
      <point x="72" y="0" type="line"/>
      <point x="72" y="627" type="line"/>
      <point x="158" y="627" type="line"/>
      <point x="505" y="132" type="line"/>
      <point x="505" y="627" type="line"/>
    </contour>
    <contour>
      <point x="334.0" y="645" type="move" name="top"/>
    </contour>
    <contour>
      <point x="330.0" y="0" type="move" name="bottom"/>
    </contour>
  </outline>
</glyph>
<glyph name="O" format="1">
  <advance width="649.0"/>
  <unicode hex="004F"/>
  <outline>
    <contour>
      <point x="604" y="315" type="qcurve"/>
      <point x="604" y="144"/>
      <point x="473" y="-8"/>
      <point x="325" y="-8" type="qcurve"/>
      <point x="166" y="-8"/>
      <point x="45" y="133"/>
      <point x="45" y="315" type="qcurve"/>
      <point x="45" y="485"/>
      <point x="177" y="637"/>
      <point x="325" y="637" type="qcurve"/>
      <point x="484" y="637"/>
      <point x="604" y="496"/>
    </contour>
    <contour>
      <point x="161" y="134" type="qcurve" smooth="yes"/>
      <point x="180" y="100"/>
      <point x="254" y="72"/>
      <point x="325" y="72" type="qcurve" smooth="yes"/>
      <point x="436" y="72"/>
      <point x="518" y="179"/>
      <point x="518" y="315" type="qcurve"/>
      <point x="518" y="383"/>
      <point x="504" y="470"/>
      <point x="489" y="497" type="qcurve" smooth="yes"/>
      <point x="470" y="531"/>
      <point x="397" y="560"/>
      <point x="325" y="560" type="qcurve"/>
      <point x="213" y="560"/>
      <point x="131" y="452"/>
      <point x="131" y="315" type="qcurve"/>
      <point x="131" y="247"/>
      <point x="145" y="160"/>
    </contour>
    <contour>
      <point x="325.0" y="655" type="move" name="top"/>
    </contour>
  </outline>
</glyph>
<glyph name="P" format="1">
  <advance width="563.0"/>
  <unicode hex="0050"/>
  <outline>
    <contour>
      <point x="157" y="203" type="line"/>
      <point x="157" y="0" type="line"/>
      <point x="72" y="0" type="line"/>
      <point x="72" y="627" type="line"/>
      <point x="285" y="627" type="line" smooth="yes"/>
      <point x="418" y="627"/>
      <point x="533" y="531"/>
      <point x="533" y="422" type="qcurve"/>
      <point x="533" y="311"/>
      <point x="413" y="203"/>
      <point x="288" y="203" type="qcurve"/>
    </contour>
    <contour>
      <point x="447" y="422" type="qcurve"/>
      <point x="447" y="491"/>
      <point x="372" y="550"/>
      <point x="285" y="550" type="qcurve"/>
      <point x="157" y="550" type="line"/>
      <point x="157" y="278" type="line"/>
      <point x="285" y="278" type="line" smooth="yes"/>
      <point x="372" y="278"/>
      <point x="447" y="346"/>
    </contour>
  </outline>
</glyph>
<glyph name="R" format="1">
  <advance width="579.0"/>
  <unicode hex="0052"/>
  <outline>
    <contour>
      <point x="157" y="225" type="line"/>
      <point x="157" y="0" type="line"/>
      <point x="72" y="0" type="line"/>
      <point x="72" y="627" type="line"/>
      <point x="285" y="627" type="line" smooth="yes"/>
      <point x="418" y="627"/>
      <point x="533" y="536"/>
      <point x="533" y="431" type="qcurve"/>
      <point x="533" y="349"/>
      <point x="460" y="252"/>
      <point x="386" y="235" type="qcurve"/>
      <point x="550" y="0" type="line"/>
      <point x="448" y="0" type="line"/>
      <point x="296" y="225" type="line"/>
      <point x="294" y="225"/>
      <point x="290" y="225"/>
      <point x="288" y="225" type="qcurve"/>
    </contour>
    <contour>
      <point x="447" y="431" type="qcurve"/>
      <point x="447" y="495"/>
      <point x="373" y="550"/>
      <point x="285" y="550" type="qcurve"/>
      <point x="157" y="550" type="line"/>
      <point x="157" y="300" type="line"/>
      <point x="285" y="300" type="line" smooth="yes"/>
      <point x="371" y="300"/>
      <point x="447" y="362"/>
    </contour>
    <contour>
      <point x="283.0" y="645" type="move" name="top"/>
    </contour>
    <contour>
      <point x="286.0" y="0" type="move" name="bottom"/>
    </contour>
  </outline>
</glyph>
<glyph name="S" format="1">
  <advance width="504.0"/>
  <unicode hex="0053"/>
  <outline>
    <contour>
      <point x="314" y="263" type="qcurve"/>
      <point x="162" y="299" type="line" smooth="yes"/>
      <point x="99" y="314"/>
      <point x="43" y="387"/>
      <point x="43" y="452" type="qcurve"/>
      <point x="43" y="547"/>
      <point x="152" y="637"/>
      <point x="267" y="637" type="qcurve" smooth="yes"/>
      <point x="315" y="637"/>
      <point x="392" y="628"/>
      <point x="425" y="619" type="qcurve"/>
      <point x="425" y="542" type="line"/>
      <point x="383" y="552"/>
      <point x="307" y="560"/>
      <point x="266" y="560" type="qcurve" smooth="yes"/>
      <point x="189" y="560"/>
      <point x="127" y="515"/>
      <point x="127" y="458" type="qcurve"/>
      <point x="127" y="422"/>
      <point x="156" y="385"/>
      <point x="189" y="377" type="qcurve"/>
      <point x="340" y="341" type="line" smooth="yes"/>
      <point x="420" y="322"/>
      <point x="473" y="253"/>
      <point x="473" y="181" type="qcurve"/>
      <point x="473" y="78"/>
      <point x="366" y="-8"/>
      <point x="250" y="-8" type="qcurve"/>
      <point x="189" y="-8"/>
      <point x="76" y="8"/>
      <point x="43" y="21" type="qcurve"/>
      <point x="43" y="101" type="line"/>
      <point x="90" y="87"/>
      <point x="196" y="72"/>
      <point x="250" y="72" type="qcurve"/>
      <point x="325" y="72"/>
      <point x="385" y="116"/>
      <point x="385" y="179" type="qcurve"/>
      <point x="385" y="218"/>
      <point x="356" y="253"/>
    </contour>
    <contour>
      <point x="256.0" y="655" type="move" name="top"/>
    </contour>
    <contour>
      <point x="241.0" y="0" type="move" name="bottom"/>
    </contour>
  </outline>
</glyph>
<glyph name="T" format="1">
  <advance width="531.0"/>
  <unicode hex="0054"/>
  <outline>
    <contour>
      <point x="516" y="627" type="line"/>
      <point x="516" y="550" type="line"/>
      <point x="308" y="550" type="line"/>
      <point x="308" y="0" type="line"/>
      <point x="223" y="0" type="line"/>
      <point x="223" y="550" type="line"/>
      <point x="15" y="550" type="line"/>
      <point x="15" y="627" type="line"/>
    </contour>
    <contour>
      <point x="266.0" y="645" type="move" name="top"/>
    </contour>
    <contour>
      <point x="266.0" y="0" type="move" name="bottom"/>
    </contour>
  </outline>
</glyph>
<glyph name="U" format="1">
  <advance width="633.0"/>
  <unicode hex="0055"/>
  <outline>
    <contour>
      <point x="482" y="250" type="qcurve"/>
      <point x="482" y="627" type="line"/>
      <point x="567" y="627" type="line"/>
      <point x="567" y="250" type="line" smooth="yes"/>
      <point x="567" y="118"/>
      <point x="444" y="-8"/>
      <point x="315" y="-8" type="qcurve"/>
      <point x="185" y="-8"/>
      <point x="66" y="115"/>
      <point x="66" y="250" type="qcurve"/>
      <point x="66" y="627" type="line"/>
      <point x="151" y="627" type="line"/>
      <point x="151" y="250" type="line" smooth="yes"/>
      <point x="151" y="151"/>
      <point x="224" y="72"/>
      <point x="315" y="72" type="qcurve"/>
      <point x="407" y="72"/>
      <point x="482" y="151"/>
    </contour>
    <contour>
      <point x="314.0" y="645" type="move" name="top"/>
    </contour>
    <contour>
      <point x="464.0" y="24" type="move" name="ogonekalt"/>
    </contour>
  </outline>
</glyph>
<glyph name="V" format="1">
  <advance width="586.0"/>
  <unicode hex="0056"/>
  <outline>
    <contour>
      <point x="243" y="0" type="line"/>
      <point x="8" y="627" type="line"/>
      <point x="102" y="627" type="line"/>
      <point x="246" y="230" type="line" smooth="yes"/>
      <point x="254" y="205"/>
      <point x="278" y="128"/>
      <point x="295" y="67" type="qcurve"/>
      <point x="308" y="115"/>
      <point x="333" y="201"/>
      <point x="343" y="230" type="qcurve"/>
      <point x="486" y="627" type="line"/>
      <point x="578" y="627" type="line"/>
      <point x="343" y="0" type="line"/>
    </contour>
  </outline>
</glyph>
<glyph name="W" format="1">
  <advance width="854.0"/>
  <unicode hex="0057"/>
  <outline>
    <contour>
      <point x="187" y="0" type="line"/>
      <point x="13" y="627" type="line"/>
      <point x="105" y="627" type="line"/>
      <point x="209" y="230" type="line" smooth="yes"/>
      <point x="213" y="214"/>
      <point x="222" y="171"/>
      <point x="238" y="82" type="qcurve"/>
      <point x="256" y="173"/>
      <point x="266" y="215"/>
      <point x="270" y="230" type="qcurve"/>
      <point x="384" y="627" type="line"/>
      <point x="473" y="627" type="line"/>
      <point x="588" y="230" type="line" smooth="yes"/>
      <point x="592" y="215"/>
      <point x="602" y="175"/>
      <point x="620" y="84" type="qcurve"/>
      <point x="631" y="145"/>
      <point x="646" y="218"/>
      <point x="649" y="230" type="qcurve"/>
      <point x="752" y="627" type="line"/>
      <point x="841" y="627" type="line"/>
      <point x="667" y="0" type="line"/>
      <point x="571" y="0" type="line"/>
      <point x="470" y="336" type="line" smooth="yes"/>
      <point x="459" y="373"/>
      <point x="439" y="457"/>
      <point x="427" y="515" type="qcurve"/>
      <point x="415" y="457"/>
      <point x="395" y="373"/>
      <point x="384" y="336" type="qcurve"/>
      <point x="284" y="0" type="line"/>
    </contour>
    <contour>
      <point x="428.0" y="645" type="move" name="top"/>
    </contour>
  </outline>
</glyph>
<glyph name="X" format="1">
  <advance width="547.0"/>
  <unicode hex="0058"/>
  <outline>
    <contour>
      <point x="322" y="325" type="line"/>
      <point x="547" y="0" type="line"/>
      <point x="443" y="0" type="line"/>
      <point x="268" y="258" type="line"/>
      <point x="98" y="0" type="line"/>
      <point x="4" y="0" type="line"/>
      <point x="221" y="322" type="line"/>
      <point x="13" y="627" type="line"/>
      <point x="116" y="627" type="line"/>
      <point x="272" y="385" type="line"/>
      <point x="434" y="627" type="line"/>
      <point x="526" y="627" type="line"/>
    </contour>
    <contour>
      <point x="274.0" y="645" type="move" name="top"/>
    </contour>
  </outline>
</glyph>
<glyph name="Y" format="1">
  <advance width="575.0"/>
  <unicode hex="0059"/>
  <outline>
    <contour>
      <point x="476" y="627" type="line"/>
      <point x="564" y="627" type="line"/>
      <point x="331" y="238" type="line"/>
      <point x="331" y="0" type="line"/>
      <point x="246" y="0" type="line"/>
      <point x="246" y="238" type="line"/>
      <point x="7" y="627" type="line"/>
      <point x="103" y="627" type="line"/>
      <point x="290" y="314" type="line"/>
    </contour>
    <contour>
      <point x="290.0" y="645" type="move" name="top"/>
    </contour>
  </outline>
</glyph>
<glyph name="Z" format="1">
  <advance width="508.0"/>
  <unicode hex="005A"/>
  <outline>
    <contour>
      <point x="485" y="80" type="line"/>
      <point x="485" y="0" type="line"/>
      <point x="24" y="0" type="line"/>
      <point x="24" y="80" type="line"/>
      <point x="370" y="550" type="line"/>
      <point x="53" y="550" type="line"/>
      <point x="53" y="627" type="line"/>
      <point x="466" y="627" type="line"/>
      <point x="466" y="550" type="line"/>
      <point x="121" y="80" type="line"/>
    </contour>
    <contour>
      <point x="261.0" y="645" type="move" name="top"/>
    </contour>
  </outline>
</glyph>
<glyph name="bracketleft" format="1">
  <advance width="263.0"/>
  <unicode hex="005B"/>
  <outline>
    <contour>
      <point x="238" y="-20" type="line"/>
      <point x="238" y="-82" type="line"/>
      <point x="70" y="-82" type="line"/>
      <point x="70" y="707" type="line"/>
      <point x="238" y="707" type="line"/>
      <point x="238" y="646" type="line"/>
      <point x="137" y="646" type="line"/>
      <point x="137" y="-20" type="line"/>
    </contour>
  </outline>
</glyph>
<glyph name="backslash" format="1">
  <advance width="308.0"/>
  <unicode hex="005C"/>
  <outline>
    <contour>
      <point x="86" y="707" type="line"/>
      <point x="290" y="-80" type="line"/>
      <point x="222" y="-80" type="line"/>
      <point x="17" y="707" type="line"/>
    </contour>
  </outline>
</glyph>
<glyph name="bracketright" format="1">
  <advance width="263.0"/>
  <unicode hex="005D"/>
  <outline>
    <contour>
      <point x="193" y="-82" type="line"/>
      <point x="25" y="-82" type="line"/>
      <point x="25" y="-20" type="line"/>
      <point x="126" y="-20" type="line"/>
      <point x="126" y="646" type="line"/>
      <point x="25" y="646" type="line"/>
      <point x="25" y="707" type="line"/>
      <point x="193" y="707" type="line"/>
    </contour>
  </outline>
</glyph>
<glyph name="asciicircum" format="1">
  <advance width="500.0"/>
  <unicode hex="005E"/>
  <outline>
    <contour>
      <point x="161" y="365" type="line"/>
      <point x="81" y="365" type="line"/>
      <point x="213" y="627" type="line"/>
      <point x="287" y="627" type="line"/>
      <point x="418" y="365" type="line"/>
      <point x="338" y="365" type="line"/>
      <point x="250" y="554" type="line"/>
    </contour>
  </outline>
</glyph>
<glyph name="grave" format="1">
  <advance width="307.0"/>
  <unicode hex="0060"/>
  <outline>
    <contour>
      <point x="181" y="564" type="line"/>
      <point x="50" y="686" type="line"/>
      <point x="154" y="686" type="line"/>
      <point x="257" y="564" type="line"/>
    </contour>
    <contour>
      <point x="186.0" y="530.0" type="move" name="_top"/>
    </contour>
  </outline>
</glyph>
<glyph name="a" format="1">
  <advance width="493.0"/>
  <unicode hex="0061"/>
  <outline>
    <contour>
      <point x="178" y="-8" type="qcurve"/>
      <point x="102" y="-8"/>
      <point x="31" y="65"/>
      <point x="31" y="144" type="qcurve"/>
      <point x="31" y="224"/>
      <point x="117" y="291"/>
      <point x="220" y="291" type="qcurve"/>
      <point x="254" y="291"/>
      <point x="320" y="285"/>
      <point x="349" y="279" type="qcurve"/>
      <point x="349" y="327" type="line" smooth="yes"/>
      <point x="349" y="382"/>
      <point x="293" y="430"/>
      <point x="231" y="430" type="qcurve" smooth="yes"/>
      <point x="185" y="430"/>
      <point x="115" y="423"/>
      <point x="80" y="415" type="qcurve"/>
      <point x="80" y="486" type="line"/>
      <point x="120" y="496"/>
      <point x="203" y="504"/>
      <point x="256" y="504" type="qcurve" smooth="yes"/>
      <point x="345" y="504"/>
      <point x="431" y="421"/>
      <point x="431" y="334" type="qcurve"/>
      <point x="431" y="0" type="line"/>
      <point x="356" y="0" type="line"/>
      <point x="352" y="46" type="line"/>
      <point x="350" y="46" type="line"/>
      <point x="320" y="22"/>
      <point x="225" y="-8"/>
    </contour>
    <contour>
      <point x="229" y="224" type="qcurve"/>
      <point x="161" y="224"/>
      <point x="108" y="191"/>
      <point x="108" y="149" type="qcurve"/>
      <point x="108" y="105"/>
      <point x="152" y="66"/>
      <point x="202" y="66" type="qcurve"/>
      <point x="241" y="66"/>
      <point x="323" y="90"/>
      <point x="349" y="108" type="qcurve"/>
      <point x="349" y="214" type="line"/>
      <point x="316" y="219"/>
      <point x="259" y="224"/>
    </contour>
    <contour>
      <point x="246.0" y="530" type="move" name="top"/>
    </contour>
    <contour>
      <point x="431.0" y="0" type="move" name="ogonek"/>
    </contour>
  </outline>
</glyph>
<glyph name="b" format="1">
  <advance width="540.0"/>
  <unicode hex="0062"/>
  <outline>
    <contour>
      <point x="310" y="504" type="qcurve"/>
      <point x="411" y="504"/>
      <point x="498" y="385"/>
      <point x="498" y="250" type="qcurve" smooth="yes"/>
      <point x="498" y="112"/>
      <point x="390" y="-8"/>
      <point x="263" y="-8" type="qcurve"/>
      <point x="206" y="-8"/>
      <point x="106" y="5"/>
      <point x="65" y="18" type="qcurve"/>
      <point x="65" y="665" type="line"/>
      <point x="147" y="665" type="line"/>
      <point x="147" y="460" type="line"/>
      <point x="182" y="481"/>
      <point x="266" y="504"/>
    </contour>
    <contour>
      <point x="416" y="250" type="qcurve" smooth="yes"/>
      <point x="416" y="351"/>
      <point x="359" y="430"/>
      <point x="281" y="430" type="qcurve"/>
      <point x="245" y="430"/>
      <point x="175" y="411"/>
      <point x="147" y="394" type="qcurve"/>
      <point x="147" y="81" type="line"/>
      <point x="169" y="75"/>
      <point x="225" y="68"/>
      <point x="258" y="68" type="qcurve"/>
      <point x="351" y="68"/>
      <point x="416" y="146"/>
    </contour>
  </outline>
</glyph>
<glyph name="c" format="1">
  <advance width="439.0"/>
  <unicode hex="0063"/>
  <outline>
    <contour>
      <point x="411" y="98" type="qcurve"/>
      <point x="411" y="29" type="line"/>
      <point x="386" y="13"/>
      <point x="287" y="-8"/>
      <point x="233" y="-8" type="qcurve"/>
      <point x="128" y="-8"/>
      <point x="43" y="106"/>
      <point x="43" y="248" type="qcurve" smooth="yes"/>
      <point x="43" y="387"/>
      <point x="153" y="504"/>
      <point x="285" y="504" type="qcurve"/>
      <point x="314" y="504"/>
      <point x="361" y="501"/>
      <point x="398" y="496" type="qcurve"/>
      <point x="398" y="423" type="line"/>
      <point x="361" y="428"/>
      <point x="314" y="430"/>
      <point x="285" y="430" type="qcurve"/>
      <point x="191" y="430"/>
      <point x="125" y="353"/>
      <point x="125" y="248" type="qcurve" smooth="yes"/>
      <point x="125" y="143"/>
      <point x="177" y="68"/>
      <point x="251" y="68" type="qcurve"/>
      <point x="292" y="68"/>
      <point x="380" y="85"/>
    </contour>
    <contour>
      <point x="264.0" y="530" type="move" name="top"/>
    </contour>
    <contour>
      <point x="246.0" y="0" type="move" name="bottom"/>
    </contour>
  </outline>
</glyph>
<glyph name="d" format="1">
  <advance width="541.0"/>
  <unicode hex="0064"/>
  <outline>
    <contour>
      <point x="393" y="665" type="line"/>
      <point x="475" y="665" type="line"/>
      <point x="475" y="0" type="line"/>
      <point x="404" y="0" type="line"/>
      <point x="398" y="46" type="line"/>
      <point x="396" y="46" type="line"/>
      <point x="367" y="19"/>
      <point x="284" y="-8"/>
      <point x="230" y="-8" type="qcurve"/>
      <point x="129" y="-8"/>
      <point x="42" y="112"/>
      <point x="42" y="248" type="qcurve" smooth="yes"/>
      <point x="42" y="384"/>
      <point x="148" y="504"/>
      <point x="272" y="504" type="qcurve"/>
      <point x="307" y="504"/>
      <point x="368" y="493"/>
      <point x="393" y="483" type="qcurve"/>
    </contour>
    <contour>
      <point x="282" y="430" type="qcurve"/>
      <point x="189" y="430"/>
      <point x="124" y="352"/>
      <point x="124" y="248" type="qcurve" smooth="yes"/>
      <point x="124" y="147"/>
      <point x="181" y="68"/>
      <point x="259" y="68" type="qcurve"/>
      <point x="296" y="68"/>
      <point x="364" y="87"/>
      <point x="393" y="106" type="qcurve"/>
      <point x="393" y="410" type="line"/>
      <point x="369" y="420"/>
      <point x="315" y="430"/>
    </contour>
    <contour>
      <point x="545.0" y="665" type="move" name="caronalt"/>
    </contour>
  </outline>
</glyph>
<glyph name="e" format="1">
  <advance width="498.0"/>
  <unicode hex="0065"/>
  <outline>
    <contour>
      <point x="437" y="96" type="qcurve"/>
      <point x="437" y="27" type="line"/>
      <point x="411" y="13"/>
      <point x="310" y="-8"/>
      <point x="258" y="-8" type="qcurve" smooth="yes"/>
      <point x="142" y="-8"/>
      <point x="42" y="112"/>
      <point x="42" y="250" type="qcurve" smooth="yes"/>
      <point x="42" y="383"/>
      <point x="146" y="504"/>
      <point x="260" y="504" type="qcurve"/>
      <point x="366" y="504"/>
      <point x="458" y="409"/>
      <point x="458" y="298" type="qcurve"/>
      <point x="458" y="278"/>
      <point x="456" y="244"/>
      <point x="453" y="220" type="qcurve"/>
      <point x="125" y="220" type="line"/>
      <point x="126" y="138"/>
      <point x="191" y="68"/>
      <point x="271" y="68" type="qcurve" smooth="yes"/>
      <point x="314" y="68"/>
      <point x="408" y="84"/>
    </contour>
    <contour>
      <point x="383" y="309" type="qcurve"/>
      <point x="382" y="375"/>
      <point x="326" y="430"/>
      <point x="260" y="430" type="qcurve"/>
      <point x="186" y="430"/>
      <point x="125" y="367"/>
      <point x="125" y="288" type="qcurve"/>
      <point x="382" y="288" type="line"/>
      <point x="382" y="290"/>
      <point x="383" y="305"/>
    </contour>
    <contour>
      <point x="261.0" y="530" type="move" name="top"/>
    </contour>
    <contour>
      <point x="399.0" y="13" type="move" name="ogonekalt"/>
    </contour>
  </outline>
</glyph>
<glyph name="f" format="1">
  <advance width="351.0"/>
  <unicode hex="0066"/>
  <outline>
    <contour>
      <point x="95" y="424" type="line"/>
      <point x="21" y="424" type="line"/>
      <point x="21" y="494" type="line"/>
      <point x="95" y="494" type="line"/>
      <point x="95" y="506" type="line"/>
      <point x="95" y="592"/>
      <point x="179" y="675"/>
      <point x="266" y="675" type="qcurve"/>
      <point x="288" y="675"/>
      <point x="332" y="671"/>
      <point x="351" y="667" type="qcurve"/>
      <point x="351" y="597" type="line"/>
      <point x="339" y="600"/>
      <point x="298" y="603"/>
      <point x="278" y="603" type="qcurve"/>
      <point x="221" y="603"/>
      <point x="177" y="562"/>
      <point x="177" y="508" type="qcurve"/>
      <point x="177" y="494" type="line"/>
      <point x="336" y="494" type="line"/>
      <point x="336" y="424" type="line"/>
      <point x="177" y="424" type="line"/>
      <point x="177" y="0" type="line"/>
      <point x="95" y="0" type="line"/>
    </contour>
  </outline>
</glyph>
<glyph name="g" format="1">
  <advance width="538.0"/>
  <unicode hex="0067"/>
  <outline>
    <contour>
      <point x="267" y="-162" type="qcurve"/>
      <point x="217" y="-162"/>
      <point x="130" y="-149"/>
      <point x="102" y="-138" type="qcurve"/>
      <point x="102" y="-65" type="line"/>
      <point x="125" y="-74"/>
      <point x="214" y="-86"/>
      <point x="258" y="-86" type="qcurve"/>
      <point x="333" y="-86"/>
      <point x="391" y="-27"/>
      <point x="391" y="48" type="qcurve"/>
      <point x="391" y="79" type="line"/>
      <point x="354" y="57"/>
      <point x="270" y="34"/>
      <point x="227" y="34" type="qcurve"/>
      <point x="128" y="34"/>
      <point x="43" y="144"/>
      <point x="43" y="269" type="qcurve" smooth="yes"/>
      <point x="43" y="396"/>
      <point x="152" y="504"/>
      <point x="283" y="504" type="qcurve"/>
      <point x="330" y="504"/>
      <point x="438" y="493"/>
      <point x="473" y="485" type="qcurve"/>
      <point x="473" y="71" type="line" smooth="yes"/>
      <point x="473" y="-59"/>
      <point x="381" y="-162"/>
    </contour>
    <contour>
      <point x="283" y="430" type="qcurve"/>
      <point x="187" y="430"/>
      <point x="125" y="364"/>
      <point x="125" y="269" type="qcurve" smooth="yes"/>
      <point x="125" y="179"/>
      <point x="178" y="110"/>
      <point x="254" y="110" type="qcurve"/>
      <point x="287" y="110"/>
      <point x="358" y="129"/>
      <point x="391" y="146" type="qcurve"/>
      <point x="391" y="419" type="line"/>
      <point x="367" y="424"/>
      <point x="312" y="430"/>
    </contour>
    <contour>
      <point x="274" y="530" type="move" name="top"/>
    </contour>
  </outline>
</glyph>
<glyph name="h" format="1">
  <advance width="553.0"/>
  <unicode hex="0068"/>
  <outline>
    <contour>
      <point x="148" y="0" type="line"/>
      <point x="66" y="0" type="line"/>
      <point x="66" y="665" type="line"/>
      <point x="148" y="665" type="line"/>
      <point x="148" y="454" type="line"/>
      <point x="193" y="479"/>
      <point x="282" y="504"/>
      <point x="326" y="504" type="qcurve" smooth="yes"/>
      <point x="408" y="504"/>
      <point x="491" y="422"/>
      <point x="491" y="342" type="qcurve"/>
      <point x="491" y="0" type="line"/>
      <point x="409" y="0" type="line"/>
      <point x="409" y="332" type="line" smooth="yes"/>
      <point x="409" y="383"/>
      <point x="356" y="430"/>
      <point x="300" y="430" type="qcurve" smooth="yes"/>
      <point x="263" y="430"/>
      <point x="184" y="410"/>
      <point x="148" y="392" type="qcurve"/>
    </contour>
    <contour>
      <point x="107.0" y="681" type="move" name="top"/>
    </contour>
  </outline>
</glyph>
<glyph name="i" format="1">
  <advance width="214.0"/>
  <unicode hex="0069"/>
  <outline>
    <contour>
      <point x="151" y="580" type="line"/>
      <point x="63" y="580" type="line"/>
      <point x="63" y="665" type="line"/>
      <point x="151" y="665" type="line"/>
    </contour>
    <contour>
      <point x="148" y="0" type="line"/>
      <point x="66" y="0" type="line"/>
      <point x="66" y="494" type="line"/>
      <point x="148" y="494" type="line"/>
    </contour>
    <contour>
      <point x="148.0" y="0" type="move" name="ogonek"/>
    </contour>
  </outline>
</glyph>
<glyph name="k" format="1">
  <advance width="493.0"/>
  <unicode hex="006B"/>
  <outline>
    <contour>
      <point x="148" y="214" type="line"/>
      <point x="148" y="0" type="line"/>
      <point x="66" y="0" type="line"/>
      <point x="66" y="665" type="line"/>
      <point x="148" y="665" type="line"/>
      <point x="148" y="285" type="line"/>
      <point x="207" y="285" type="line"/>
      <point x="380" y="494" type="line"/>
      <point x="479" y="494" type="line"/>
      <point x="274" y="254" type="line"/>
      <point x="489" y="0" type="line"/>
      <point x="386" y="0" type="line"/>
      <point x="210" y="214" type="line"/>
    </contour>
    <contour>
      <point x="255.0" y="0.0" type="move" name="bottom"/>
    </contour>
  </outline>
</glyph>
<glyph name="l" format="1">
  <advance width="214.0"/>
  <unicode hex="006C"/>
  <outline>
    <contour>
      <point x="148" y="665" type="line"/>
      <point x="148" y="0" type="line"/>
      <point x="66" y="0" type="line"/>
      <point x="66" y="665" type="line"/>
    </contour>
    <contour>
      <point x="107.0" y="681" type="move" name="top"/>
    </contour>
    <contour>
      <point x="218.0" y="665" type="move" name="caronalt"/>
    </contour>
    <contour>
      <point x="107.0" y="0" type="move" name="bottom"/>
    </contour>
  </outline>
</glyph>
<glyph name="m" format="1">
  <advance width="802.0"/>
  <unicode hex="006D"/>
  <outline>
    <contour>
      <point x="148" y="0" type="line"/>
      <point x="66" y="0" type="line"/>
      <point x="66" y="494" type="line"/>
      <point x="141" y="494" type="line"/>
      <point x="145" y="456" type="line"/>
      <point x="148" y="456" type="line"/>
      <point x="192" y="481"/>
      <point x="264" y="504"/>
      <point x="300" y="504" type="qcurve" smooth="yes"/>
      <point x="342" y="504"/>
      <point x="402" y="478"/>
      <point x="419" y="452" type="qcurve"/>
      <point x="422" y="452" type="line"/>
      <point x="462" y="477"/>
      <point x="551" y="504"/>
      <point x="596" y="504" type="qcurve" smooth="yes"/>
      <point x="667" y="504"/>
      <point x="740" y="429"/>
      <point x="740" y="356" type="qcurve"/>
      <point x="740" y="0" type="line"/>
      <point x="658" y="0" type="line"/>
      <point x="658" y="346" type="line" smooth="yes"/>
      <point x="658" y="389"/>
      <point x="612" y="430"/>
      <point x="562" y="430" type="qcurve" smooth="yes"/>
      <point x="534" y="430"/>
      <point x="472" y="413"/>
      <point x="441" y="397" type="qcurve"/>
      <point x="443" y="387"/>
      <point x="444" y="367"/>
      <point x="444" y="356" type="qcurve"/>
      <point x="444" y="0" type="line"/>
      <point x="362" y="0" type="line"/>
      <point x="362" y="346" type="line" smooth="yes"/>
      <point x="362" y="389"/>
      <point x="316" y="430"/>
      <point x="266" y="430" type="qcurve" smooth="yes"/>
      <point x="241" y="430"/>
      <point x="185" y="413"/>
      <point x="148" y="393" type="qcurve"/>
    </contour>
  </outline>
</glyph>
<glyph name="n" format="1">
  <advance width="554.0"/>
  <unicode hex="006E"/>
  <outline>
    <contour>
      <point x="148" y="0" type="line"/>
      <point x="66" y="0" type="line"/>
      <point x="66" y="494" type="line"/>
      <point x="137" y="494" type="line"/>
      <point x="141" y="446" type="line"/>
      <point x="144" y="446" type="line"/>
      <point x="184" y="476"/>
      <point x="271" y="504"/>
      <point x="325" y="504" type="qcurve" smooth="yes"/>
      <point x="407" y="504"/>
      <point x="492" y="422"/>
      <point x="492" y="342" type="qcurve"/>
      <point x="492" y="0" type="line"/>
      <point x="410" y="0" type="line"/>
      <point x="410" y="332" type="line" smooth="yes"/>
      <point x="410" y="382"/>
      <point x="354" y="430"/>
      <point x="296" y="430" type="qcurve" smooth="yes"/>
      <point x="260" y="430"/>
      <point x="185" y="407"/>
      <point x="148" y="385" type="qcurve"/>
    </contour>
    <contour>
      <point x="279.0" y="530" type="move" name="top"/>
    </contour>
    <contour>
      <point x="-29.0" y="665" type="move" name="caronalt"/>
    </contour>
    <contour>
      <point x="278.0" y="0" type="move" name="bottom"/>
    </contour>
  </outline>
</glyph>
<glyph name="o" format="1">
  <advance width="543.0"/>
  <unicode hex="006F"/>
  <outline>
    <contour>
      <point x="500" y="248" type="qcurve" smooth="yes"/>
      <point x="500" y="108"/>
      <point x="397" y="-8"/>
      <point x="272" y="-8" type="qcurve" smooth="yes"/>
      <point x="143" y="-8"/>
      <point x="43" y="104"/>
      <point x="43" y="248" type="qcurve" smooth="yes"/>
      <point x="43" y="389"/>
      <point x="146" y="504"/>
      <point x="272" y="504" type="qcurve" smooth="yes"/>
      <point x="401" y="504"/>
      <point x="500" y="392"/>
    </contour>
    <contour>
      <point x="125" y="249" type="qcurve" smooth="yes"/>
      <point x="125" y="139"/>
      <point x="183" y="68"/>
      <point x="272" y="68" type="qcurve" smooth="yes"/>
      <point x="358" y="68"/>
      <point x="418" y="143"/>
      <point x="418" y="249" type="qcurve" smooth="yes"/>
      <point x="418" y="359"/>
      <point x="361" y="430"/>
      <point x="272" y="430" type="qcurve" smooth="yes"/>
      <point x="185" y="430"/>
      <point x="125" y="356"/>
    </contour>
    <contour>
      <point x="272.0" y="530" type="move" name="top"/>
    </contour>
  </outline>
</glyph>
<glyph name="p" format="1">
  <advance width="541.0"/>
  <unicode hex="0070"/>
  <outline>
    <contour>
      <point x="148" y="-152" type="line"/>
      <point x="66" y="-152" type="line"/>
      <point x="66" y="494" type="line"/>
      <point x="137" y="494" type="line"/>
      <point x="142" y="450" type="line"/>
      <point x="145" y="450" type="line"/>
      <point x="176" y="476"/>
      <point x="262" y="504"/>
      <point x="311" y="504" type="qcurve"/>
      <point x="412" y="504"/>
      <point x="499" y="384"/>
      <point x="499" y="248" type="qcurve" smooth="yes"/>
      <point x="499" y="112"/>
      <point x="393" y="-8"/>
      <point x="269" y="-8" type="qcurve"/>
      <point x="232" y="-8"/>
      <point x="171" y="2"/>
      <point x="148" y="12" type="qcurve"/>
    </contour>
    <contour>
      <point x="417" y="248" type="qcurve" smooth="yes"/>
      <point x="417" y="350"/>
      <point x="360" y="430"/>
      <point x="282" y="430" type="qcurve"/>
      <point x="245" y="430"/>
      <point x="178" y="409"/>
      <point x="148" y="389" type="qcurve"/>
      <point x="148" y="88" type="line"/>
      <point x="173" y="78"/>
      <point x="226" y="68"/>
      <point x="259" y="68" type="qcurve"/>
      <point x="352" y="68"/>
      <point x="417" y="145"/>
    </contour>
  </outline>
</glyph>
<glyph name="q" format="1">
  <advance width="541.0"/>
  <unicode hex="0071"/>
  <outline>
    <contour>
      <point x="476" y="485" type="qcurve"/>
      <point x="476" y="-152" type="line"/>
      <point x="394" y="-152" type="line"/>
      <point x="394" y="36" type="line"/>
      <point x="359" y="15"/>
      <point x="272" y="-8"/>
      <point x="227" y="-8" type="qcurve"/>
      <point x="127" y="-8"/>
      <point x="42" y="111"/>
      <point x="42" y="248" type="qcurve" smooth="yes"/>
      <point x="42" y="386"/>
      <point x="152" y="504"/>
      <point x="284" y="504" type="qcurve"/>
      <point x="334" y="504"/>
      <point x="442" y="493"/>
    </contour>
    <contour>
      <point x="284" y="430" type="qcurve"/>
      <point x="187" y="430"/>
      <point x="124" y="355"/>
      <point x="124" y="248" type="qcurve" smooth="yes"/>
      <point x="124" y="146"/>
      <point x="178" y="68"/>
      <point x="255" y="68" type="qcurve"/>
      <point x="290" y="68"/>
      <point x="363" y="86"/>
      <point x="394" y="102" type="qcurve"/>
      <point x="394" y="419" type="line"/>
      <point x="370" y="424"/>
      <point x="313" y="430"/>
    </contour>
  </outline>
</glyph>
<glyph name="r" format="1">
  <advance width="353.0"/>
  <unicode hex="0072"/>
  <outline>
    <contour>
      <point x="148" y="0" type="line"/>
      <point x="66" y="0" type="line"/>
      <point x="66" y="494" type="line"/>
      <point x="141" y="494" type="line"/>
      <point x="145" y="452" type="line"/>
      <point x="149" y="452" type="line"/>
      <point x="188" y="475"/>
      <point x="266" y="498"/>
      <point x="304" y="498" type="qcurve"/>
      <point x="320" y="498"/>
      <point x="331" y="498"/>
      <point x="334" y="497" type="qcurve"/>
      <point x="334" y="418" type="line"/>
      <point x="327" y="420"/>
      <point x="306" y="421"/>
      <point x="284" y="421" type="qcurve"/>
      <point x="248" y="421"/>
      <point x="179" y="404"/>
      <point x="148" y="387" type="qcurve"/>
    </contour>
    <contour>
      <point x="200.0" y="525" type="move" name="top"/>
    </contour>
    <contour>
      <point x="106.0" y="0" type="move" name="bottom"/>
    </contour>
  </outline>
</glyph>
<glyph name="s" format="1">
  <advance width="439.0"/>
  <unicode hex="0073"/>
  <outline>
    <contour>
      <point x="236" y="430" type="qcurve" smooth="yes"/>
      <point x="172" y="430"/>
      <point x="123" y="400"/>
      <point x="123" y="354" type="qcurve" smooth="yes"/>
      <point x="123" y="330"/>
      <point x="146" y="305"/>
      <point x="171" y="301" type="qcurve"/>
      <point x="298" y="282" type="line" smooth="yes"/>
      <point x="358" y="273"/>
      <point x="406" y="216"/>
      <point x="406" y="155" type="qcurve" smooth="yes"/>
      <point x="406" y="69"/>
      <point x="324" y="-8"/>
      <point x="229" y="-8" type="qcurve" smooth="yes"/>
      <point x="172" y="-8"/>
      <point x="74" y="4"/>
      <point x="42" y="14" type="qcurve"/>
      <point x="42" y="91" type="line"/>
      <point x="74" y="81"/>
      <point x="167" y="68"/>
      <point x="216" y="68" type="qcurve" smooth="yes"/>
      <point x="278" y="68"/>
      <point x="324" y="104"/>
      <point x="324" y="150" type="qcurve" smooth="yes"/>
      <point x="324" y="179"/>
      <point x="298" y="206"/>
      <point x="264" y="211" type="qcurve"/>
      <point x="137" y="230" type="line" smooth="yes"/>
      <point x="89" y="237"/>
      <point x="42" y="297"/>
      <point x="41" y="354" type="qcurve"/>
      <point x="41" y="432"/>
      <point x="134" y="504"/>
      <point x="231" y="504" type="qcurve" smooth="yes"/>
      <point x="271" y="504"/>
      <point x="336" y="500"/>
      <point x="372" y="494" type="qcurve"/>
      <point x="372" y="421" type="line"/>
      <point x="346" y="425"/>
      <point x="276" y="430"/>
    </contour>
    <contour>
      <point x="224.0" y="530" type="move" name="top"/>
    </contour>
    <contour>
      <point x="214.0" y="0" type="move" name="bottom"/>
    </contour>
  </outline>
</glyph>
<glyph name="t" format="1">
  <advance width="371.0"/>
  <unicode hex="0074"/>
  <outline>
    <contour>
      <point x="356" y="77" type="qcurve"/>
      <point x="356" y="8" type="line"/>
      <point x="340" y="1"/>
      <point x="285" y="-8"/>
      <point x="260" y="-8" type="qcurve" smooth="yes"/>
      <point x="170" y="-8"/>
      <point x="93" y="72"/>
      <point x="93" y="170" type="qcurve"/>
      <point x="93" y="424" type="line"/>
      <point x="19" y="424" type="line"/>
      <point x="19" y="494" type="line"/>
      <point x="94" y="494" type="line"/>
      <point x="107" y="614" type="line"/>
      <point x="175" y="614" type="line"/>
      <point x="175" y="494" type="line"/>
      <point x="351" y="494" type="line"/>
      <point x="351" y="424" type="line"/>
      <point x="175" y="424" type="line"/>
      <point x="175" y="173" type="line" smooth="yes"/>
      <point x="175" y="112"/>
      <point x="220" y="68"/>
      <point x="277" y="68" type="qcurve" smooth="yes"/>
      <point x="295" y="68"/>
      <point x="342" y="74"/>
    </contour>
    <contour>
      <point x="245.0" y="720" type="move" name="caronalt"/>
    </contour>
    <contour>
      <point x="233.0" y="0" type="move" name="bottom"/>
    </contour>
  </outline>
</glyph>
<glyph name="u" format="1">
  <advance width="538.0"/>
  <unicode hex="0075"/>
  <outline>
    <contour>
      <point x="226" y="-8" type="qcurve" smooth="yes"/>
      <point x="144" y="-8"/>
      <point x="62" y="74"/>
      <point x="62" y="156" type="qcurve"/>
      <point x="62" y="494" type="line"/>
      <point x="144" y="494" type="line"/>
      <point x="144" y="166" type="line" smooth="yes"/>
      <point x="144" y="115"/>
      <point x="196" y="69"/>
      <point x="252" y="69" type="qcurve" smooth="yes"/>
      <point x="286" y="69"/>
      <point x="355" y="86"/>
      <point x="390" y="104" type="qcurve"/>
      <point x="390" y="494" type="line"/>
      <point x="472" y="494" type="line"/>
      <point x="472" y="0" type="line"/>
      <point x="397" y="0" type="line"/>
      <point x="393" y="41" type="line"/>
      <point x="391" y="41" type="line"/>
      <point x="339" y="14"/>
      <point x="263" y="-8"/>
    </contour>
    <contour>
      <point x="269.0" y="520" type="move" name="top"/>
    </contour>
    <contour>
      <point x="472.0" y="0" type="move" name="ogonek"/>
    </contour>
  </outline>
</glyph>
<glyph name="v" format="1">
  <advance width="494.0"/>
  <unicode hex="0076"/>
  <outline>
    <contour>
      <point x="394" y="494" type="line"/>
      <point x="484" y="494" type="line"/>
      <point x="294" y="0" type="line"/>
      <point x="200" y="0" type="line"/>
      <point x="10" y="494" type="line"/>
      <point x="101" y="494" type="line"/>
      <point x="248" y="75" type="line"/>
    </contour>
  </outline>
</glyph>
<glyph name="w" format="1">
  <advance width="709.0"/>
  <unicode hex="0077"/>
  <outline>
    <contour>
      <point x="603" y="494" type="line"/>
      <point x="692" y="494" type="line"/>
      <point x="555" y="0" type="line"/>
      <point x="459" y="0" type="line"/>
      <point x="351" y="385" type="line"/>
      <point x="250" y="0" type="line"/>
      <point x="154" y="0" type="line"/>
      <point x="17" y="494" type="line"/>
      <point x="107" y="494" type="line"/>
      <point x="203" y="77" type="line"/>
      <point x="310" y="494" type="line"/>
      <point x="392" y="494" type="line"/>
      <point x="506" y="77" type="line"/>
    </contour>
    <contour>
      <point x="350.0" y="520" type="move" name="top"/>
    </contour>
  </outline>
</glyph>
<glyph name="x" format="1">
  <advance width="446.0"/>
  <unicode hex="0078"/>
  <outline>
    <contour>
      <point x="271" y="257" type="line"/>
      <point x="436" y="0" type="line"/>
      <point x="345" y="0" type="line"/>
      <point x="220" y="200" type="line"/>
      <point x="96" y="0" type="line"/>
      <point x="10" y="0" type="line"/>
      <point x="175" y="256" type="line"/>
      <point x="17" y="494" type="line"/>
      <point x="114" y="494" type="line"/>
      <point x="225" y="311" type="line"/>
      <point x="342" y="494" type="line"/>
      <point x="429" y="494" type="line"/>
    </contour>
    <contour>
      <point x="227.0" y="520" type="move" name="top"/>
    </contour>
  </outline>
</glyph>
<glyph name="y" format="1">
  <advance width="495.0"/>
  <unicode hex="0079"/>
  <outline>
    <contour>
      <point x="111" y="-88" type="qcurve"/>
      <point x="149" y="-88"/>
      <point x="188" y="-55"/>
      <point x="210" y="7" type="qcurve"/>
      <point x="8" y="494" type="line"/>
      <point x="100" y="494" type="line"/>
      <point x="252" y="89" type="line"/>
      <point x="396" y="494" type="line"/>
      <point x="484" y="494" type="line"/>
      <point x="282" y="-33" type="line" smooth="yes"/>
      <point x="255" y="-105"/>
      <point x="183" y="-162"/>
      <point x="126" y="-162" type="qcurve"/>
      <point x="109" y="-162"/>
      <point x="72" y="-158"/>
      <point x="54" y="-155" type="qcurve"/>
      <point x="54" y="-83" type="line"/>
      <point x="65" y="-86"/>
      <point x="92" y="-88"/>
    </contour>
    <contour>
      <point x="253.0" y="520" type="move" name="top"/>
    </contour>
  </outline>
</glyph>
<glyph name="z" format="1">
  <advance width="426.0"/>
  <unicode hex="007A"/>
  <outline>
    <contour>
      <point x="400" y="72" type="line"/>
      <point x="400" y="0" type="line"/>
      <point x="29" y="0" type="line"/>
      <point x="29" y="72" type="line"/>
      <point x="290" y="424" type="line"/>
      <point x="47" y="424" type="line"/>
      <point x="47" y="494" type="line"/>
      <point x="383" y="494" type="line"/>
      <point x="383" y="424" type="line"/>
      <point x="122" y="72" type="line"/>
    </contour>
    <contour>
      <point x="216.0" y="520" type="move" name="top"/>
    </contour>
  </outline>
</glyph>
<glyph name="braceleft" format="1">
  <advance width="293.0"/>
  <unicode hex="007B"/>
  <outline>
    <contour>
      <point x="94" y="318" type="qcurve"/>
      <point x="94" y="314" type="line"/>
      <point x="132" y="307"/>
      <point x="178" y="223"/>
      <point x="178" y="157" type="qcurve"/>
      <point x="178" y="50" type="line"/>
      <point x="178" y="6"/>
      <point x="221" y="-31"/>
      <point x="270" y="-31" type="qcurve"/>
      <point x="270" y="-92" type="line"/>
      <point x="192" y="-92"/>
      <point x="110" y="-20"/>
      <point x="110" y="49" type="qcurve"/>
      <point x="110" y="157" type="line" smooth="yes"/>
      <point x="110" y="217"/>
      <point x="61" y="287"/>
      <point x="25" y="287" type="qcurve"/>
      <point x="12" y="287" type="line"/>
      <point x="12" y="343" type="line"/>
      <point x="25" y="343" type="line"/>
      <point x="61" y="343"/>
      <point x="110" y="413"/>
      <point x="110" y="473" type="qcurve"/>
      <point x="110" y="577" type="line"/>
      <point x="110" y="646"/>
      <point x="192" y="718"/>
      <point x="270" y="718" type="qcurve"/>
      <point x="270" y="657" type="line"/>
      <point x="221" y="657"/>
      <point x="178" y="620"/>
      <point x="178" y="576" type="qcurve"/>
      <point x="178" y="473" type="line" smooth="yes"/>
      <point x="178" y="407"/>
      <point x="133" y="325"/>
    </contour>
  </outline>
</glyph>
<glyph name="braceright" format="1">
  <advance width="293.0"/>
  <unicode hex="007D"/>
  <outline>
    <contour>
      <point x="199" y="314" type="qcurve"/>
      <point x="199" y="318" type="line"/>
      <point x="160" y="325"/>
      <point x="115" y="407"/>
      <point x="115" y="473" type="qcurve"/>
      <point x="115" y="576" type="line"/>
      <point x="115" y="620"/>
      <point x="72" y="657"/>
      <point x="23" y="657" type="qcurve"/>
      <point x="23" y="718" type="line"/>
      <point x="101" y="718"/>
      <point x="183" y="646"/>
      <point x="183" y="577" type="qcurve"/>
      <point x="183" y="473" type="line" smooth="yes"/>
      <point x="183" y="413"/>
      <point x="232" y="343"/>
      <point x="268" y="343" type="qcurve"/>
      <point x="281" y="343" type="line"/>
      <point x="281" y="287" type="line"/>
      <point x="268" y="287" type="line"/>
      <point x="232" y="287"/>
      <point x="183" y="217"/>
      <point x="183" y="157" type="qcurve"/>
      <point x="183" y="49" type="line"/>
      <point x="183" y="-20"/>
      <point x="101" y="-92"/>
      <point x="23" y="-92" type="qcurve"/>
      <point x="23" y="-31" type="line"/>
      <point x="72" y="-31"/>
      <point x="115" y="6"/>
      <point x="115" y="50" type="qcurve"/>
      <point x="115" y="157" type="line"/>
      <point x="115" y="223"/>
      <point x="161" y="307"/>
    </contour>
  </outline>
</glyph>
<glyph name="asciitilde" format="1">
  <advance width="634.0"/>
  <unicode hex="007E"/>
  <outline>
    <contour>
      <point x="518" y="454" type="qcurve"/>
      <point x="593" y="454" type="line"/>
      <point x="593" y="346"/>
      <point x="518" y="224"/>
      <point x="448" y="224" type="qcurve"/>
      <point x="414" y="224"/>
      <point x="348" y="260"/>
      <point x="293" y="316" type="qcurve" smooth="yes"/>
      <point x="251" y="357"/>
      <point x="211" y="382"/>
      <point x="193" y="382" type="qcurve"/>
      <point x="155" y="382"/>
      <point x="116" y="305"/>
      <point x="116" y="232" type="qcurve"/>
      <point x="41" y="232" type="line"/>
      <point x="41" y="339"/>
      <point x="119" y="462"/>
      <point x="192" y="462" type="qcurve"/>
      <point x="226" y="462"/>
      <point x="293" y="426"/>
      <point x="348" y="371" type="qcurve" smooth="yes"/>
      <point x="389" y="329"/>
      <point x="429" y="305"/>
      <point x="447" y="305" type="qcurve"/>
      <point x="481" y="305"/>
      <point x="518" y="385"/>
    </contour>
  </outline>
</glyph>
<glyph name="exclamdown" format="1">
  <advance width="213.0"/>
  <unicode hex="00A1"/>
  <outline>
    <contour>
      <point x="64" y="494" type="line"/>
      <point x="150" y="494" type="line"/>
      <point x="150" y="413" type="line"/>
      <point x="64" y="413" type="line"/>
    </contour>
    <contour>
      <point x="142" y="322" type="line"/>
      <point x="153" y="-133" type="line"/>
      <point x="60" y="-133" type="line"/>
      <point x="71" y="322" type="line"/>
    </contour>
  </outline>
</glyph>
<glyph name="cent" format="1">
  <advance width="443.0"/>
  <unicode hex="00A2"/>
  <outline>
    <contour>
      <point x="294" y="70" type="qcurve"/>
      <point x="294" y="-22" type="line"/>
      <point x="223" y="-22" type="line"/>
      <point x="223" y="66" type="line"/>
      <point x="123" y="68"/>
      <point x="42" y="183"/>
      <point x="42" y="322" type="qcurve" smooth="yes"/>
      <point x="42" y="445"/>
      <point x="126" y="563"/>
      <point x="223" y="575" type="qcurve"/>
      <point x="223" y="663" type="line"/>
      <point x="294" y="663" type="line"/>
      <point x="294" y="578" type="line"/>
      <point x="323" y="577"/>
      <point x="369" y="574"/>
      <point x="397" y="570" type="qcurve"/>
      <point x="397" y="497" type="line"/>
      <point x="360" y="502"/>
      <point x="313" y="504"/>
      <point x="284" y="504" type="qcurve"/>
      <point x="190" y="504"/>
      <point x="124" y="427"/>
      <point x="124" y="322" type="qcurve" smooth="yes"/>
      <point x="124" y="217"/>
      <point x="176" y="142"/>
      <point x="250" y="142" type="qcurve"/>
      <point x="291" y="142"/>
      <point x="379" y="159"/>
      <point x="410" y="172" type="qcurve"/>
      <point x="410" y="103" type="line"/>
      <point x="394" y="93"/>
      <point x="331" y="75"/>
    </contour>
  </outline>
</glyph>
<glyph name="sterling" format="1">
  <advance width="493.0"/>
  <unicode hex="00A3"/>
  <outline>
    <contour>
      <point x="35" y="266" type="line"/>
      <point x="35" y="338" type="line"/>
      <point x="113" y="338" type="line"/>
      <point x="113" y="454" type="line" smooth="yes"/>
      <point x="113" y="545"/>
      <point x="208" y="637"/>
      <point x="302" y="637" type="qcurve" smooth="yes"/>
      <point x="335" y="637"/>
      <point x="396" y="630"/>
      <point x="445" y="619" type="qcurve"/>
      <point x="445" y="545" type="line"/>
      <point x="412" y="553"/>
      <point x="347" y="560"/>
      <point x="314" y="560" type="qcurve" smooth="yes"/>
      <point x="253" y="560"/>
      <point x="198" y="504"/>
      <point x="198" y="443" type="qcurve"/>
      <point x="198" y="338" type="line"/>
      <point x="411" y="338" type="line"/>
      <point x="411" y="266" type="line"/>
      <point x="198" y="266" type="line"/>
      <point x="198" y="226" type="line"/>
      <point x="198" y="171"/>
      <point x="161" y="102"/>
      <point x="122" y="83" type="qcurve"/>
      <point x="122" y="80" type="line"/>
      <point x="461" y="80" type="line"/>
      <point x="461" y="0" type="line"/>
      <point x="35" y="0" type="line"/>
      <point x="35" y="81" type="line"/>
      <point x="74" y="102"/>
      <point x="113" y="176"/>
      <point x="113" y="226" type="qcurve"/>
      <point x="113" y="266" type="line"/>
    </contour>
  </outline>
</glyph>
<glyph name="currency" format="1">
  <advance width="639.0"/>
  <unicode hex="00A4"/>
  <outline>
    <contour>
      <point x="95" y="39" type="line"/>
      <point x="43" y="91" type="line"/>
      <point x="109" y="157" type="line"/>
      <point x="84" y="190"/>
      <point x="58" y="272"/>
      <point x="58" y="316" type="qcurve" smooth="yes"/>
      <point x="58" y="360"/>
      <point x="84" y="440"/>
      <point x="109" y="474" type="qcurve"/>
      <point x="43" y="539" type="line"/>
      <point x="95" y="592" type="line"/>
      <point x="161" y="526" type="line"/>
      <point x="193" y="550"/>
      <point x="273" y="575"/>
      <point x="317" y="575" type="qcurve" smooth="yes"/>
      <point x="362" y="575"/>
      <point x="442" y="550"/>
      <point x="476" y="525" type="qcurve"/>
      <point x="542" y="592" type="line"/>
      <point x="594" y="540" type="line"/>
      <point x="528" y="475" type="line"/>
      <point x="553" y="441"/>
      <point x="580" y="360"/>
      <point x="580" y="315" type="qcurve" smooth="yes"/>
      <point x="580" y="272"/>
      <point x="554" y="192"/>
      <point x="529" y="158" type="qcurve"/>
      <point x="595" y="92" type="line"/>
      <point x="543" y="40" type="line"/>
      <point x="477" y="106" type="line"/>
      <point x="444" y="82"/>
      <point x="363" y="56"/>
      <point x="319" y="56" type="qcurve" smooth="yes"/>
      <point x="275" y="56"/>
      <point x="195" y="81"/>
      <point x="162" y="106" type="qcurve"/>
    </contour>
    <contour>
      <point x="318" y="503" type="qcurve" smooth="yes"/>
      <point x="238" y="503"/>
      <point x="134" y="398"/>
      <point x="134" y="317" type="qcurve" smooth="yes"/>
      <point x="134" y="235"/>
      <point x="239" y="130"/>
      <point x="319" y="131" type="qcurve" smooth="yes"/>
      <point x="400" y="130"/>
      <point x="504" y="235"/>
      <point x="504" y="317" type="qcurve" smooth="yes"/>
      <point x="504" y="398"/>
      <point x="399" y="502"/>
    </contour>
  </outline>
</glyph>
<glyph name="yen" format="1">
  <advance width="545.0"/>
  <unicode hex="00A5"/>
  <outline>
    <contour>
      <point x="61" y="107" type="line"/>
      <point x="61" y="170" type="line"/>
      <point x="232" y="170" type="line"/>
      <point x="232" y="230" type="line"/>
      <point x="61" y="230" type="line"/>
      <point x="61" y="293" type="line"/>
      <point x="205" y="293" type="line"/>
      <point x="18" y="627" type="line"/>
      <point x="115" y="627" type="line"/>
      <point x="275" y="319" type="line"/>
      <point x="435" y="627" type="line"/>
      <point x="524" y="627" type="line"/>
      <point x="343" y="293" type="line"/>
      <point x="488" y="293" type="line"/>
      <point x="488" y="230" type="line"/>
      <point x="316" y="230" type="line"/>
      <point x="316" y="170" type="line"/>
      <point x="488" y="170" type="line"/>
      <point x="488" y="107" type="line"/>
      <point x="316" y="107" type="line"/>
      <point x="316" y="0" type="line"/>
      <point x="232" y="0" type="line"/>
      <point x="232" y="107" type="line"/>
    </contour>
  </outline>
</glyph>
<glyph name="section" format="1">
  <advance width="467.0"/>
  <unicode hex="00A7"/>
  <outline>
    <contour>
      <point x="246" y="574" type="qcurve"/>
      <point x="191" y="574"/>
      <point x="141" y="549"/>
      <point x="141" y="521" type="qcurve"/>
      <point x="141" y="503"/>
      <point x="167" y="478"/>
      <point x="202" y="465" type="qcurve"/>
      <point x="360" y="404" type="line" smooth="yes"/>
      <point x="402" y="388"/>
      <point x="439" y="340"/>
      <point x="439" y="303" type="qcurve"/>
      <point x="439" y="268"/>
      <point x="404" y="204"/>
      <point x="373" y="182" type="qcurve"/>
      <point x="389" y="168"/>
      <point x="403" y="132"/>
      <point x="403" y="107" type="qcurve"/>
      <point x="403" y="50"/>
      <point x="317" y="-10"/>
      <point x="234" y="-10" type="qcurve"/>
      <point x="188" y="-10"/>
      <point x="110" y="0"/>
      <point x="75" y="10" type="qcurve"/>
      <point x="75" y="74" type="line"/>
      <point x="110" y="63"/>
      <point x="182" y="52"/>
      <point x="219" y="53" type="qcurve"/>
      <point x="276" y="53"/>
      <point x="326" y="78"/>
      <point x="326" y="106" type="qcurve"/>
      <point x="326" y="124"/>
      <point x="300" y="149"/>
      <point x="264" y="162" type="qcurve"/>
      <point x="115" y="218" type="line" smooth="yes"/>
      <point x="69" y="235"/>
      <point x="28" y="285"/>
      <point x="28" y="324" type="qcurve"/>
      <point x="28" y="359"/>
      <point x="62" y="423"/>
      <point x="94" y="446" type="qcurve"/>
      <point x="79" y="459"/>
      <point x="64" y="495"/>
      <point x="64" y="520" type="qcurve"/>
      <point x="64" y="576"/>
      <point x="151" y="637"/>
      <point x="232" y="637" type="qcurve"/>
      <point x="280" y="637"/>
      <point x="358" y="628"/>
      <point x="391" y="618" type="qcurve"/>
      <point x="391" y="554" type="line"/>
      <point x="358" y="564"/>
      <point x="284" y="575"/>
    </contour>
    <contour>
      <point x="151" y="276" type="qcurve"/>
      <point x="318" y="212" type="line"/>
      <point x="321" y="211" type="line"/>
      <point x="343" y="227"/>
      <point x="368" y="268"/>
      <point x="368" y="288" type="qcurve"/>
      <point x="368" y="313"/>
      <point x="347" y="340"/>
      <point x="315" y="352" type="qcurve"/>
      <point x="148" y="416" type="line" smooth="yes"/>
      <point x="148" y="416"/>
      <point x="147" y="417"/>
      <point x="146" y="417" type="qcurve"/>
      <point x="124" y="399"/>
      <point x="99" y="359"/>
      <point x="99" y="339" type="qcurve"/>
      <point x="99" y="314"/>
      <point x="120" y="287"/>
    </contour>
  </outline>
</glyph>
<glyph name="dieresis" format="1">
  <advance width="360.0"/>
  <unicode hex="00A8"/>
  <outline>
    <contour>
      <point x="310" y="642" type="line"/>
      <point x="310" y="564" type="line"/>
      <point x="228" y="564" type="line"/>
      <point x="228" y="642" type="line"/>
    </contour>
    <contour>
      <point x="133" y="642" type="line"/>
      <point x="133" y="564" type="line"/>
      <point x="50" y="564" type="line"/>
      <point x="50" y="642" type="line"/>
    </contour>
    <contour>
      <point x="180.0" y="530.0" type="move" name="_top"/>
    </contour>
  </outline>
</glyph>
<glyph name="copyright" format="1">
  <advance width="702.0"/>
  <unicode hex="00A9"/>
  <outline>
    <contour>
      <point x="660" y="314" type="qcurve"/>
      <point x="660" y="156"/>
      <point x="503" y="-10"/>
      <point x="352" y="-10" type="qcurve"/>
      <point x="198" y="-10"/>
      <point x="42" y="153"/>
      <point x="42" y="314" type="qcurve"/>
      <point x="42" y="473"/>
      <point x="200" y="637"/>
      <point x="352" y="637" type="qcurve"/>
      <point x="505" y="637"/>
      <point x="660" y="475"/>
    </contour>
    <contour>
      <point x="600" y="314" type="qcurve"/>
      <point x="600" y="448"/>
      <point x="478" y="580"/>
      <point x="353" y="580" type="qcurve"/>
      <point x="227" y="580"/>
      <point x="103" y="448"/>
      <point x="103" y="314" type="qcurve"/>
      <point x="103" y="181"/>
      <point x="226" y="51"/>
      <point x="353" y="51" type="qcurve"/>
      <point x="478" y="51"/>
      <point x="600" y="181"/>
    </contour>
    <contour>
      <point x="372" y="201" type="qcurve"/>
      <point x="394" y="201"/>
      <point x="443" y="211"/>
      <point x="466" y="221" type="qcurve"/>
      <point x="466" y="158" type="line"/>
      <point x="445" y="148"/>
      <point x="390" y="137"/>
      <point x="360" y="137" type="qcurve"/>
      <point x="267" y="137"/>
      <point x="187" y="221"/>
      <point x="187" y="316" type="qcurve" smooth="yes"/>
      <point x="187" y="407"/>
      <point x="276" y="494"/>
      <point x="369" y="494" type="qcurve"/>
      <point x="391" y="494"/>
      <point x="431" y="490"/>
      <point x="457" y="484" type="qcurve"/>
      <point x="457" y="423" type="line"/>
      <point x="435" y="427"/>
      <point x="397" y="431"/>
      <point x="370" y="431" type="qcurve"/>
      <point x="313" y="431"/>
      <point x="265" y="377"/>
      <point x="265" y="316" type="qcurve" smooth="yes"/>
      <point x="265" y="253"/>
      <point x="313" y="201"/>
    </contour>
  </outline>
</glyph>
<glyph name="ordfeminine" format="1">
  <advance width="348.0"/>
  <unicode hex="00AA"/>
  <outline>
    <contour>
      <point x="289" y="355" type="line"/>
      <point x="237" y="355" type="line"/>
      <point x="235" y="381" type="line"/>
      <point x="233" y="381" type="line"/>
      <point x="210" y="366"/>
      <point x="161" y="350"/>
      <point x="138" y="350" type="qcurve"/>
      <point x="94" y="350"/>
      <point x="50" y="393"/>
      <point x="50" y="436" type="qcurve"/>
      <point x="50" y="480"/>
      <point x="101" y="519"/>
      <point x="161" y="519" type="qcurve"/>
      <point x="180" y="519"/>
      <point x="218" y="516"/>
      <point x="233" y="513" type="qcurve"/>
      <point x="233" y="535" type="line" smooth="yes"/>
      <point x="233" y="562"/>
      <point x="201" y="586"/>
      <point x="166" y="586" type="qcurve" smooth="yes"/>
      <point x="137" y="586"/>
      <point x="96" y="582"/>
      <point x="78" y="578" type="qcurve"/>
      <point x="78" y="627" type="line"/>
      <point x="101" y="632"/>
      <point x="149" y="637"/>
      <point x="182" y="637" type="qcurve"/>
      <point x="236" y="637"/>
      <point x="289" y="590"/>
      <point x="289" y="543" type="qcurve"/>
    </contour>
    <contour>
      <point x="167" y="478" type="qcurve"/>
      <point x="132" y="478"/>
      <point x="104" y="460"/>
      <point x="104" y="439" type="qcurve"/>
      <point x="104" y="418"/>
      <point x="128" y="398"/>
      <point x="154" y="398" type="qcurve"/>
      <point x="175" y="398"/>
      <point x="219" y="411"/>
      <point x="233" y="420" type="qcurve"/>
      <point x="233" y="473" type="line"/>
      <point x="220" y="476"/>
      <point x="187" y="478"/>
    </contour>
    <contour>
      <point x="292" y="255" type="line"/>
      <point x="51" y="255" type="line"/>
      <point x="51" y="305" type="line"/>
      <point x="292" y="305" type="line"/>
    </contour>
  </outline>
</glyph>
<glyph name="guillemotleft" format="1">
  <advance width="482.0"/>
  <unicode hex="00AB"/>
  <outline>
    <contour>
      <point x="249" y="64" type="line"/>
      <point x="171" y="64" type="line"/>
      <point x="22" y="281" type="line"/>
      <point x="171" y="494" type="line"/>
      <point x="249" y="494" type="line"/>
      <point x="101" y="282" type="line"/>
    </contour>
    <contour>
      <point x="455" y="64" type="line"/>
      <point x="377" y="64" type="line"/>
      <point x="228" y="281" type="line"/>
      <point x="377" y="494" type="line"/>
      <point x="455" y="494" type="line"/>
      <point x="308" y="282" type="line"/>
    </contour>
  </outline>
</glyph>
<glyph name="registered" format="1">
  <advance width="435.0"/>
  <unicode hex="00AE"/>
  <outline>
    <contour>
      <point x="397" y="454" type="qcurve"/>
      <point x="397" y="363"/>
      <point x="306" y="270"/>
      <point x="218" y="270" type="qcurve"/>
      <point x="128" y="270"/>
      <point x="38" y="362"/>
      <point x="38" y="454" type="qcurve"/>
      <point x="38" y="544"/>
      <point x="130" y="637"/>
      <point x="219" y="637" type="qcurve"/>
      <point x="308" y="637"/>
      <point x="397" y="546"/>
    </contour>
    <contour>
      <point x="351" y="454" type="qcurve"/>
      <point x="351" y="526"/>
      <point x="286" y="595"/>
      <point x="219" y="595" type="qcurve"/>
      <point x="151" y="595"/>
      <point x="86" y="526"/>
      <point x="86" y="454" type="qcurve"/>
      <point x="86" y="383"/>
      <point x="151" y="315"/>
      <point x="219" y="315" type="qcurve"/>
      <point x="286" y="315"/>
      <point x="351" y="383"/>
    </contour>
    <contour>
      <point x="188" y="422" type="line"/>
      <point x="188" y="354" type="line"/>
      <point x="145" y="354" type="line"/>
      <point x="145" y="556" type="line"/>
      <point x="217" y="556" type="line" smooth="yes"/>
      <point x="264" y="556"/>
      <point x="301" y="523"/>
      <point x="301" y="489" type="qcurve"/>
      <point x="301" y="464"/>
      <point x="279" y="433"/>
      <point x="257" y="427" type="qcurve"/>
      <point x="306" y="354" type="line"/>
      <point x="252" y="354" type="line"/>
      <point x="211" y="422" type="line"/>
    </contour>
    <contour>
      <point x="257" y="489" type="qcurve"/>
      <point x="257" y="503"/>
      <point x="239" y="517"/>
      <point x="217" y="517" type="qcurve"/>
      <point x="188" y="517" type="line"/>
      <point x="188" y="458" type="line"/>
      <point x="217" y="458" type="line" smooth="yes"/>
      <point x="239" y="458"/>
      <point x="257" y="473"/>
    </contour>
  </outline>
</glyph>
<glyph name="degree" format="1">
  <advance width="338.0"/>
  <unicode hex="00B0"/>
  <outline>
    <contour>
      <point x="303" y="500" type="qcurve" smooth="yes"/>
      <point x="303" y="439"/>
      <point x="230" y="366"/>
      <point x="169" y="366" type="qcurve" smooth="yes"/>
      <point x="108" y="366"/>
      <point x="35" y="439"/>
      <point x="35" y="500" type="qcurve" smooth="yes"/>
      <point x="35" y="560"/>
      <point x="109" y="634"/>
      <point x="169" y="634" type="qcurve" smooth="yes"/>
      <point x="229" y="634"/>
      <point x="303" y="560"/>
    </contour>
    <contour>
      <point x="90" y="500" type="qcurve" smooth="yes"/>
      <point x="90" y="463"/>
      <point x="133" y="419"/>
      <point x="169" y="419" type="qcurve" smooth="yes"/>
      <point x="205" y="419"/>
      <point x="248" y="463"/>
      <point x="248" y="500" type="qcurve" smooth="yes"/>
      <point x="248" y="537"/>
      <point x="205" y="581"/>
      <point x="169" y="581" type="qcurve" smooth="yes"/>
      <point x="133" y="581"/>
      <point x="90" y="537"/>
    </contour>
  </outline>
</glyph>
<glyph name="plusminus" format="1">
  <advance width="500.0"/>
  <unicode hex="00B1"/>
  <outline>
    <contour>
      <point x="463" y="450" type="line"/>
      <point x="463" y="372" type="line"/>
      <point x="290" y="372" type="line"/>
      <point x="290" y="219" type="line"/>
      <point x="210" y="219" type="line"/>
      <point x="210" y="372" type="line"/>
      <point x="37" y="372" type="line"/>
      <point x="37" y="450" type="line"/>
      <point x="210" y="450" type="line"/>
      <point x="210" y="601" type="line"/>
      <point x="290" y="601" type="line"/>
      <point x="290" y="450" type="line"/>
    </contour>
    <contour>
      <point x="463" y="139" type="line"/>
      <point x="463" y="61" type="line"/>
      <point x="37" y="61" type="line"/>
      <point x="37" y="139" type="line"/>
    </contour>
  </outline>
</glyph>
<glyph name="uni00B2" format="1">
  <advance width="295.0"/>
  <unicode hex="00B2"/>
  <outline>
    <contour>
      <point x="264" y="330" type="line"/>
      <point x="264" y="270" type="line"/>
      <point x="25" y="270" type="line"/>
      <point x="25" y="330" type="line"/>
      <point x="162" y="467" type="line" smooth="yes"/>
      <point x="180" y="486"/>
      <point x="196" y="518"/>
      <point x="196" y="534" type="qcurve"/>
      <point x="196" y="554"/>
      <point x="170" y="575"/>
      <point x="146" y="575" type="qcurve"/>
      <point x="123" y="575"/>
      <point x="56" y="567"/>
      <point x="44" y="564" type="qcurve"/>
      <point x="44" y="620" type="line"/>
      <point x="67" y="626"/>
      <point x="126" y="633"/>
      <point x="156" y="633" type="qcurve"/>
      <point x="206" y="633"/>
      <point x="260" y="584"/>
      <point x="260" y="540" type="qcurve"/>
      <point x="260" y="512"/>
      <point x="239" y="467"/>
      <point x="214" y="442" type="qcurve"/>
      <point x="102" y="330" type="line"/>
    </contour>
  </outline>
</glyph>
<glyph name="uni00B3" format="1">
  <advance width="293.0"/>
  <unicode hex="00B3"/>
  <outline>
    <contour>
      <point x="246" y="542" type="qcurve"/>
      <point x="246" y="509"/>
      <point x="213" y="466"/>
      <point x="184" y="459" type="qcurve"/>
      <point x="184" y="457" type="line"/>
      <point x="222" y="455"/>
      <point x="262" y="411"/>
      <point x="262" y="371" type="qcurve"/>
      <point x="262" y="320"/>
      <point x="196" y="265"/>
      <point x="134" y="265" type="qcurve"/>
      <point x="100" y="265"/>
      <point x="46" y="271"/>
      <point x="28" y="277" type="qcurve"/>
      <point x="28" y="330" type="line"/>
      <point x="48" y="326"/>
      <point x="92" y="322"/>
      <point x="123" y="322" type="qcurve"/>
      <point x="165" y="322"/>
      <point x="203" y="348"/>
      <point x="203" y="376" type="qcurve"/>
      <point x="203" y="402"/>
      <point x="170" y="427"/>
      <point x="134" y="427" type="qcurve"/>
      <point x="73" y="427" type="line"/>
      <point x="73" y="479" type="line"/>
      <point x="120" y="479" type="line"/>
      <point x="152" y="479"/>
      <point x="188" y="506"/>
      <point x="188" y="531" type="qcurve"/>
      <point x="188" y="556"/>
      <point x="159" y="578"/>
      <point x="128" y="578" type="qcurve"/>
      <point x="108" y="578"/>
      <point x="51" y="571"/>
      <point x="39" y="568" type="qcurve"/>
      <point x="39" y="619" type="line"/>
      <point x="58" y="625"/>
      <point x="114" y="633"/>
      <point x="145" y="633" type="qcurve"/>
      <point x="194" y="633"/>
      <point x="246" y="586"/>
    </contour>
  </outline>
</glyph>
<glyph name="paragraph" format="1">
  <advance width="482.0"/>
  <unicode hex="00B6"/>
  <outline>
    <contour>
      <point x="414" y="627" type="qcurve"/>
      <point x="414" y="9" type="line" smooth="yes"/>
      <point x="414" y="-72"/>
      <point x="333" y="-162"/>
      <point x="259" y="-162" type="qcurve"/>
      <point x="236" y="-162"/>
      <point x="203" y="-160"/>
      <point x="185" y="-157" type="qcurve"/>
      <point x="185" y="-84" type="line"/>
      <point x="210" y="-87"/>
      <point x="226" y="-88"/>
      <point x="233" y="-88" type="qcurve"/>
      <point x="287" y="-88"/>
      <point x="332" y="-44"/>
      <point x="332" y="9" type="qcurve"/>
      <point x="332" y="140" type="line"/>
      <point x="303" y="134"/>
      <point x="246" y="127"/>
      <point x="218" y="127" type="qcurve"/>
      <point x="113" y="127"/>
      <point x="28" y="241"/>
      <point x="28" y="383" type="qcurve" smooth="yes"/>
      <point x="28" y="522"/>
      <point x="138" y="639"/>
      <point x="270" y="639" type="qcurve"/>
      <point x="306" y="639"/>
      <point x="373" y="634"/>
    </contour>
    <contour>
      <point x="270" y="560" type="qcurve"/>
      <point x="176" y="560"/>
      <point x="110" y="486"/>
      <point x="110" y="383" type="qcurve" smooth="yes"/>
      <point x="110" y="278"/>
      <point x="162" y="204"/>
      <point x="236" y="204" type="qcurve"/>
      <point x="258" y="204"/>
      <point x="308" y="209"/>
      <point x="332" y="214" type="qcurve"/>
      <point x="332" y="558" type="line"/>
      <point x="319" y="559"/>
      <point x="286" y="560"/>
    </contour>
  </outline>
</glyph>
<glyph name="cedilla" format="1">
  <advance width="325.0"/>
  <unicode hex="00B8"/>
  <outline>
    <contour>
      <point x="278" y="-115" type="qcurve"/>
      <point x="278" y="-156"/>
      <point x="225" y="-195"/>
      <point x="166" y="-195" type="qcurve" smooth="yes"/>
      <point x="133" y="-195"/>
      <point x="71" y="-188"/>
      <point x="60" y="-183" type="qcurve"/>
      <point x="60" y="-132" type="line"/>
      <point x="71" y="-136"/>
      <point x="126" y="-143"/>
      <point x="153" y="-143" type="qcurve" smooth="yes"/>
      <point x="182" y="-143"/>
      <point x="205" y="-130"/>
      <point x="205" y="-113" type="qcurve"/>
      <point x="205" y="-99"/>
      <point x="177" y="-86"/>
      <point x="145" y="-86" type="qcurve"/>
      <point x="133" y="-86"/>
      <point x="97" y="-88"/>
      <point x="96" y="-88" type="qcurve"/>
      <point x="116" y="15" type="line"/>
      <point x="180" y="9" type="line"/>
      <point x="168" y="-47" type="line"/>
      <point x="222" y="-45"/>
      <point x="278" y="-80"/>
    </contour>
    <contour>
      <point x="150.0" y="0.0" type="move" name="_bottom"/>
    </contour>
  </outline>
</glyph>
<glyph name="ordmasculine" format="1">
  <advance width="374.0"/>
  <unicode hex="00BA"/>
  <outline>
    <contour>
      <point x="324" y="493" type="qcurve" smooth="yes"/>
      <point x="324" y="420"/>
      <point x="258" y="350"/>
      <point x="188" y="350" type="qcurve" smooth="yes"/>
      <point x="115" y="350"/>
      <point x="51" y="417"/>
      <point x="51" y="493" type="qcurve" smooth="yes"/>
      <point x="51" y="568"/>
      <point x="117" y="637"/>
      <point x="188" y="637" type="qcurve" smooth="yes"/>
      <point x="260" y="637"/>
      <point x="324" y="569"/>
    </contour>
    <contour>
      <point x="108" y="494" type="qcurve" smooth="yes"/>
      <point x="108" y="442"/>
      <point x="143" y="402"/>
      <point x="188" y="402" type="qcurve" smooth="yes"/>
      <point x="231" y="402"/>
      <point x="267" y="444"/>
      <point x="267" y="494" type="qcurve" smooth="yes"/>
      <point x="267" y="546"/>
      <point x="232" y="586"/>
      <point x="188" y="586" type="qcurve" smooth="yes"/>
      <point x="144" y="586"/>
      <point x="108" y="544"/>
    </contour>
    <contour>
      <point x="317" y="255" type="line"/>
      <point x="56" y="255" type="line"/>
      <point x="56" y="305" type="line"/>
      <point x="317" y="305" type="line"/>
    </contour>
  </outline>
</glyph>
<glyph name="guillemotright" format="1">
  <advance width="482.0"/>
  <unicode hex="00BB"/>
  <outline>
    <contour>
      <point x="460" y="281" type="line"/>
      <point x="311" y="64" type="line"/>
      <point x="233" y="64" type="line"/>
      <point x="381" y="282" type="line"/>
      <point x="233" y="494" type="line"/>
      <point x="311" y="494" type="line"/>
    </contour>
    <contour>
      <point x="254" y="281" type="line"/>
      <point x="105" y="64" type="line"/>
      <point x="27" y="64" type="line"/>
      <point x="174" y="282" type="line"/>
      <point x="27" y="494" type="line"/>
      <point x="105" y="494" type="line"/>
    </contour>
  </outline>
</glyph>
<glyph name="questiondown" format="1">
  <advance width="376.0"/>
  <unicode hex="00BF"/>
  <outline>
    <contour>
      <point x="175" y="413" type="line"/>
      <point x="175" y="494" type="line"/>
      <point x="262" y="494" type="line"/>
      <point x="262" y="413" type="line"/>
    </contour>
    <contour>
      <point x="193" y="-143" type="qcurve"/>
      <point x="112" y="-143"/>
      <point x="22" y="-73"/>
      <point x="22" y="-8" type="qcurve" smooth="yes"/>
      <point x="22" y="51"/>
      <point x="98" y="152"/>
      <point x="180" y="199" type="qcurve"/>
      <point x="180" y="321" type="line"/>
      <point x="255" y="321" type="line"/>
      <point x="255" y="164" type="line"/>
      <point x="172" y="122"/>
      <point x="102" y="50"/>
      <point x="102" y="10" type="qcurve" smooth="yes"/>
      <point x="102" y="-27"/>
      <point x="155" y="-66"/>
      <point x="205" y="-66" type="qcurve"/>
      <point x="242" y="-66"/>
      <point x="325" y="-51"/>
      <point x="356" y="-39" type="qcurve"/>
      <point x="356" y="-115" type="line"/>
      <point x="318" y="-129"/>
      <point x="239" y="-143"/>
    </contour>
  </outline>
</glyph>
<glyph name="AE" format="1">
  <advance width="740.0"/>
  <unicode hex="00C6"/>
  <outline>
    <contour>
      <point x="98" y="0" type="line"/>
      <point x="8" y="0" type="line"/>
      <point x="246" y="627" type="line"/>
      <point x="696" y="627" type="line"/>
      <point x="696" y="550" type="line"/>
      <point x="364" y="550" type="line"/>
      <point x="434" y="358" type="line"/>
      <point x="659" y="358" type="line"/>
      <point x="659" y="283" type="line"/>
      <point x="461" y="283" type="line"/>
      <point x="535" y="80" type="line"/>
      <point x="705" y="80" type="line"/>
      <point x="705" y="0" type="line"/>
      <point x="479" y="0" type="line"/>
      <point x="423" y="151" type="line"/>
      <point x="154" y="151" type="line"/>
    </contour>
    <contour>
      <point x="288" y="543" type="qcurve"/>
      <point x="279" y="511"/>
      <point x="257" y="438"/>
      <point x="244" y="397" type="qcurve"/>
      <point x="181" y="225" type="line"/>
      <point x="396" y="225" type="line"/>
      <point x="333" y="397" type="line" smooth="yes"/>
      <point x="322" y="428"/>
      <point x="298" y="505"/>
    </contour>
    <contour>
      <point x="455.0" y="645.0" type="move" name="top"/>
    </contour>
  </outline>
</glyph>
<glyph name="Ccedilla" format="1">
  <advance width="518.0"/>
  <unicode hex="00C7"/>
  <outline>
    <contour>
      <point x="427" y="-115" type="qcurve"/>
      <point x="427" y="-156"/>
      <point x="374" y="-195"/>
      <point x="315" y="-195" type="qcurve" smooth="yes"/>
      <point x="282" y="-195"/>
      <point x="220" y="-188"/>
      <point x="209" y="-183" type="qcurve"/>
      <point x="209" y="-132" type="line"/>
      <point x="220" y="-136"/>
      <point x="275" y="-143"/>
      <point x="302" y="-143" type="qcurve" smooth="yes"/>
      <point x="331" y="-143"/>
      <point x="354" y="-130"/>
      <point x="354" y="-113" type="qcurve"/>
      <point x="354" y="-99"/>
      <point x="326" y="-86"/>
      <point x="294" y="-86" type="qcurve"/>
      <point x="282" y="-86"/>
      <point x="246" y="-88"/>
      <point x="245" y="-88" type="qcurve"/>
      <point x="261" y="-6" type="line"/>
      <point x="144" y="4"/>
      <point x="44" y="154"/>
      <point x="44" y="315" type="qcurve" smooth="yes"/>
      <point x="44" y="482"/>
      <point x="181" y="637"/>
      <point x="331" y="637" type="qcurve"/>
      <point x="377" y="637"/>
      <point x="449" y="633"/>
      <point x="478" y="628" type="qcurve"/>
      <point x="478" y="553" type="line"/>
      <point x="443" y="557"/>
      <point x="372" y="560"/>
      <point x="331" y="560" type="qcurve"/>
      <point x="219" y="560"/>
      <point x="131" y="449"/>
      <point x="131" y="315" type="qcurve" smooth="yes"/>
      <point x="131" y="179"/>
      <point x="211" y="72"/>
      <point x="321" y="72" type="qcurve" smooth="yes"/>
      <point x="362" y="72"/>
      <point x="453" y="91"/>
      <point x="492" y="107" type="qcurve"/>
      <point x="492" y="31" type="line"/>
      <point x="445" y="12"/>
      <point x="367" y="-6"/>
      <point x="325" y="-8" type="qcurve"/>
      <point x="317" y="-47" type="line"/>
      <point x="371" y="-45"/>
      <point x="427" y="-80"/>
    </contour>
  </outline>
</glyph>
<glyph name="multiply" format="1">
  <advance width="500.0"/>
  <unicode hex="00D7"/>
  <outline>
    <contour>
      <point x="43" y="474" type="line"/>
      <point x="99" y="530" type="line"/>
      <point x="251" y="378" type="line"/>
      <point x="404" y="531" type="line"/>
      <point x="459" y="476" type="line"/>
      <point x="306" y="323" type="line"/>
      <point x="460" y="169" type="line"/>
      <point x="404" y="113" type="line"/>
      <point x="250" y="267" type="line"/>
      <point x="96" y="113" type="line"/>
      <point x="41" y="168" type="line"/>
      <point x="195" y="322" type="line"/>
    </contour>
  </outline>
</glyph>
<glyph name="Oslash" format="1">
  <advance width="649.0"/>
  <unicode hex="00D8"/>
  <outline>
    <contour>
      <point x="100" y="-55" type="line"/>
      <point x="51" y="-23" type="line"/>
      <point x="107" y="60" type="line"/>
      <point x="75" y="97"/>
      <point x="45" y="219"/>
      <point x="45" y="315" type="qcurve"/>
      <point x="45" y="485"/>
      <point x="177" y="637"/>
      <point x="325" y="637" type="qcurve"/>
      <point x="376" y="637"/>
      <point x="454" y="624"/>
      <point x="484" y="611" type="qcurve"/>
      <point x="541" y="694" type="line"/>
      <point x="590" y="663" type="line"/>
      <point x="532" y="579" type="line"/>
      <point x="570" y="543"/>
      <point x="604" y="417"/>
      <point x="604" y="315" type="qcurve"/>
      <point x="604" y="144"/>
      <point x="473" y="-8"/>
      <point x="325" y="-8" type="qcurve"/>
      <point x="267" y="-8"/>
      <point x="184" y="8"/>
      <point x="154" y="24" type="qcurve"/>
    </contour>
    <contour>
      <point x="325" y="560" type="qcurve"/>
      <point x="213" y="560"/>
      <point x="131" y="452"/>
      <point x="131" y="315" type="qcurve"/>
      <point x="131" y="249"/>
      <point x="144" y="163"/>
      <point x="159" y="136" type="qcurve"/>
      <point x="438" y="544" type="line"/>
      <point x="418" y="552"/>
      <point x="364" y="560"/>
    </contour>
    <contour>
      <point x="325" y="72" type="qcurve" smooth="yes"/>
      <point x="436" y="72"/>
      <point x="518" y="179"/>
      <point x="518" y="315" type="qcurve"/>
      <point x="518" y="389"/>
      <point x="501" y="480"/>
      <point x="483" y="507" type="qcurve"/>
      <point x="201" y="94" type="line"/>
      <point x="221" y="82"/>
      <point x="280" y="72"/>
    </contour>
    <contour>
      <point x="325.0" y="655" type="move" name="top"/>
    </contour>
  </outline>
</glyph>
<glyph name="Thorn" format="1">
  <advance width="572.0"/>
  <unicode hex="00DE"/>
  <outline>
    <contour>
      <point x="157" y="105" type="line"/>
      <point x="157" y="0" type="line"/>
      <point x="72" y="0" type="line"/>
      <point x="72" y="627" type="line"/>
      <point x="157" y="627" type="line"/>
      <point x="157" y="528" type="line"/>
      <point x="285" y="528" type="line" smooth="yes"/>
      <point x="418" y="528"/>
      <point x="533" y="432"/>
      <point x="533" y="323" type="qcurve"/>
      <point x="533" y="212"/>
      <point x="413" y="105"/>
      <point x="288" y="105" type="qcurve"/>
    </contour>
    <contour>
      <point x="447" y="323" type="qcurve"/>
      <point x="447" y="392"/>
      <point x="373" y="451"/>
      <point x="285" y="451" type="qcurve"/>
      <point x="157" y="451" type="line"/>
      <point x="157" y="180" type="line"/>
      <point x="285" y="180" type="line" smooth="yes"/>
      <point x="371" y="180"/>
      <point x="447" y="248"/>
    </contour>
  </outline>
</glyph>
<glyph name="germandbls" format="1">
  <advance width="585.0"/>
  <unicode hex="00DF"/>
  <outline>
    <contour>
      <point x="264" y="677" type="qcurve"/>
      <point x="360" y="677"/>
      <point x="451" y="611"/>
      <point x="451" y="540" type="qcurve" smooth="yes"/>
      <point x="451" y="521"/>
      <point x="443" y="475"/>
      <point x="435" y="449" type="qcurve"/>
      <point x="404" y="338" type="line"/>
      <point x="459" y="321" type="line" smooth="yes"/>
      <point x="510" y="305"/>
      <point x="547" y="240"/>
      <point x="547" y="175" type="qcurve" smooth="yes"/>
      <point x="547" y="80"/>
      <point x="465" y="-10"/>
      <point x="375" y="-10" type="qcurve" smooth="yes"/>
      <point x="340" y="-10"/>
      <point x="280" y="-3"/>
      <point x="258" y="3" type="qcurve"/>
      <point x="258" y="78" type="line"/>
      <point x="282" y="72"/>
      <point x="334" y="66"/>
      <point x="364" y="66" type="qcurve" smooth="yes"/>
      <point x="422" y="66"/>
      <point x="469" y="116"/>
      <point x="469" y="175" type="qcurve" smooth="yes"/>
      <point x="469" y="213"/>
      <point x="447" y="249"/>
      <point x="416" y="258" type="qcurve"/>
      <point x="315" y="287" type="line"/>
      <point x="356" y="453" type="line" smooth="yes"/>
      <point x="365" y="485"/>
      <point x="369" y="511"/>
      <point x="369" y="523" type="qcurve" smooth="yes"/>
      <point x="369" y="564"/>
      <point x="318" y="603"/>
      <point x="264" y="603" type="qcurve"/>
      <point x="201" y="603"/>
      <point x="148" y="552"/>
      <point x="148" y="489" type="qcurve"/>
      <point x="148" y="0" type="line"/>
      <point x="66" y="0" type="line"/>
      <point x="66" y="490" type="line" smooth="yes"/>
      <point x="66" y="587"/>
      <point x="161" y="677"/>
    </contour>
  </outline>
</glyph>
<glyph name="ae" format="1">
  <advance width="766.0"/>
  <unicode hex="00E6"/>
  <outline>
    <contour>
      <point x="178" y="-8" type="qcurve"/>
      <point x="103" y="-8"/>
      <point x="31" y="65"/>
      <point x="31" y="141" type="qcurve"/>
      <point x="31" y="220"/>
      <point x="115" y="286"/>
      <point x="217" y="286" type="qcurve"/>
      <point x="332" y="286" type="line"/>
      <point x="332" y="327" type="line" smooth="yes"/>
      <point x="332" y="382"/>
      <point x="281" y="430"/>
      <point x="224" y="430" type="qcurve" smooth="yes"/>
      <point x="180" y="430"/>
      <point x="112" y="423"/>
      <point x="80" y="415" type="qcurve"/>
      <point x="80" y="486" type="line"/>
      <point x="120" y="496"/>
      <point x="198" y="504"/>
      <point x="249" y="504" type="qcurve" smooth="yes"/>
      <point x="299" y="504"/>
      <point x="364" y="471"/>
      <point x="381" y="437" type="qcurve"/>
      <point x="407" y="470"/>
      <point x="485" y="504"/>
      <point x="538" y="504" type="qcurve"/>
      <point x="638" y="504"/>
      <point x="725" y="408"/>
      <point x="725" y="298" type="qcurve"/>
      <point x="725" y="273"/>
      <point x="723" y="238"/>
      <point x="721" y="220" type="qcurve"/>
      <point x="412" y="220" type="line"/>
      <point x="413" y="138"/>
      <point x="474" y="68"/>
      <point x="549" y="68" type="qcurve" smooth="yes"/>
      <point x="589" y="68"/>
      <point x="677" y="85"/>
      <point x="704" y="96" type="qcurve"/>
      <point x="704" y="27" type="line"/>
      <point x="679" y="13"/>
      <point x="583" y="-8"/>
      <point x="535" y="-8" type="qcurve" smooth="yes"/>
      <point x="476" y="-8"/>
      <point x="396" y="26"/>
      <point x="372" y="62" type="qcurve"/>
      <point x="335" y="29"/>
      <point x="234" y="-8"/>
    </contour>
    <contour>
      <point x="650" y="309" type="qcurve"/>
      <point x="649" y="375"/>
      <point x="598" y="430"/>
      <point x="538" y="430" type="qcurve"/>
      <point x="469" y="430"/>
      <point x="412" y="365"/>
      <point x="412" y="286" type="qcurve"/>
      <point x="649" y="286" type="line"/>
      <point x="650" y="289"/>
      <point x="650" y="299"/>
    </contour>
    <contour>
      <point x="109" y="145" type="qcurve"/>
      <point x="109" y="102"/>
      <point x="151" y="66"/>
      <point x="200" y="66" type="qcurve"/>
      <point x="240" y="66"/>
      <point x="319" y="94"/>
      <point x="348" y="117" type="qcurve"/>
      <point x="341" y="138"/>
      <point x="334" y="190"/>
      <point x="333" y="220" type="qcurve"/>
      <point x="222" y="220" type="line" smooth="yes"/>
      <point x="157" y="220"/>
      <point x="109" y="188"/>
    </contour>
    <contour>
      <point x="385.0" y="530" type="move" name="top"/>
    </contour>
  </outline>
</glyph>
<glyph name="ccedilla" format="1">
  <advance width="439.0"/>
  <unicode hex="00E7"/>
  <outline>
    <contour>
      <point x="374" y="-115" type="qcurve"/>
      <point x="374" y="-156"/>
      <point x="321" y="-195"/>
      <point x="262" y="-195" type="qcurve" smooth="yes"/>
      <point x="229" y="-195"/>
      <point x="167" y="-188"/>
      <point x="156" y="-183" type="qcurve"/>
      <point x="156" y="-132" type="line"/>
      <point x="167" y="-136"/>
      <point x="222" y="-143"/>
      <point x="249" y="-143" type="qcurve" smooth="yes"/>
      <point x="278" y="-143"/>
      <point x="301" y="-130"/>
      <point x="301" y="-113" type="qcurve"/>
      <point x="301" y="-99"/>
      <point x="273" y="-86"/>
      <point x="241" y="-86" type="qcurve"/>
      <point x="229" y="-86"/>
      <point x="193" y="-88"/>
      <point x="192" y="-88" type="qcurve"/>
      <point x="208" y="-7" type="line"/>
      <point x="118" y="-1"/>
      <point x="43" y="114"/>
      <point x="43" y="248" type="qcurve" smooth="yes"/>
      <point x="43" y="387"/>
      <point x="153" y="504"/>
      <point x="285" y="504" type="qcurve"/>
      <point x="314" y="504"/>
      <point x="361" y="501"/>
      <point x="398" y="496" type="qcurve"/>
      <point x="398" y="423" type="line"/>
      <point x="361" y="428"/>
      <point x="314" y="430"/>
      <point x="285" y="430" type="qcurve"/>
      <point x="191" y="430"/>
      <point x="125" y="353"/>
      <point x="125" y="248" type="qcurve" smooth="yes"/>
      <point x="125" y="143"/>
      <point x="177" y="68"/>
      <point x="251" y="68" type="qcurve"/>
      <point x="292" y="68"/>
      <point x="380" y="85"/>
      <point x="411" y="98" type="qcurve"/>
      <point x="411" y="29" type="line"/>
      <point x="390" y="17"/>
      <point x="315" y="-3"/>
      <point x="273" y="-6" type="qcurve"/>
      <point x="264" y="-47" type="line"/>
      <point x="318" y="-45"/>
      <point x="374" y="-80"/>
    </contour>
  </outline>
</glyph>
<glyph name="eth" format="1">
  <advance width="549.0"/>
  <unicode hex="00F0"/>
  <outline>
    <contour>
      <point x="500" y="241" type="qcurve" smooth="yes"/>
      <point x="500" y="104"/>
      <point x="397" y="-8"/>
      <point x="272" y="-8" type="qcurve" smooth="yes"/>
      <point x="143" y="-8"/>
      <point x="43" y="100"/>
      <point x="43" y="241" type="qcurve" smooth="yes"/>
      <point x="43" y="378"/>
      <point x="146" y="490"/>
      <point x="272" y="490" type="qcurve" smooth="yes"/>
      <point x="306" y="490"/>
      <point x="364" y="481"/>
      <point x="388" y="472" type="qcurve"/>
      <point x="379" y="495"/>
      <point x="356" y="542"/>
      <point x="341" y="565" type="qcurve"/>
      <point x="159" y="523" type="line"/>
      <point x="159" y="572" type="line"/>
      <point x="311" y="607" type="line"/>
      <point x="299" y="622"/>
      <point x="273" y="651"/>
      <point x="259" y="665" type="qcurve"/>
      <point x="351" y="665" type="line"/>
      <point x="358" y="658"/>
      <point x="372" y="641"/>
      <point x="386" y="624" type="qcurve"/>
      <point x="488" y="648" type="line"/>
      <point x="488" y="598" type="line"/>
      <point x="417" y="582" type="line"/>
      <point x="461" y="514"/>
      <point x="500" y="352"/>
    </contour>
    <contour>
      <point x="125" y="242" type="qcurve" smooth="yes"/>
      <point x="125" y="136"/>
      <point x="183" y="68"/>
      <point x="272" y="68" type="qcurve" smooth="yes"/>
      <point x="358" y="68"/>
      <point x="418" y="140"/>
      <point x="418" y="242" type="qcurve" smooth="yes"/>
      <point x="418" y="263"/>
      <point x="418" y="282"/>
      <point x="417" y="289" type="qcurve"/>
      <point x="416" y="289" type="line"/>
      <point x="416" y="291"/>
      <point x="416" y="294"/>
      <point x="416" y="295" type="qcurve"/>
      <point x="410" y="365"/>
      <point x="351" y="416"/>
      <point x="272" y="416" type="qcurve" smooth="yes"/>
      <point x="185" y="416"/>
      <point x="125" y="345"/>
    </contour>
  </outline>
</glyph>
<glyph name="oslash" format="1">
  <advance width="544.0"/>
  <unicode hex="00F8"/>
  <outline>
    <contour>
      <point x="92" y="-66" type="line"/>
      <point x="45" y="-33" type="line"/>
      <point x="97" y="43" type="line"/>
      <point x="69" y="72"/>
      <point x="43" y="170"/>
      <point x="43" y="248" type="qcurve" smooth="yes"/>
      <point x="43" y="389"/>
      <point x="146" y="504"/>
      <point x="272" y="504" type="qcurve" smooth="yes"/>
      <point x="315" y="504"/>
      <point x="377" y="494"/>
      <point x="401" y="483" type="qcurve"/>
      <point x="453" y="558" type="line"/>
      <point x="500" y="525" type="line"/>
      <point x="448" y="450" type="line"/>
      <point x="475" y="422"/>
      <point x="500" y="324"/>
      <point x="500" y="248" type="qcurve" smooth="yes"/>
      <point x="500" y="108"/>
      <point x="397" y="-8"/>
      <point x="272" y="-8" type="qcurve" smooth="yes"/>
      <point x="232" y="-8"/>
      <point x="170" y="1"/>
      <point x="146" y="11" type="qcurve"/>
    </contour>
    <contour>
      <point x="272" y="430" type="qcurve" smooth="yes"/>
      <point x="185" y="430"/>
      <point x="125" y="356"/>
      <point x="125" y="249" type="qcurve" smooth="yes"/>
      <point x="125" y="197"/>
      <point x="136" y="132"/>
      <point x="148" y="112" type="qcurve"/>
      <point x="358" y="418" type="line"/>
      <point x="343" y="424"/>
      <point x="302" y="430"/>
    </contour>
    <contour>
      <point x="272" y="68" type="qcurve" smooth="yes"/>
      <point x="358" y="68"/>
      <point x="418" y="143"/>
      <point x="418" y="249" type="qcurve" smooth="yes"/>
      <point x="418" y="300"/>
      <point x="408" y="362"/>
      <point x="398" y="381" type="qcurve"/>
      <point x="190" y="79" type="line"/>
      <point x="204" y="73"/>
      <point x="244" y="68"/>
    </contour>
    <contour>
      <point x="272.0" y="530" type="move" name="top"/>
    </contour>
  </outline>
</glyph>
<glyph name="Aogonek" format="1">
  <advance width="598.0"/>
  <unicode hex="0104"/>
  <outline>
    <contour>
      <point x="98" y="0" type="line"/>
      <point x="8" y="0" type="line"/>
      <point x="256" y="627" type="line"/>
      <point x="344" y="627" type="line"/>
      <point x="589" y="0" type="line"/>
      <point x="587" y="0" type="line"/>
      <point x="527" y="-12"/>
      <point x="450" y="-65"/>
      <point x="450" y="-98" type="qcurve"/>
      <point x="450" y="-120"/>
      <point x="479" y="-142"/>
      <point x="508" y="-142" type="qcurve"/>
      <point x="522" y="-142"/>
      <point x="555" y="-137"/>
      <point x="567" y="-134" type="qcurve"/>
      <point x="567" y="-193" type="line"/>
      <point x="535" y="-200"/>
      <point x="502" y="-204"/>
      <point x="487" y="-204" type="qcurve"/>
      <point x="436" y="-204"/>
      <point x="381" y="-157"/>
      <point x="381" y="-113" type="qcurve"/>
      <point x="381" y="-72"/>
      <point x="440" y="-11"/>
      <point x="496" y="7" type="qcurve"/>
      <point x="442" y="151" type="line"/>
      <point x="155" y="151" type="line"/>
    </contour>
    <contour>
      <point x="298" y="549" type="qcurve"/>
      <point x="288" y="514"/>
      <point x="261" y="436"/>
      <point x="247" y="397" type="qcurve"/>
      <point x="183" y="226" type="line"/>
      <point x="414" y="226" type="line"/>
      <point x="350" y="397" type="line" smooth="yes"/>
      <point x="330" y="452"/>
      <point x="307" y="520"/>
    </contour>
  </outline>
</glyph>
<glyph name="aogonek" format="1">
  <advance width="493.0"/>
  <unicode hex="0105"/>
  <outline>
    <contour>
      <point x="178" y="-8" type="qcurve"/>
      <point x="102" y="-8"/>
      <point x="31" y="65"/>
      <point x="31" y="144" type="qcurve"/>
      <point x="31" y="224"/>
      <point x="117" y="291"/>
      <point x="220" y="291" type="qcurve"/>
      <point x="254" y="291"/>
      <point x="320" y="285"/>
      <point x="349" y="279" type="qcurve"/>
      <point x="349" y="327" type="line" smooth="yes"/>
      <point x="349" y="382"/>
      <point x="293" y="430"/>
      <point x="231" y="430" type="qcurve" smooth="yes"/>
      <point x="185" y="430"/>
      <point x="115" y="423"/>
      <point x="80" y="415" type="qcurve"/>
      <point x="80" y="486" type="line"/>
      <point x="120" y="496"/>
      <point x="203" y="504"/>
      <point x="256" y="504" type="qcurve" smooth="yes"/>
      <point x="345" y="504"/>
      <point x="431" y="421"/>
      <point x="431" y="334" type="qcurve"/>
      <point x="431" y="0" type="line"/>
      <point x="371" y="-12"/>
      <point x="294" y="-65"/>
      <point x="294" y="-98" type="qcurve"/>
      <point x="294" y="-120"/>
      <point x="323" y="-142"/>
      <point x="352" y="-142" type="qcurve"/>
      <point x="366" y="-142"/>
      <point x="399" y="-137"/>
      <point x="411" y="-134" type="qcurve"/>
      <point x="411" y="-193" type="line"/>
      <point x="379" y="-200"/>
      <point x="346" y="-204"/>
      <point x="331" y="-204" type="qcurve"/>
      <point x="280" y="-204"/>
      <point x="225" y="-157"/>
      <point x="225" y="-113" type="qcurve"/>
      <point x="225" y="-69"/>
      <point x="291" y="-6"/>
      <point x="355" y="12" type="qcurve"/>
      <point x="352" y="46" type="line"/>
      <point x="350" y="46" type="line"/>
      <point x="320" y="22"/>
      <point x="225" y="-8"/>
    </contour>
    <contour>
      <point x="229" y="224" type="qcurve"/>
      <point x="161" y="224"/>
      <point x="108" y="191"/>
      <point x="108" y="149" type="qcurve"/>
      <point x="108" y="105"/>
      <point x="152" y="66"/>
      <point x="202" y="66" type="qcurve"/>
      <point x="241" y="66"/>
      <point x="323" y="90"/>
      <point x="349" y="108" type="qcurve"/>
      <point x="349" y="214" type="line"/>
      <point x="316" y="219"/>
      <point x="259" y="224"/>
    </contour>
  </outline>
</glyph>
<glyph name="Dcroat" format="1">
  <advance width="624.0"/>
  <unicode hex="0110"/>
  <outline>
    <contour>
      <point x="20" y="291" type="line"/>
      <point x="20" y="351" type="line"/>
      <point x="90" y="351" type="line"/>
      <point x="90" y="627" type="line"/>
      <point x="272" y="627" type="line" smooth="yes"/>
      <point x="368" y="627"/>
      <point x="481" y="595"/>
      <point x="515" y="560" type="qcurve" smooth="yes"/>
      <point x="549" y="525"/>
      <point x="580" y="406"/>
      <point x="580" y="314" type="qcurve"/>
      <point x="580" y="151"/>
      <point x="434" y="0"/>
      <point x="272" y="0" type="qcurve"/>
      <point x="90" y="0" type="line"/>
      <point x="90" y="291" type="line"/>
    </contour>
    <contour>
      <point x="339" y="351" type="line"/>
      <point x="339" y="291" type="line"/>
      <point x="175" y="291" type="line"/>
      <point x="175" y="80" type="line"/>
      <point x="272" y="80" type="line" smooth="yes"/>
      <point x="396" y="80"/>
      <point x="493" y="186"/>
      <point x="493" y="314" type="qcurve"/>
      <point x="493" y="385"/>
      <point x="473" y="473"/>
      <point x="451" y="499" type="qcurve" smooth="yes"/>
      <point x="428" y="526"/>
      <point x="346" y="550"/>
      <point x="272" y="550" type="qcurve"/>
      <point x="175" y="550" type="line"/>
      <point x="175" y="351" type="line"/>
    </contour>
  </outline>
</glyph>
<glyph name="dcroat" format="1">
  <advance width="542.0"/>
  <unicode hex="0111"/>
  <outline>
    <contour>
      <point x="546" y="614" type="line"/>
      <point x="546" y="565" type="line"/>
      <point x="476" y="565" type="line"/>
      <point x="476" y="0" type="line"/>
      <point x="404" y="0" type="line"/>
      <point x="398" y="48" type="line"/>
      <point x="396" y="48" type="line"/>
      <point x="367" y="20"/>
      <point x="285" y="-8"/>
      <point x="230" y="-8" type="qcurve"/>
      <point x="129" y="-8"/>
      <point x="42" y="110"/>
      <point x="42" y="243" type="qcurve" smooth="yes"/>
      <point x="42" y="377"/>
      <point x="148" y="494"/>
      <point x="272" y="494" type="qcurve"/>
      <point x="310" y="494"/>
      <point x="371" y="484"/>
      <point x="394" y="474" type="qcurve"/>
      <point x="394" y="565" type="line"/>
      <point x="217" y="565" type="line"/>
      <point x="217" y="614" type="line"/>
      <point x="394" y="614" type="line"/>
      <point x="394" y="665" type="line"/>
      <point x="476" y="665" type="line"/>
      <point x="476" y="614" type="line"/>
    </contour>
    <contour>
      <point x="282" y="420" type="qcurve"/>
      <point x="189" y="420"/>
      <point x="124" y="344"/>
      <point x="124" y="243" type="qcurve" smooth="yes"/>
      <point x="124" y="145"/>
      <point x="181" y="68"/>
      <point x="259" y="68" type="qcurve"/>
      <point x="296" y="68"/>
      <point x="364" y="87"/>
      <point x="394" y="107" type="qcurve"/>
      <point x="394" y="399" type="line"/>
      <point x="370" y="410"/>
      <point x="316" y="420"/>
    </contour>
  </outline>
</glyph>
<glyph name="Eogonek" format="1">
  <advance width="523.0"/>
  <unicode hex="0118"/>
  <outline>
    <contour>
      <point x="488" y="0" type="line"/>
      <point x="435" y="0" type="line"/>
      <point x="375" y="-12"/>
      <point x="298" y="-65"/>
      <point x="298" y="-98" type="qcurve"/>
      <point x="298" y="-120"/>
      <point x="327" y="-142"/>
      <point x="356" y="-142" type="qcurve"/>
      <point x="370" y="-142"/>
      <point x="403" y="-137"/>
      <point x="415" y="-134" type="qcurve"/>
      <point x="415" y="-193" type="line"/>
      <point x="383" y="-200"/>
      <point x="350" y="-204"/>
      <point x="335" y="-204" type="qcurve"/>
      <point x="284" y="-204"/>
      <point x="229" y="-157"/>
      <point x="229" y="-113" type="qcurve"/>
      <point x="229" y="-76"/>
      <point x="276" y="-19"/>
      <point x="323" y="0" type="qcurve"/>
      <point x="72" y="0" type="line"/>
      <point x="72" y="627" type="line"/>
      <point x="479" y="627" type="line"/>
      <point x="479" y="550" type="line"/>
      <point x="157" y="550" type="line"/>
      <point x="157" y="358" type="line"/>
      <point x="442" y="358" type="line"/>
      <point x="442" y="283" type="line"/>
      <point x="157" y="283" type="line"/>
      <point x="157" y="80" type="line"/>
      <point x="488" y="80" type="line"/>
    </contour>
  </outline>
</glyph>
<glyph name="eogonek" format="1">
  <advance width="498.0"/>
  <unicode hex="0119"/>
  <outline>
    <contour>
      <point x="437" y="96" type="qcurve"/>
      <point x="437" y="27" type="line"/>
      <point x="429" y="23"/>
      <point x="407" y="14"/>
      <point x="394" y="11" type="qcurve"/>
      <point x="322" y="-27"/>
      <point x="269" y="-85"/>
      <point x="269" y="-118" type="qcurve"/>
      <point x="269" y="-140"/>
      <point x="300" y="-164"/>
      <point x="328" y="-164" type="qcurve"/>
      <point x="341" y="-164"/>
      <point x="375" y="-159"/>
      <point x="390" y="-155" type="qcurve"/>
      <point x="390" y="-209" type="line"/>
      <point x="372" y="-214"/>
      <point x="330" y="-220"/>
      <point x="311" y="-220" type="qcurve"/>
      <point x="261" y="-220"/>
      <point x="207" y="-173"/>
      <point x="207" y="-131" type="qcurve"/>
      <point x="207" y="-97"/>
      <point x="250" y="-33"/>
      <point x="290" y="-7" type="qcurve"/>
      <point x="284" y="-8"/>
      <point x="271" y="-8"/>
      <point x="258" y="-8" type="qcurve" smooth="yes"/>
      <point x="142" y="-8"/>
      <point x="42" y="112"/>
      <point x="42" y="250" type="qcurve" smooth="yes"/>
      <point x="42" y="383"/>
      <point x="146" y="504"/>
      <point x="260" y="504" type="qcurve"/>
      <point x="366" y="504"/>
      <point x="458" y="409"/>
      <point x="458" y="298" type="qcurve"/>
      <point x="458" y="278"/>
      <point x="456" y="244"/>
      <point x="453" y="220" type="qcurve"/>
      <point x="125" y="220" type="line"/>
      <point x="126" y="138"/>
      <point x="191" y="68"/>
      <point x="271" y="68" type="qcurve" smooth="yes"/>
      <point x="314" y="68"/>
      <point x="408" y="84"/>
    </contour>
    <contour>
      <point x="383" y="309" type="qcurve"/>
      <point x="382" y="375"/>
      <point x="326" y="430"/>
      <point x="260" y="430" type="qcurve"/>
      <point x="186" y="430"/>
      <point x="125" y="367"/>
      <point x="125" y="288" type="qcurve"/>
      <point x="382" y="288" type="line"/>
      <point x="382" y="290"/>
      <point x="383" y="305"/>
    </contour>
  </outline>
</glyph>
<glyph name="Hbar" format="1">
  <advance width="678.0"/>
  <unicode hex="0126"/>
  <outline>
    <contour>
      <point x="175" y="0" type="line"/>
      <point x="90" y="0" type="line"/>
      <point x="90" y="468" type="line"/>
      <point x="26" y="468" type="line"/>
      <point x="26" y="525" type="line"/>
      <point x="90" y="525" type="line"/>
      <point x="90" y="627" type="line"/>
      <point x="175" y="627" type="line"/>
      <point x="175" y="525" type="line"/>
      <point x="503" y="525" type="line"/>
      <point x="503" y="627" type="line"/>
      <point x="588" y="627" type="line"/>
      <point x="588" y="525" type="line"/>
      <point x="652" y="525" type="line"/>
      <point x="652" y="468" type="line"/>
      <point x="588" y="468" type="line"/>
      <point x="588" y="0" type="line"/>
      <point x="503" y="0" type="line"/>
      <point x="503" y="279" type="line"/>
      <point x="175" y="279" type="line"/>
    </contour>
    <contour>
      <point x="175" y="468" type="line"/>
      <point x="175" y="357" type="line"/>
      <point x="503" y="357" type="line"/>
      <point x="503" y="468" type="line"/>
    </contour>
  </outline>
</glyph>
<glyph name="hbar" format="1">
  <advance width="553.0"/>
  <unicode hex="0127"/>
  <outline>
    <contour>
      <point x="148" y="0" type="line"/>
      <point x="66" y="0" type="line"/>
      <point x="66" y="565" type="line"/>
      <point x="-4" y="565" type="line"/>
      <point x="-4" y="614" type="line"/>
      <point x="66" y="614" type="line"/>
      <point x="66" y="665" type="line"/>
      <point x="148" y="665" type="line"/>
      <point x="148" y="614" type="line"/>
      <point x="325" y="614" type="line"/>
      <point x="325" y="565" type="line"/>
      <point x="148" y="565" type="line"/>
      <point x="148" y="454" type="line"/>
      <point x="193" y="479"/>
      <point x="282" y="504"/>
      <point x="326" y="504" type="qcurve" smooth="yes"/>
      <point x="408" y="504"/>
      <point x="491" y="422"/>
      <point x="491" y="342" type="qcurve"/>
      <point x="491" y="0" type="line"/>
      <point x="409" y="0" type="line"/>
      <point x="409" y="332" type="line" smooth="yes"/>
      <point x="409" y="383"/>
      <point x="356" y="430"/>
      <point x="300" y="430" type="qcurve" smooth="yes"/>
      <point x="263" y="430"/>
      <point x="184" y="410"/>
      <point x="148" y="392" type="qcurve"/>
    </contour>
  </outline>
</glyph>
<glyph name="Iogonek" format="1">
  <advance width="230.0"/>
  <unicode hex="012E"/>
  <outline>
    <contour>
      <point x="158" y="0" type="line"/>
      <point x="157" y="0" type="line"/>
      <point x="97" y="-12"/>
      <point x="20" y="-65"/>
      <point x="20" y="-98" type="qcurve"/>
      <point x="20" y="-120"/>
      <point x="49" y="-142"/>
      <point x="78" y="-142" type="qcurve"/>
      <point x="92" y="-142"/>
      <point x="125" y="-137"/>
      <point x="137" y="-134" type="qcurve"/>
      <point x="137" y="-193" type="line"/>
      <point x="105" y="-200"/>
      <point x="72" y="-204"/>
      <point x="57" y="-204" type="qcurve"/>
      <point x="6" y="-204"/>
      <point x="-49" y="-157"/>
      <point x="-49" y="-113" type="qcurve"/>
      <point x="-49" y="-70"/>
      <point x="13" y="-8"/>
      <point x="73" y="10" type="qcurve"/>
      <point x="73" y="627" type="line"/>
      <point x="158" y="627" type="line"/>
    </contour>
  </outline>
</glyph>
<glyph name="iogonek" format="1">
  <advance width="216.0"/>
  <unicode hex="012F"/>
  <outline>
    <contour>
      <point x="153" y="580" type="line"/>
      <point x="65" y="580" type="line"/>
      <point x="65" y="665" type="line"/>
      <point x="153" y="665" type="line"/>
    </contour>
    <contour>
      <point x="150" y="494" type="line"/>
      <point x="150" y="0" type="line"/>
      <point x="90" y="-12"/>
      <point x="13" y="-65"/>
      <point x="13" y="-98" type="qcurve"/>
      <point x="13" y="-120"/>
      <point x="42" y="-142"/>
      <point x="71" y="-142" type="qcurve"/>
      <point x="85" y="-142"/>
      <point x="118" y="-137"/>
      <point x="130" y="-134" type="qcurve"/>
      <point x="130" y="-193" type="line"/>
      <point x="98" y="-200"/>
      <point x="65" y="-204"/>
      <point x="50" y="-204" type="qcurve"/>
      <point x="-1" y="-204"/>
      <point x="-56" y="-157"/>
      <point x="-56" y="-113" type="qcurve"/>
      <point x="-56" y="-70"/>
      <point x="8" y="-7"/>
      <point x="68" y="10" type="qcurve"/>
      <point x="68" y="494" type="line"/>
    </contour>
  </outline>
</glyph>
<glyph name="Lslash" format="1">
  <advance width="503.0"/>
  <unicode hex="0141"/>
  <outline>
    <contour>
      <point x="486" y="80" type="line"/>
      <point x="486" y="0" type="line"/>
      <point x="102" y="0" type="line"/>
      <point x="102" y="279" type="line"/>
      <point x="32" y="259" type="line"/>
      <point x="32" y="320" type="line"/>
      <point x="102" y="340" type="line"/>
      <point x="102" y="627" type="line"/>
      <point x="187" y="627" type="line"/>
      <point x="187" y="364" type="line"/>
      <point x="368" y="416" type="line"/>
      <point x="368" y="355" type="line"/>
      <point x="187" y="303" type="line"/>
      <point x="187" y="80" type="line"/>
    </contour>
  </outline>
</glyph>
<glyph name="lslash" format="1">
  <advance width="285.0"/>
  <unicode hex="0142"/>
  <outline>
    <contour>
      <point x="176" y="307" type="line"/>
      <point x="176" y="0" type="line"/>
      <point x="94" y="0" type="line"/>
      <point x="94" y="282" type="line"/>
      <point x="30" y="263" type="line"/>
      <point x="30" y="323" type="line"/>
      <point x="94" y="342" type="line"/>
      <point x="94" y="665" type="line"/>
      <point x="176" y="665" type="line"/>
      <point x="176" y="367" type="line"/>
      <point x="264" y="394" type="line"/>
      <point x="264" y="334" type="line"/>
    </contour>
  </outline>
</glyph>
<glyph name="Eng" format="1">
  <advance width="657.0"/>
  <unicode hex="014A"/>
  <outline>
    <contour>
      <point x="585" y="627" type="line"/>
      <point x="585" y="9" type="line" smooth="yes"/>
      <point x="585" y="-73"/>
      <point x="504" y="-164"/>
      <point x="431" y="-164" type="qcurve"/>
      <point x="413" y="-164"/>
      <point x="383" y="-162"/>
      <point x="356" y="-158" type="qcurve"/>
      <point x="356" y="-87" type="line"/>
      <point x="368" y="-89"/>
      <point x="391" y="-91"/>
      <point x="405" y="-91" type="qcurve"/>
      <point x="455" y="-91"/>
      <point x="501" y="-47"/>
      <point x="503" y="3" type="qcurve"/>
      <point x="152" y="488" type="line"/>
      <point x="152" y="0" type="line"/>
      <point x="72" y="0" type="line"/>
      <point x="72" y="627" type="line"/>
      <point x="158" y="627" type="line"/>
      <point x="505" y="141" type="line"/>
      <point x="505" y="627" type="line"/>
    </contour>
  </outline>
</glyph>
<glyph name="eng" format="1">
  <advance width="554.0"/>
  <unicode hex="014B"/>
  <outline>
    <contour>
      <point x="148" y="0" type="line"/>
      <point x="66" y="0" type="line"/>
      <point x="66" y="494" type="line"/>
      <point x="137" y="494" type="line"/>
      <point x="141" y="448" type="line"/>
      <point x="144" y="448" type="line"/>
      <point x="183" y="477"/>
      <point x="269" y="504"/>
      <point x="325" y="504" type="qcurve" smooth="yes"/>
      <point x="407" y="504"/>
      <point x="492" y="422"/>
      <point x="492" y="342" type="qcurve"/>
      <point x="492" y="5" type="line" smooth="yes"/>
      <point x="492" y="-78"/>
      <point x="413" y="-162"/>
      <point x="335" y="-162" type="qcurve"/>
      <point x="316" y="-162"/>
      <point x="285" y="-160"/>
      <point x="263" y="-156" type="qcurve"/>
      <point x="263" y="-84" type="line"/>
      <point x="284" y="-87"/>
      <point x="303" y="-88"/>
      <point x="311" y="-88" type="qcurve"/>
      <point x="364" y="-88"/>
      <point x="410" y="-41"/>
      <point x="410" y="14" type="qcurve"/>
      <point x="410" y="332" type="line" smooth="yes"/>
      <point x="410" y="382"/>
      <point x="354" y="430"/>
      <point x="296" y="430" type="qcurve" smooth="yes"/>
      <point x="261" y="430"/>
      <point x="187" y="407"/>
      <point x="148" y="384" type="qcurve"/>
    </contour>
  </outline>
</glyph>
<glyph name="OE" format="1">
  <advance width="879.0"/>
  <unicode hex="0152"/>
  <outline>
    <contour>
      <point x="311" y="-8" type="qcurve"/>
      <point x="158" y="-8"/>
      <point x="45" y="130"/>
      <point x="45" y="315" type="qcurve"/>
      <point x="45" y="488"/>
      <point x="168" y="637"/>
      <point x="311" y="637" type="qcurve"/>
      <point x="343" y="637"/>
      <point x="395" y="632"/>
      <point x="417" y="627" type="qcurve"/>
      <point x="835" y="627" type="line"/>
      <point x="835" y="550" type="line"/>
      <point x="532" y="550" type="line"/>
      <point x="552" y="519"/>
      <point x="573" y="424"/>
      <point x="575" y="357" type="qcurve"/>
      <point x="798" y="357" type="line"/>
      <point x="798" y="284" type="line"/>
      <point x="576" y="284" type="line"/>
      <point x="574" y="216"/>
      <point x="548" y="115"/>
      <point x="524" y="80" type="qcurve"/>
      <point x="844" y="80" type="line"/>
      <point x="844" y="0" type="line"/>
      <point x="397" y="0" type="line"/>
      <point x="376" y="-4"/>
      <point x="333" y="-8"/>
    </contour>
    <contour>
      <point x="155" y="137" type="qcurve" smooth="yes"/>
      <point x="172" y="102"/>
      <point x="241" y="72"/>
      <point x="311" y="72" type="qcurve"/>
      <point x="415" y="72"/>
      <point x="490" y="176"/>
      <point x="490" y="315" type="qcurve"/>
      <point x="490" y="383"/>
      <point x="479" y="468"/>
      <point x="466" y="494" type="qcurve" smooth="yes"/>
      <point x="450" y="530"/>
      <point x="381" y="560"/>
      <point x="311" y="560" type="qcurve"/>
      <point x="206" y="560"/>
      <point x="131" y="455"/>
      <point x="131" y="315" type="qcurve"/>
      <point x="131" y="248"/>
      <point x="143" y="163"/>
    </contour>
  </outline>
</glyph>
<glyph name="oe" format="1">
  <advance width="840.0"/>
  <unicode hex="0153"/>
  <outline>
    <contour>
      <point x="445" y="84" type="qcurve"/>
      <point x="423" y="36"/>
      <point x="337" y="-8"/>
      <point x="265" y="-8" type="qcurve" smooth="yes"/>
      <point x="140" y="-8"/>
      <point x="43" y="103"/>
      <point x="43" y="248" type="qcurve" smooth="yes"/>
      <point x="43" y="388"/>
      <point x="143" y="504"/>
      <point x="265" y="504" type="qcurve" smooth="yes"/>
      <point x="341" y="504"/>
      <point x="427" y="461"/>
      <point x="447" y="413" type="qcurve"/>
      <point x="468" y="459"/>
      <point x="549" y="504"/>
      <point x="612" y="504" type="qcurve"/>
      <point x="713" y="504"/>
      <point x="799" y="409"/>
      <point x="799" y="298" type="qcurve"/>
      <point x="799" y="273"/>
      <point x="797" y="238"/>
      <point x="795" y="220" type="qcurve"/>
      <point x="486" y="220" type="line"/>
      <point x="487" y="138"/>
      <point x="548" y="68"/>
      <point x="623" y="68" type="qcurve" smooth="yes"/>
      <point x="663" y="68"/>
      <point x="751" y="85"/>
      <point x="778" y="96" type="qcurve"/>
      <point x="778" y="27" type="line"/>
      <point x="754" y="13"/>
      <point x="658" y="-8"/>
      <point x="609" y="-8" type="qcurve" smooth="yes"/>
      <point x="545" y="-8"/>
      <point x="465" y="37"/>
    </contour>
    <contour>
      <point x="125" y="249" type="qcurve" smooth="yes"/>
      <point x="125" y="139"/>
      <point x="180" y="68"/>
      <point x="265" y="68" type="qcurve" smooth="yes"/>
      <point x="347" y="68"/>
      <point x="404" y="142"/>
      <point x="404" y="249" type="qcurve" smooth="yes"/>
      <point x="404" y="359"/>
      <point x="349" y="430"/>
      <point x="265" y="430" type="qcurve" smooth="yes"/>
      <point x="182" y="430"/>
      <point x="125" y="355"/>
    </contour>
    <contour>
      <point x="724" y="309" type="qcurve"/>
      <point x="723" y="375"/>
      <point x="672" y="430"/>
      <point x="612" y="430" type="qcurve"/>
      <point x="543" y="430"/>
      <point x="486" y="366"/>
      <point x="486" y="288" type="qcurve"/>
      <point x="723" y="288" type="line"/>
      <point x="724" y="291"/>
      <point x="724" y="300"/>
    </contour>
  </outline>
</glyph>
<glyph name="Scedilla" format="1">
  <advance width="504.0"/>
  <unicode hex="015E"/>
  <outline>
    <contour>
      <point x="314" y="263" type="qcurve"/>
      <point x="162" y="299" type="line" smooth="yes"/>
      <point x="99" y="314"/>
      <point x="43" y="387"/>
      <point x="43" y="452" type="qcurve"/>
      <point x="43" y="547"/>
      <point x="152" y="637"/>
      <point x="267" y="637" type="qcurve" smooth="yes"/>
      <point x="315" y="637"/>
      <point x="392" y="628"/>
      <point x="425" y="619" type="qcurve"/>
      <point x="425" y="542" type="line"/>
      <point x="383" y="552"/>
      <point x="307" y="560"/>
      <point x="266" y="560" type="qcurve" smooth="yes"/>
      <point x="189" y="560"/>
      <point x="127" y="515"/>
      <point x="127" y="458" type="qcurve"/>
      <point x="127" y="422"/>
      <point x="156" y="385"/>
      <point x="189" y="377" type="qcurve"/>
      <point x="340" y="341" type="line" smooth="yes"/>
      <point x="420" y="322"/>
      <point x="473" y="253"/>
      <point x="473" y="181" type="qcurve"/>
      <point x="473" y="82"/>
      <point x="374" y="-5"/>
      <point x="267" y="-8" type="qcurve"/>
      <point x="259" y="-47" type="line"/>
      <point x="313" y="-45"/>
      <point x="369" y="-80"/>
      <point x="369" y="-115" type="qcurve"/>
      <point x="369" y="-156"/>
      <point x="316" y="-195"/>
      <point x="257" y="-195" type="qcurve" smooth="yes"/>
      <point x="224" y="-195"/>
      <point x="162" y="-188"/>
      <point x="151" y="-183" type="qcurve"/>
      <point x="151" y="-132" type="line"/>
      <point x="162" y="-136"/>
      <point x="217" y="-143"/>
      <point x="244" y="-143" type="qcurve" smooth="yes"/>
      <point x="273" y="-143"/>
      <point x="296" y="-130"/>
      <point x="296" y="-113" type="qcurve"/>
      <point x="296" y="-99"/>
      <point x="268" y="-86"/>
      <point x="236" y="-86" type="qcurve"/>
      <point x="224" y="-86"/>
      <point x="188" y="-88"/>
      <point x="187" y="-88" type="qcurve"/>
      <point x="203" y="-7" type="line"/>
      <point x="155" y="-4"/>
      <point x="69" y="11"/>
      <point x="43" y="21" type="qcurve"/>
      <point x="43" y="101" type="line"/>
      <point x="90" y="87"/>
      <point x="196" y="72"/>
      <point x="250" y="72" type="qcurve"/>
      <point x="325" y="72"/>
      <point x="385" y="116"/>
      <point x="385" y="179" type="qcurve"/>
      <point x="385" y="218"/>
      <point x="356" y="253"/>
    </contour>
  </outline>
</glyph>
<glyph name="scedilla" format="1">
  <advance width="439.0"/>
  <unicode hex="015F"/>
  <outline>
    <contour>
      <point x="342" y="-115" type="qcurve"/>
      <point x="342" y="-156"/>
      <point x="289" y="-195"/>
      <point x="230" y="-195" type="qcurve" smooth="yes"/>
      <point x="197" y="-195"/>
      <point x="135" y="-188"/>
      <point x="124" y="-183" type="qcurve"/>
      <point x="124" y="-132" type="line"/>
      <point x="135" y="-136"/>
      <point x="190" y="-143"/>
      <point x="217" y="-143" type="qcurve" smooth="yes"/>
      <point x="246" y="-143"/>
      <point x="269" y="-130"/>
      <point x="269" y="-113" type="qcurve"/>
      <point x="269" y="-99"/>
      <point x="241" y="-86"/>
      <point x="209" y="-86" type="qcurve"/>
      <point x="197" y="-86"/>
      <point x="161" y="-88"/>
      <point x="160" y="-88" type="qcurve"/>
      <point x="176" y="-7" type="line"/>
      <point x="135" y="-4"/>
      <point x="65" y="7"/>
      <point x="42" y="14" type="qcurve"/>
      <point x="42" y="91" type="line"/>
      <point x="74" y="81"/>
      <point x="167" y="68"/>
      <point x="216" y="68" type="qcurve" smooth="yes"/>
      <point x="278" y="68"/>
      <point x="324" y="104"/>
      <point x="324" y="150" type="qcurve" smooth="yes"/>
      <point x="324" y="179"/>
      <point x="298" y="206"/>
      <point x="264" y="211" type="qcurve"/>
      <point x="137" y="230" type="line" smooth="yes"/>
      <point x="89" y="237"/>
      <point x="42" y="297"/>
      <point x="41" y="354" type="qcurve"/>
      <point x="41" y="432"/>
      <point x="134" y="504"/>
      <point x="231" y="504" type="qcurve" smooth="yes"/>
      <point x="271" y="504"/>
      <point x="336" y="500"/>
      <point x="372" y="494" type="qcurve"/>
      <point x="372" y="421" type="line"/>
      <point x="346" y="425"/>
      <point x="276" y="430"/>
      <point x="236" y="430" type="qcurve" smooth="yes"/>
      <point x="172" y="430"/>
      <point x="123" y="400"/>
      <point x="123" y="354" type="qcurve" smooth="yes"/>
      <point x="123" y="330"/>
      <point x="146" y="305"/>
      <point x="171" y="301" type="qcurve"/>
      <point x="298" y="282" type="line" smooth="yes"/>
      <point x="358" y="273"/>
      <point x="406" y="216"/>
      <point x="406" y="155" type="qcurve" smooth="yes"/>
      <point x="406" y="72"/>
      <point x="329" y="-5"/>
      <point x="240" y="-8" type="qcurve"/>
      <point x="232" y="-47" type="line"/>
      <point x="286" y="-45"/>
      <point x="342" y="-80"/>
    </contour>
  </outline>
</glyph>
<glyph name="Tbar" format="1">
  <advance width="547.0"/>
  <unicode hex="0166"/>
  <outline>
    <contour>
      <point x="476" y="340" type="line"/>
      <point x="476" y="281" type="line"/>
      <point x="316" y="281" type="line"/>
      <point x="316" y="0" type="line"/>
      <point x="231" y="0" type="line"/>
      <point x="231" y="281" type="line"/>
      <point x="71" y="281" type="line"/>
      <point x="71" y="340" type="line"/>
      <point x="231" y="340" type="line"/>
      <point x="231" y="550" type="line"/>
      <point x="23" y="550" type="line"/>
      <point x="23" y="627" type="line"/>
      <point x="524" y="627" type="line"/>
      <point x="524" y="550" type="line"/>
      <point x="316" y="550" type="line"/>
      <point x="316" y="340" type="line"/>
    </contour>
  </outline>
</glyph>
<glyph name="tbar" format="1">
  <advance width="382.0"/>
  <unicode hex="0167"/>
  <outline>
    <contour>
      <point x="363" y="77" type="qcurve"/>
      <point x="363" y="8" type="line"/>
      <point x="347" y="1"/>
      <point x="292" y="-8"/>
      <point x="267" y="-8" type="qcurve" smooth="yes"/>
      <point x="177" y="-8"/>
      <point x="100" y="72"/>
      <point x="100" y="170" type="qcurve"/>
      <point x="100" y="246" type="line"/>
      <point x="27" y="246" type="line"/>
      <point x="27" y="305" type="line"/>
      <point x="100" y="305" type="line"/>
      <point x="100" y="424" type="line"/>
      <point x="26" y="424" type="line"/>
      <point x="26" y="494" type="line"/>
      <point x="101" y="494" type="line"/>
      <point x="114" y="614" type="line"/>
      <point x="182" y="614" type="line"/>
      <point x="182" y="494" type="line"/>
      <point x="358" y="494" type="line"/>
      <point x="358" y="424" type="line"/>
      <point x="182" y="424" type="line"/>
      <point x="182" y="305" type="line"/>
      <point x="358" y="305" type="line"/>
      <point x="358" y="246" type="line"/>
      <point x="182" y="246" type="line"/>
      <point x="182" y="173" type="line" smooth="yes"/>
      <point x="182" y="112"/>
      <point x="227" y="68"/>
      <point x="284" y="68" type="qcurve" smooth="yes"/>
      <point x="302" y="68"/>
      <point x="349" y="74"/>
    </contour>
  </outline>
</glyph>
<glyph name="Uogonek" format="1">
  <advance width="633.0"/>
  <unicode hex="0172"/>
  <outline>
    <contour>
      <point x="482" y="250" type="qcurve"/>
      <point x="482" y="627" type="line"/>
      <point x="567" y="627" type="line"/>
      <point x="567" y="250" type="line" smooth="yes"/>
      <point x="567" y="158"/>
      <point x="508" y="42"/>
      <point x="448" y="16" type="qcurve"/>
      <point x="384" y="-18"/>
      <point x="334" y="-75"/>
      <point x="334" y="-107" type="qcurve"/>
      <point x="334" y="-129"/>
      <point x="365" y="-153"/>
      <point x="393" y="-153" type="qcurve"/>
      <point x="406" y="-153"/>
      <point x="440" y="-148"/>
      <point x="455" y="-144" type="qcurve"/>
      <point x="455" y="-198" type="line"/>
      <point x="437" y="-203"/>
      <point x="395" y="-209"/>
      <point x="376" y="-209" type="qcurve"/>
      <point x="326" y="-209"/>
      <point x="272" y="-162"/>
      <point x="272" y="-120" type="qcurve"/>
      <point x="272" y="-89"/>
      <point x="305" y="-32"/>
      <point x="338" y="-7" type="qcurve"/>
      <point x="334" y="-8"/>
      <point x="325" y="-8"/>
      <point x="315" y="-8" type="qcurve"/>
      <point x="185" y="-8"/>
      <point x="66" y="115"/>
      <point x="66" y="250" type="qcurve"/>
      <point x="66" y="627" type="line"/>
      <point x="151" y="627" type="line"/>
      <point x="151" y="250" type="line" smooth="yes"/>
      <point x="151" y="151"/>
      <point x="224" y="72"/>
      <point x="315" y="72" type="qcurve"/>
      <point x="407" y="72"/>
      <point x="482" y="151"/>
    </contour>
  </outline>
</glyph>
<glyph name="uogonek" format="1">
  <advance width="538.0"/>
  <unicode hex="0173"/>
  <outline>
    <contour>
      <point x="226" y="-8" type="qcurve" smooth="yes"/>
      <point x="144" y="-8"/>
      <point x="62" y="74"/>
      <point x="62" y="156" type="qcurve"/>
      <point x="62" y="494" type="line"/>
      <point x="144" y="494" type="line"/>
      <point x="144" y="166" type="line" smooth="yes"/>
      <point x="144" y="115"/>
      <point x="196" y="69"/>
      <point x="252" y="69" type="qcurve" smooth="yes"/>
      <point x="286" y="69"/>
      <point x="355" y="86"/>
      <point x="390" y="104" type="qcurve"/>
      <point x="390" y="494" type="line"/>
      <point x="472" y="494" type="line"/>
      <point x="472" y="0" type="line"/>
      <point x="412" y="-12"/>
      <point x="335" y="-65"/>
      <point x="335" y="-98" type="qcurve"/>
      <point x="335" y="-120"/>
      <point x="364" y="-142"/>
      <point x="393" y="-142" type="qcurve"/>
      <point x="407" y="-142"/>
      <point x="440" y="-137"/>
      <point x="452" y="-134" type="qcurve"/>
      <point x="452" y="-193" type="line"/>
      <point x="420" y="-200"/>
      <point x="387" y="-204"/>
      <point x="372" y="-204" type="qcurve"/>
      <point x="321" y="-204"/>
      <point x="266" y="-157"/>
      <point x="266" y="-113" type="qcurve"/>
      <point x="266" y="-69"/>
      <point x="332" y="-6"/>
      <point x="396" y="12" type="qcurve"/>
      <point x="393" y="41" type="line"/>
      <point x="391" y="41" type="line"/>
      <point x="339" y="14"/>
      <point x="263" y="-8"/>
    </contour>
  </outline>
</glyph>
<glyph name="uni018F" format="1">
  <advance width="595.0"/>
  <unicode hex="018F"/>
  <outline>
    <contour>
      <point x="266" y="637" type="qcurve"/>
      <point x="419" y="637"/>
      <point x="550" y="489"/>
      <point x="550" y="314" type="qcurve" smooth="yes"/>
      <point x="550" y="144"/>
      <point x="425" y="-8"/>
      <point x="283" y="-8" type="qcurve"/>
      <point x="159" y="-8"/>
      <point x="38" y="116"/>
      <point x="38" y="243" type="qcurve"/>
      <point x="38" y="267"/>
      <point x="40" y="311"/>
      <point x="44" y="355" type="qcurve"/>
      <point x="462" y="355" type="line"/>
      <point x="456" y="469"/>
      <point x="365" y="560"/>
      <point x="257" y="560" type="qcurve" smooth="yes"/>
      <point x="217" y="560"/>
      <point x="140" y="550"/>
      <point x="97" y="538" type="qcurve"/>
      <point x="97" y="613" type="line"/>
      <point x="132" y="625"/>
      <point x="218" y="637"/>
    </contour>
    <contour>
      <point x="122" y="232" type="qcurve"/>
      <point x="122" y="149"/>
      <point x="203" y="69"/>
      <point x="286" y="69" type="qcurve"/>
      <point x="379" y="69"/>
      <point x="458" y="165"/>
      <point x="462" y="280" type="qcurve"/>
      <point x="124" y="280" type="line"/>
      <point x="123" y="261"/>
      <point x="122" y="243"/>
    </contour>
  </outline>
</glyph>
<glyph name="florin" format="1">
  <advance width="420.0"/>
  <unicode hex="0192"/>
  <outline>
    <contour>
      <point x="111" y="303" type="line"/>
      <point x="37" y="303" type="line"/>
      <point x="37" y="375" type="line"/>
      <point x="122" y="375" type="line"/>
      <point x="138" y="473" type="line" smooth="yes"/>
      <point x="153" y="567"/>
      <point x="231" y="636"/>
      <point x="313" y="636" type="qcurve"/>
      <point x="325" y="636"/>
      <point x="368" y="632"/>
      <point x="400" y="628" type="qcurve"/>
      <point x="400" y="555" type="line"/>
      <point x="387" y="558"/>
      <point x="345" y="561"/>
      <point x="324" y="561" type="qcurve"/>
      <point x="275" y="561"/>
      <point x="232" y="522"/>
      <point x="222" y="460" type="qcurve"/>
      <point x="208" y="375" type="line"/>
      <point x="375" y="375" type="line"/>
      <point x="375" y="303" type="line"/>
      <point x="197" y="303" type="line"/>
      <point x="123" y="-152" type="line"/>
      <point x="38" y="-152" type="line"/>
    </contour>
  </outline>
</glyph>
<glyph name="uni01B5" format="1">
  <advance width="522.0"/>
  <unicode hex="01B5"/>
  <outline>
    <contour>
      <point x="492" y="80" type="line"/>
      <point x="492" y="0" type="line"/>
      <point x="31" y="0" type="line"/>
      <point x="31" y="80" type="line"/>
      <point x="188" y="293" type="line"/>
      <point x="54" y="293" type="line"/>
      <point x="54" y="353" type="line"/>
      <point x="232" y="353" type="line"/>
      <point x="377" y="550" type="line"/>
      <point x="60" y="550" type="line"/>
      <point x="60" y="627" type="line"/>
      <point x="473" y="627" type="line"/>
      <point x="473" y="550" type="line"/>
      <point x="328" y="353" type="line"/>
      <point x="471" y="353" type="line"/>
      <point x="471" y="293" type="line"/>
      <point x="284" y="293" type="line"/>
      <point x="128" y="80" type="line"/>
    </contour>
  </outline>
</glyph>
<glyph name="uni01B6" format="1">
  <advance width="436.0"/>
  <unicode hex="01B6"/>
  <outline>
    <contour>
      <point x="405" y="72" type="line"/>
      <point x="405" y="0" type="line"/>
      <point x="34" y="0" type="line"/>
      <point x="34" y="72" type="line"/>
      <point x="151" y="230" type="line"/>
      <point x="53" y="230" type="line"/>
      <point x="53" y="289" type="line"/>
      <point x="195" y="289" type="line"/>
      <point x="295" y="424" type="line"/>
      <point x="52" y="424" type="line"/>
      <point x="52" y="494" type="line"/>
      <point x="388" y="494" type="line"/>
      <point x="388" y="424" type="line"/>
      <point x="288" y="289" type="line"/>
      <point x="387" y="289" type="line"/>
      <point x="387" y="230" type="line"/>
      <point x="244" y="230" type="line"/>
      <point x="127" y="72" type="line"/>
    </contour>
  </outline>
</glyph>
<glyph name="uni0237" format="1">
  <advance width="223.0"/>
  <unicode hex="0237"/>
  <outline>
    <contour>
      <point x="0" y="-162" type="qcurve"/>
      <point x="-19" y="-162"/>
      <point x="-50" y="-160"/>
      <point x="-72" y="-156" type="qcurve"/>
      <point x="-72" y="-84" type="line"/>
      <point x="-51" y="-87"/>
      <point x="-32" y="-88"/>
      <point x="-24" y="-88" type="qcurve"/>
      <point x="30" y="-88"/>
      <point x="75" y="-42"/>
      <point x="75" y="14" type="qcurve"/>
      <point x="75" y="494" type="line"/>
      <point x="157" y="494" type="line"/>
      <point x="157" y="5" type="line"/>
      <point x="157" y="-78"/>
      <point x="78" y="-162"/>
    </contour>
    <contour>
      <point x="116.0" y="520" type="move" name="top"/>
    </contour>
  </outline>
</glyph>
<glyph name="uni0259" format="1">
  <advance width="499.0"/>
  <unicode hex="0259"/>
  <outline>
    <contour>
      <point x="62" y="403" type="qcurve"/>
      <point x="62" y="469" type="line"/>
      <point x="88" y="483"/>
      <point x="189" y="504"/>
      <point x="241" y="504" type="qcurve" smooth="yes"/>
      <point x="355" y="504"/>
      <point x="457" y="386"/>
      <point x="457" y="254" type="qcurve" smooth="yes"/>
      <point x="457" y="117"/>
      <point x="353" y="-8"/>
      <point x="239" y="-8" type="qcurve"/>
      <point x="133" y="-8"/>
      <point x="41" y="88"/>
      <point x="41" y="199" type="qcurve"/>
      <point x="41" y="221"/>
      <point x="43" y="260"/>
      <point x="46" y="290" type="qcurve"/>
      <point x="374" y="290" type="line"/>
      <point x="373" y="365"/>
      <point x="307" y="430"/>
      <point x="228" y="430" type="qcurve" smooth="yes"/>
      <point x="184" y="430"/>
      <point x="90" y="414"/>
    </contour>
    <contour>
      <point x="117" y="188" type="qcurve"/>
      <point x="118" y="122"/>
      <point x="174" y="68"/>
      <point x="239" y="68" type="qcurve"/>
      <point x="313" y="68"/>
      <point x="374" y="137"/>
      <point x="374" y="222" type="qcurve"/>
      <point x="118" y="222" type="line"/>
      <point x="117" y="218"/>
      <point x="117" y="204"/>
    </contour>
  </outline>
</glyph>
<glyph name="breve" format="1">
  <advance width="381.0"/>
  <unicode hex="02D8"/>
  <outline>
    <contour>
      <point x="273" y="686" type="qcurve"/>
      <point x="331" y="686" type="line"/>
      <point x="331" y="627"/>
      <point x="256" y="557"/>
      <point x="191" y="557" type="qcurve" smooth="yes"/>
      <point x="125" y="557"/>
      <point x="50" y="627"/>
      <point x="50" y="686" type="qcurve"/>
      <point x="108" y="686" type="line"/>
      <point x="108" y="652"/>
      <point x="152" y="613"/>
      <point x="191" y="613" type="qcurve" smooth="yes"/>
      <point x="229" y="613"/>
      <point x="273" y="653"/>
    </contour>
    <contour>
      <point x="191.0" y="530.0" type="move" name="_top"/>
    </contour>
  </outline>
</glyph>
<glyph name="dotaccent" format="1">
  <advance width="200.0"/>
  <unicode hex="02D9"/>
  <outline>
    <contour>
      <point x="150" y="564" type="line"/>
      <point x="50" y="564" type="line"/>
      <point x="50" y="642" type="line"/>
      <point x="150" y="642" type="line"/>
    </contour>
    <contour>
      <point x="101.0" y="530.0" type="move" name="_top"/>
    </contour>
  </outline>
</glyph>
<glyph name="ring" format="1">
  <advance width="329.0"/>
  <unicode hex="02DA"/>
  <outline>
    <contour>
      <point x="276" y="639" type="qcurve" smooth="yes"/>
      <point x="276" y="595"/>
      <point x="215" y="543"/>
      <point x="163" y="543" type="qcurve" smooth="yes"/>
      <point x="111" y="543"/>
      <point x="51" y="595"/>
      <point x="51" y="639" type="qcurve" smooth="yes"/>
      <point x="51" y="681"/>
      <point x="112" y="731"/>
      <point x="163" y="731" type="qcurve" smooth="yes"/>
      <point x="215" y="731"/>
      <point x="276" y="681"/>
    </contour>
    <contour>
      <point x="102" y="639" type="qcurve" smooth="yes"/>
      <point x="102" y="616"/>
      <point x="134" y="591"/>
      <point x="163" y="591" type="qcurve" smooth="yes"/>
      <point x="193" y="591"/>
      <point x="226" y="616"/>
      <point x="226" y="639" type="qcurve" smooth="yes"/>
      <point x="226" y="660"/>
      <point x="192" y="685"/>
      <point x="163" y="685" type="qcurve" smooth="yes"/>
      <point x="134" y="685"/>
      <point x="102" y="660"/>
    </contour>
    <contour>
      <point x="163.0" y="530.0" type="move" name="_top"/>
    </contour>
  </outline>
</glyph>
<glyph name="ogonek" format="1">
  <advance width="313.0"/>
  <unicode hex="02DB"/>
  <outline>
    <contour>
      <point x="223" y="29" type="qcurve"/>
      <point x="263" y="9" type="line"/>
      <point x="203" y="-3"/>
      <point x="126" y="-56"/>
      <point x="126" y="-89" type="qcurve"/>
      <point x="126" y="-111"/>
      <point x="155" y="-133"/>
      <point x="184" y="-133" type="qcurve"/>
      <point x="198" y="-133"/>
      <point x="231" y="-128"/>
      <point x="243" y="-125" type="qcurve"/>
      <point x="243" y="-184" type="line"/>
      <point x="211" y="-191"/>
      <point x="178" y="-195"/>
      <point x="163" y="-195" type="qcurve"/>
      <point x="112" y="-195"/>
      <point x="57" y="-148"/>
      <point x="57" y="-104" type="qcurve"/>
      <point x="57" y="-54"/>
      <point x="141" y="13"/>
    </contour>
    <contour>
      <point x="263.0" y="9.0" type="move" name="_ogonek"/>
    </contour>
  </outline>
</glyph>
<glyph name="tilde" format="1">
  <advance width="395.0"/>
  <unicode hex="02DC"/>
  <outline>
    <contour>
      <point x="289" y="684" type="qcurve"/>
      <point x="345" y="684" type="line"/>
      <point x="345" y="626"/>
      <point x="304" y="560"/>
      <point x="265" y="560" type="qcurve"/>
      <point x="247" y="560"/>
      <point x="211" y="577"/>
      <point x="183" y="602" type="qcurve" smooth="yes"/>
      <point x="164" y="620"/>
      <point x="146" y="630"/>
      <point x="138" y="630" type="qcurve"/>
      <point x="122" y="630"/>
      <point x="106" y="598"/>
      <point x="106" y="564" type="qcurve"/>
      <point x="50" y="564" type="line"/>
      <point x="50" y="622"/>
      <point x="92" y="688"/>
      <point x="131" y="688" type="qcurve"/>
      <point x="149" y="688"/>
      <point x="185" y="671"/>
      <point x="213" y="646" type="qcurve" smooth="yes"/>
      <point x="233" y="628"/>
      <point x="251" y="618"/>
      <point x="259" y="618" type="qcurve"/>
      <point x="274" y="618"/>
      <point x="289" y="649"/>
    </contour>
    <contour>
      <point x="198" y="530" type="move" name="_top"/>
    </contour>
  </outline>
</glyph>
<glyph name="hungarumlaut" format="1">
  <advance width="486.0"/>
  <unicode hex="02DD"/>
  <outline>
    <contour>
      <point x="157" y="686" type="line"/>
      <point x="253" y="686" type="line"/>
      <point x="127" y="564" type="line"/>
      <point x="55" y="564" type="line"/>
    </contour>
    <contour>
      <point x="336" y="686" type="line"/>
      <point x="431" y="686" type="line"/>
      <point x="306" y="564" type="line"/>
      <point x="233" y="564" type="line"/>
    </contour>
    <contour>
      <point x="210.0" y="530.0" type="move" name="_top"/>
    </contour>
  </outline>
</glyph>
<glyph name="uni0312" format="1">
  <advance width="186.0"/>
  <unicode hex="0312"/>
  <outline>
    <contour>
      <point x="50" y="564" type="line"/>
      <point x="70" y="689" type="line" smooth="yes"/>
      <point x="72" y="706"/>
      <point x="93" y="724"/>
      <point x="110" y="724" type="qcurve"/>
      <point x="136" y="724" type="line"/>
      <point x="132" y="564" type="line"/>
    </contour>
    <contour>
      <point x="90.0" y="530.0" type="move" name="_top"/>
    </contour>
  </outline>
</glyph>
<glyph name="uni0326" format="1">
  <advance width="186.0"/>
  <unicode hex="0326"/>
  <outline>
    <contour>
      <point x="135" y="-63" type="line"/>
      <point x="115" y="-188" type="line" smooth="yes"/>
      <point x="112" y="-205"/>
      <point x="92" y="-223"/>
      <point x="75" y="-223" type="qcurve"/>
      <point x="49" y="-223" type="line"/>
      <point x="53" y="-63" type="line"/>
    </contour>
    <contour>
      <point x="96.0" y="0.0" type="move" name="_bottom"/>
    </contour>
  </outline>
</glyph>
<glyph name="uni0394" format="1">
  <advance width="612.0"/>
  <unicode hex="0394"/>
  <outline>
    <contour>
      <point x="22" y="0" type="line"/>
      <point x="22" y="80" type="line"/>
      <point x="262" y="627" type="line"/>
      <point x="350" y="627" type="line"/>
      <point x="590" y="80" type="line"/>
      <point x="590" y="0" type="line"/>
    </contour>
    <contour>
      <point x="306" y="535" type="line"/>
      <point x="107" y="80" type="line"/>
      <point x="505" y="80" type="line"/>
    </contour>
  </outline>
</glyph>
<glyph name="uni03A9" format="1">
  <advance width="689.0"/>
  <unicode hex="03A9"/>
  <outline>
    <contour>
      <point x="70" y="0" type="line"/>
      <point x="70" y="80" type="line"/>
      <point x="212" y="80" type="line"/>
      <point x="212" y="138" type="line"/>
      <point x="129" y="164"/>
      <point x="40" y="287"/>
      <point x="40" y="378" type="qcurve"/>
      <point x="40" y="503"/>
      <point x="201" y="647"/>
      <point x="345" y="647" type="qcurve" smooth="yes"/>
      <point x="489" y="647"/>
      <point x="649" y="504"/>
      <point x="649" y="378" type="qcurve"/>
      <point x="649" y="289"/>
      <point x="560" y="165"/>
      <point x="478" y="138" type="qcurve"/>
      <point x="478" y="80" type="line"/>
      <point x="620" y="80" type="line"/>
      <point x="620" y="0" type="line"/>
      <point x="399" y="0" type="line"/>
      <point x="399" y="186" type="line"/>
      <point x="477" y="203"/>
      <point x="559" y="299"/>
      <point x="559" y="375" type="qcurve"/>
      <point x="559" y="464"/>
      <point x="448" y="560"/>
      <point x="345" y="560" type="qcurve" smooth="yes"/>
      <point x="241" y="560"/>
      <point x="130" y="464"/>
      <point x="130" y="375" type="qcurve"/>
      <point x="130" y="299"/>
      <point x="213" y="202"/>
      <point x="291" y="186" type="qcurve"/>
      <point x="291" y="0" type="line"/>
    </contour>
  </outline>
</glyph>
<glyph name="uni03BC" format="1">
  <advance width="548.0"/>
  <unicode hex="03BC"/>
  <outline>
    <contour>
      <point x="235" y="-8" type="qcurve" smooth="yes"/>
      <point x="199" y="-8"/>
      <point x="155" y="12"/>
      <point x="148" y="32" type="qcurve"/>
      <point x="148" y="-38"/>
      <point x="161" y="-119"/>
      <point x="176" y="-152" type="qcurve"/>
      <point x="92" y="-152" type="line"/>
      <point x="78" y="-117"/>
      <point x="66" y="-31"/>
      <point x="66" y="60" type="qcurve"/>
      <point x="66" y="494" type="line"/>
      <point x="148" y="494" type="line"/>
      <point x="148" y="166" type="line" smooth="yes"/>
      <point x="148" y="114"/>
      <point x="196" y="69"/>
      <point x="253" y="69" type="qcurve" smooth="yes"/>
      <point x="288" y="69"/>
      <point x="364" y="88"/>
      <point x="400" y="106" type="qcurve"/>
      <point x="400" y="494" type="line"/>
      <point x="482" y="494" type="line"/>
      <point x="482" y="0" type="line"/>
      <point x="407" y="0" type="line"/>
      <point x="403" y="43" type="line"/>
      <point x="357" y="17"/>
      <point x="275" y="-8"/>
    </contour>
  </outline>
</glyph>
<glyph name="pi" format="1">
  <advance width="591.0"/>
  <unicode hex="03C0"/>
  <outline>
    <contour>
      <point x="139" y="0" type="qcurve"/>
      <point x="47" y="0" type="line"/>
      <point x="90" y="95"/>
      <point x="136" y="317"/>
      <point x="133" y="417" type="qcurve"/>
      <point x="25" y="417" type="line"/>
      <point x="25" y="494" type="line"/>
      <point x="561" y="494" type="line"/>
      <point x="561" y="417" type="line"/>
      <point x="450" y="417" type="line"/>
      <point x="450" y="159" type="line" smooth="yes"/>
      <point x="450" y="118"/>
      <point x="492" y="78"/>
      <point x="534" y="78" type="qcurve"/>
      <point x="547" y="78" type="line"/>
      <point x="547" y="0" type="line"/>
      <point x="511" y="0" type="line" smooth="yes"/>
      <point x="444" y="0"/>
      <point x="368" y="76"/>
      <point x="368" y="144" type="qcurve"/>
      <point x="368" y="417" type="line"/>
      <point x="214" y="417" type="line"/>
      <point x="216" y="305"/>
      <point x="177" y="90"/>
    </contour>
  </outline>
</glyph>
<glyph name="uni1E9E" format="1">
  <advance width="647.0"/>
  <unicode hex="1E9E"/>
  <outline>
    <contour>
      <point x="316" y="637" type="qcurve" smooth="yes"/>
      <point x="383" y="637"/>
      <point x="501" y="622"/>
      <point x="540" y="608" type="qcurve"/>
      <point x="466" y="352" type="line"/>
      <point x="524" y="335" type="line" smooth="yes"/>
      <point x="575" y="320"/>
      <point x="614" y="255"/>
      <point x="614" y="189" type="qcurve" smooth="yes"/>
      <point x="614" y="88"/>
      <point x="527" y="-10"/>
      <point x="437" y="-10" type="qcurve" smooth="yes"/>
      <point x="396" y="-10"/>
      <point x="325" y="-3"/>
      <point x="299" y="3" type="qcurve"/>
      <point x="299" y="77" type="line"/>
      <point x="332" y="71"/>
      <point x="388" y="66"/>
      <point x="420" y="66" type="qcurve" smooth="yes"/>
      <point x="478" y="66"/>
      <point x="530" y="124"/>
      <point x="530" y="187" type="qcurve" smooth="yes"/>
      <point x="530" y="227"/>
      <point x="507" y="263"/>
      <point x="476" y="272" type="qcurve"/>
      <point x="373" y="300" type="line"/>
      <point x="445" y="552" type="line"/>
      <point x="429" y="556"/>
      <point x="347" y="562"/>
      <point x="310" y="562" type="qcurve"/>
      <point x="226" y="562"/>
      <point x="152" y="493"/>
      <point x="152" y="415" type="qcurve"/>
      <point x="152" y="0" type="line"/>
      <point x="67" y="0" type="line"/>
      <point x="67" y="416" type="line" smooth="yes"/>
      <point x="67" y="529"/>
      <point x="189" y="637"/>
    </contour>
  </outline>
</glyph>
<glyph name="emdash" format="1">
  <advance width="799.0"/>
  <unicode hex="2014"/>
  <outline>
    <contour>
      <point x="744" y="350" type="line"/>
      <point x="744" y="286" type="line"/>
      <point x="55" y="286" type="line"/>
      <point x="55" y="350" type="line"/>
    </contour>
  </outline>
</glyph>
<glyph name="quoteright" format="1">
  <advance width="161.0"/>
  <unicode hex="2019"/>
  <outline>
    <contour>
      <point x="129" y="627" type="line"/>
      <point x="104" y="472" type="line" smooth="yes"/>
      <point x="101" y="456"/>
      <point x="82" y="440"/>
      <point x="67" y="440" type="qcurve"/>
      <point x="46" y="440" type="line"/>
      <point x="51" y="627" type="line"/>
    </contour>
  </outline>
</glyph>
<glyph name="dagger" format="1">
  <advance width="355.0"/>
  <unicode hex="2020"/>
  <outline>
    <contour>
      <point x="203" y="453" type="line"/>
      <point x="210" y="221" type="line"/>
      <point x="143" y="221" type="line"/>
      <point x="151" y="452" type="line"/>
      <point x="25" y="447" type="line"/>
      <point x="25" y="508" type="line"/>
      <point x="150" y="502" type="line"/>
      <point x="144" y="627" type="line"/>
      <point x="209" y="627" type="line"/>
      <point x="203" y="502" type="line"/>
      <point x="330" y="508" type="line"/>
      <point x="330" y="447" type="line"/>
    </contour>
  </outline>
</glyph>
<glyph name="daggerdbl" format="1">
  <advance width="389.0"/>
  <unicode hex="2021"/>
  <outline>
    <contour>
      <point x="347" y="298" type="line"/>
      <point x="347" y="237" type="line"/>
      <point x="220" y="243" type="line"/>
      <point x="226" y="118" type="line"/>
      <point x="161" y="118" type="line"/>
      <point x="167" y="243" type="line"/>
      <point x="42" y="237" type="line"/>
      <point x="42" y="298" type="line"/>
      <point x="169" y="292" type="line"/>
      <point x="169" y="453" type="line"/>
      <point x="42" y="447" type="line"/>
      <point x="42" y="508" type="line"/>
      <point x="167" y="502" type="line"/>
      <point x="161" y="627" type="line"/>
      <point x="226" y="627" type="line"/>
      <point x="220" y="502" type="line"/>
      <point x="347" y="508" type="line"/>
      <point x="347" y="447" type="line"/>
      <point x="219" y="453" type="line"/>
      <point x="219" y="292" type="line"/>
    </contour>
  </outline>
</glyph>
<glyph name="bullet" format="1">
  <advance width="298.0"/>
  <unicode hex="2022"/>
  <outline>
    <contour>
      <point x="221" y="258" type="line"/>
      <point x="77" y="258" type="line"/>
      <point x="77" y="383" type="line"/>
      <point x="221" y="383" type="line"/>
    </contour>
  </outline>
</glyph>
<glyph name="ellipsis" format="1">
  <advance width="489.0"/>
  <unicode hex="2026"/>
  <outline>
    <contour>
      <point x="280" y="0" type="line"/>
      <point x="208" y="0" type="line"/>
      <point x="208" y="83" type="line"/>
      <point x="280" y="83" type="line"/>
    </contour>
    <contour>
      <point x="118" y="0" type="line"/>
      <point x="46" y="0" type="line"/>
      <point x="46" y="83" type="line"/>
      <point x="118" y="83" type="line"/>
    </contour>
    <contour>
      <point x="443" y="0" type="line"/>
      <point x="371" y="0" type="line"/>
      <point x="371" y="83" type="line"/>
      <point x="443" y="83" type="line"/>
    </contour>
  </outline>
</glyph>
<glyph name="perthousand" format="1">
  <advance width="934.0"/>
  <unicode hex="2030"/>
  <outline>
    <contour>
      <point x="275" y="476" type="qcurve"/>
      <point x="275" y="391"/>
      <point x="218" y="320"/>
      <point x="151" y="320" type="qcurve"/>
      <point x="83" y="320"/>
      <point x="26" y="391"/>
      <point x="26" y="476" type="qcurve"/>
      <point x="26" y="561"/>
      <point x="83" y="632"/>
      <point x="151" y="632" type="qcurve"/>
      <point x="219" y="632"/>
      <point x="275" y="561"/>
    </contour>
    <contour>
      <point x="498" y="627" type="line"/>
      <point x="198" y="0" type="line"/>
      <point x="137" y="0" type="line"/>
      <point x="437" y="627" type="line"/>
    </contour>
    <contour>
      <point x="216" y="476" type="qcurve"/>
      <point x="216" y="535"/>
      <point x="187" y="582"/>
      <point x="151" y="582" type="qcurve"/>
      <point x="114" y="582"/>
      <point x="85" y="535"/>
      <point x="85" y="476" type="qcurve"/>
      <point x="85" y="418"/>
      <point x="114" y="372"/>
      <point x="151" y="372" type="qcurve"/>
      <point x="187" y="372"/>
      <point x="216" y="418"/>
    </contour>
    <contour>
      <point x="613" y="152" type="qcurve"/>
      <point x="613" y="67"/>
      <point x="556" y="-4"/>
      <point x="488" y="-4" type="qcurve"/>
      <point x="420" y="-4"/>
      <point x="363" y="67"/>
      <point x="363" y="152" type="qcurve"/>
      <point x="363" y="236"/>
      <point x="420" y="308"/>
      <point x="488" y="308" type="qcurve"/>
      <point x="556" y="308"/>
      <point x="613" y="236"/>
    </contour>
    <contour>
      <point x="908" y="152" type="qcurve"/>
      <point x="908" y="67"/>
      <point x="851" y="-4"/>
      <point x="783" y="-4" type="qcurve"/>
      <point x="715" y="-4"/>
      <point x="658" y="67"/>
      <point x="658" y="152" type="qcurve"/>
      <point x="658" y="236"/>
      <point x="715" y="308"/>
      <point x="783" y="308" type="qcurve"/>
      <point x="851" y="308"/>
      <point x="908" y="236"/>
    </contour>
    <contour>
      <point x="553" y="152" type="qcurve"/>
      <point x="553" y="211"/>
      <point x="524" y="258"/>
      <point x="488" y="258" type="qcurve"/>
      <point x="452" y="258"/>
      <point x="423" y="211"/>
      <point x="423" y="152" type="qcurve"/>
      <point x="423" y="94"/>
      <point x="452" y="48"/>
      <point x="488" y="48" type="qcurve"/>
      <point x="524" y="48"/>
      <point x="553" y="94"/>
    </contour>
    <contour>
      <point x="849" y="152" type="qcurve"/>
      <point x="849" y="211"/>
      <point x="820" y="258"/>
      <point x="783" y="258" type="qcurve"/>
      <point x="747" y="258"/>
      <point x="718" y="211"/>
      <point x="718" y="152" type="qcurve"/>
      <point x="718" y="94"/>
      <point x="747" y="48"/>
      <point x="783" y="48" type="qcurve"/>
      <point x="820" y="48"/>
      <point x="849" y="94"/>
    </contour>
  </outline>
</glyph>
<glyph name="guilsinglleft" format="1">
  <advance width="285.0"/>
  <unicode hex="2039"/>
  <outline>
    <contour>
      <point x="258" y="64" type="line"/>
      <point x="171" y="64" type="line"/>
      <point x="22" y="281" type="line"/>
      <point x="171" y="494" type="line"/>
      <point x="258" y="494" type="line"/>
      <point x="111" y="282" type="line"/>
    </contour>
  </outline>
</glyph>
<glyph name="uni2070" format="1">
  <advance width="364.0"/>
  <unicode hex="2070"/>
  <outline>
    <contour>
      <point x="329" y="450" type="qcurve"/>
      <point x="329" y="348"/>
      <point x="265" y="265"/>
      <point x="182" y="265" type="qcurve"/>
      <point x="95" y="265"/>
      <point x="35" y="342"/>
      <point x="35" y="450" type="qcurve"/>
      <point x="35" y="551"/>
      <point x="99" y="633"/>
      <point x="182" y="633" type="qcurve"/>
      <point x="268" y="633"/>
      <point x="329" y="557"/>
    </contour>
    <contour>
      <point x="264" y="450" type="qcurve"/>
      <point x="264" y="526"/>
      <point x="232" y="575"/>
      <point x="182" y="575" type="qcurve"/>
      <point x="132" y="575"/>
      <point x="99" y="524"/>
      <point x="99" y="450" type="qcurve"/>
      <point x="99" y="375"/>
      <point x="131" y="325"/>
      <point x="182" y="325" type="qcurve"/>
      <point x="231" y="325"/>
      <point x="264" y="375"/>
    </contour>
  </outline>
</glyph>
<glyph name="uni2075" format="1">
  <advance width="292.0"/>
  <unicode hex="2075"/>
  <outline>
    <contour>
      <point x="265" y="376" type="qcurve" smooth="yes"/>
      <point x="265" y="322"/>
      <point x="201" y="265"/>
      <point x="141" y="265" type="qcurve"/>
      <point x="103" y="265"/>
      <point x="46" y="271"/>
      <point x="30" y="277" type="qcurve"/>
      <point x="30" y="331" type="line"/>
      <point x="49" y="327"/>
      <point x="95" y="323"/>
      <point x="125" y="323" type="qcurve"/>
      <point x="167" y="323"/>
      <point x="203" y="348"/>
      <point x="203" y="377" type="qcurve" smooth="yes"/>
      <point x="203" y="406"/>
      <point x="169" y="429"/>
      <point x="123" y="429" type="qcurve" smooth="yes"/>
      <point x="103" y="429"/>
      <point x="64" y="426"/>
      <point x="47" y="423" type="qcurve"/>
      <point x="47" y="627" type="line"/>
      <point x="241" y="627" type="line"/>
      <point x="241" y="572" type="line"/>
      <point x="108" y="572" type="line"/>
      <point x="108" y="476" type="line"/>
      <point x="118" y="477"/>
      <point x="143" y="479"/>
      <point x="155" y="479" type="qcurve" smooth="yes"/>
      <point x="213" y="479"/>
      <point x="265" y="429"/>
    </contour>
  </outline>
</glyph>
<glyph name="uni2076" format="1">
  <advance width="327.0"/>
  <unicode hex="2076"/>
  <outline>
    <contour>
      <point x="172" y="265" type="qcurve"/>
      <point x="95" y="265"/>
      <point x="34" y="343"/>
      <point x="34" y="439" type="qcurve"/>
      <point x="34" y="542"/>
      <point x="114" y="633"/>
      <point x="204" y="633" type="qcurve"/>
      <point x="221" y="633"/>
      <point x="253" y="630"/>
      <point x="260" y="628" type="qcurve"/>
      <point x="260" y="578" type="line"/>
      <point x="232" y="580"/>
      <point x="213" y="581"/>
      <point x="204" y="581" type="qcurve"/>
      <point x="149" y="581"/>
      <point x="101" y="535"/>
      <point x="97" y="478" type="qcurve"/>
      <point x="121" y="491"/>
      <point x="170" y="502"/>
      <point x="199" y="502" type="qcurve"/>
      <point x="252" y="502"/>
      <point x="302" y="447"/>
      <point x="302" y="390" type="qcurve"/>
      <point x="302" y="331"/>
      <point x="233" y="265"/>
    </contour>
    <contour>
      <point x="243" y="388" type="qcurve"/>
      <point x="243" y="423"/>
      <point x="215" y="450"/>
      <point x="177" y="450" type="qcurve"/>
      <point x="156" y="450"/>
      <point x="113" y="440"/>
      <point x="95" y="431" type="qcurve"/>
      <point x="96" y="367"/>
      <point x="128" y="318"/>
      <point x="169" y="318" type="qcurve"/>
      <point x="206" y="318"/>
      <point x="243" y="353"/>
    </contour>
  </outline>
</glyph>
<glyph name="uni2077" format="1">
  <advance width="289.0"/>
  <unicode hex="2077"/>
  <outline>
    <contour>
      <point x="268" y="627" type="line"/>
      <point x="268" y="570" type="line"/>
      <point x="99" y="270" type="line"/>
      <point x="27" y="270" type="line"/>
      <point x="199" y="570" type="line"/>
      <point x="26" y="570" type="line"/>
      <point x="26" y="627" type="line"/>
    </contour>
  </outline>
</glyph>
<glyph name="uni2078" format="1">
  <advance width="334.0"/>
  <unicode hex="2078"/>
  <outline>
    <contour>
      <point x="301" y="366" type="qcurve"/>
      <point x="301" y="313"/>
      <point x="236" y="265"/>
      <point x="166" y="265" type="qcurve"/>
      <point x="95" y="265"/>
      <point x="33" y="311"/>
      <point x="33" y="364" type="qcurve"/>
      <point x="33" y="400"/>
      <point x="71" y="448"/>
      <point x="106" y="454" type="qcurve"/>
      <point x="73" y="462"/>
      <point x="40" y="505"/>
      <point x="40" y="539" type="qcurve"/>
      <point x="40" y="588"/>
      <point x="101" y="633"/>
      <point x="166" y="633" type="qcurve"/>
      <point x="234" y="633"/>
      <point x="294" y="590"/>
      <point x="294" y="540" type="qcurve"/>
      <point x="294" y="505"/>
      <point x="260" y="462"/>
      <point x="227" y="454" type="qcurve"/>
      <point x="262" y="447"/>
      <point x="301" y="401"/>
    </contour>
    <contour>
      <point x="237" y="531" type="qcurve"/>
      <point x="237" y="558"/>
      <point x="204" y="581"/>
      <point x="166" y="581" type="qcurve"/>
      <point x="129" y="581"/>
      <point x="97" y="557"/>
      <point x="97" y="530" type="qcurve"/>
      <point x="97" y="501"/>
      <point x="130" y="476"/>
      <point x="166" y="476" type="qcurve"/>
      <point x="203" y="476"/>
      <point x="237" y="502"/>
    </contour>
    <contour>
      <point x="242" y="374" type="qcurve"/>
      <point x="242" y="402"/>
      <point x="206" y="427"/>
      <point x="166" y="427" type="qcurve"/>
      <point x="128" y="427"/>
      <point x="92" y="401"/>
      <point x="92" y="373" type="qcurve"/>
      <point x="92" y="345"/>
      <point x="127" y="319"/>
      <point x="166" y="319" type="qcurve"/>
      <point x="206" y="319"/>
      <point x="242" y="345"/>
    </contour>
  </outline>
</glyph>
<glyph name="uni2079" format="1">
  <advance width="327.0"/>
  <unicode hex="2079"/>
  <outline>
    <contour>
      <point x="158" y="633" type="qcurve"/>
      <point x="234" y="633"/>
      <point x="293" y="556"/>
      <point x="293" y="459" type="qcurve"/>
      <point x="293" y="357"/>
      <point x="212" y="265"/>
      <point x="122" y="265" type="qcurve"/>
      <point x="106" y="265"/>
      <point x="72" y="268"/>
      <point x="64" y="270" type="qcurve"/>
      <point x="64" y="322" type="line"/>
      <point x="79" y="320"/>
      <point x="107" y="318"/>
      <point x="122" y="318" type="qcurve"/>
      <point x="178" y="318"/>
      <point x="225" y="364"/>
      <point x="230" y="422" type="qcurve"/>
      <point x="206" y="409"/>
      <point x="160" y="397"/>
      <point x="133" y="397" type="qcurve"/>
      <point x="79" y="397"/>
      <point x="26" y="453"/>
      <point x="26" y="510" type="qcurve"/>
      <point x="26" y="568"/>
      <point x="95" y="633"/>
    </contour>
    <contour>
      <point x="158" y="579" type="qcurve"/>
      <point x="122" y="579"/>
      <point x="86" y="546"/>
      <point x="86" y="513" type="qcurve"/>
      <point x="86" y="477"/>
      <point x="115" y="449"/>
      <point x="154" y="449" type="qcurve"/>
      <point x="175" y="449"/>
      <point x="213" y="459"/>
      <point x="232" y="469" type="qcurve"/>
      <point x="231" y="534"/>
      <point x="201" y="579"/>
    </contour>
  </outline>
</glyph>
